<svg xmlns="http://www.w3.org/2000/svg" width="402" height="327.842" viewBox="0 0 402 327.842">
  <g id="Grupo_1104831" data-name="Grupo 1104831" transform="translate(-389 -6597.242)">
    <path id="Trazado_913222" data-name="Trazado 913222" d="M361.714,295.357A113.25,113.25,0,1,1,248.463,182.107,113.251,113.251,0,0,1,361.714,295.357Zm91.675-99.338A113.251,113.251,0,1,1,340.138,82.766,113.248,113.248,0,0,1,453.389,196.019Zm-173.5,11.207A113.251,113.251,0,1,1,166.64,93.975,113.251,113.251,0,0,1,279.891,207.226Z" transform="translate(336.611 6515.476)" fill="none" stroke="#f37e29" stroke-miterlimit="10" stroke-width="2"/>
    <path id="Trazado_913228" data-name="Trazado 913228" d="M259.766,185.1a81.826,81.826,0,1,1-81.826-81.826A81.826,81.826,0,0,1,259.766,185.1" transform="translate(407.133 6549.326)" fill="#f37e29" stroke="#fff" stroke-width="3"/>
    <path id="Trazado_916745" data-name="Trazado 916745" d="M-45.36,0H-43.2V-7.728c.308.028.588.028.952.028A5.53,5.53,0,0,0-37.8-9.8a6,6,0,0,0,1.148-3.864,5.3,5.3,0,0,0-1.4-3.892,5.714,5.714,0,0,0-4.172-1.4,12.532,12.532,0,0,0-3.136.364ZM-43.2-17.052a4.424,4.424,0,0,1,1.2-.14c2.38,0,3.192,1.736,3.192,3.668,0,2.66-1.428,4.06-3.556,4.06a3.534,3.534,0,0,1-.84-.084ZM-34.356,0H-32.2V-19.376h-2.156ZM-21.7,0a21.479,21.479,0,0,1-.14-3.08V-8.932c0-3.052-1.176-4.844-3.892-4.844a5.832,5.832,0,0,0-3.164.9l.476,1.512a4.081,4.081,0,0,1,2.24-.7c1.708,0,2.156,1.26,2.156,3.08v.42c-3.052.028-5.768,1.54-5.768,4.928,0,2.324,1.4,3.864,3.22,3.864a3.042,3.042,0,0,0,2.688-1.652h.084L-23.66,0Zm-2.268-4.256a3.569,3.569,0,0,1-.056.756c-.252,1.344-1.064,2.044-2.016,2.044-.756,0-1.652-.644-1.652-2.408,0-2.94,2.6-3.136,3.724-3.136ZM-18.816,0h2.156V-8.54a7.605,7.605,0,0,1,.084-1.2c.28-1.456,1.148-2.212,2.044-2.212,1.568,0,1.876,1.624,1.876,3.22V0H-10.5V-9.1c0-3.276-1.4-4.676-3.276-4.676a3.439,3.439,0,0,0-3.108,1.848h-.056l-.112-1.624h-1.876c.028,1.092.112,1.9.112,3.5ZM.336-6.58c.028-.336.028-.7.028-1.2,0-3.08-1.092-5.992-3.864-5.992-2.716,0-4.564,2.744-4.564,7.14,0,4.144,1.68,6.8,4.928,6.8A6.534,6.534,0,0,0-.168-.476L-.5-2.072a4.556,4.556,0,0,1-2.24.532c-1.568,0-3.192-.9-3.22-5.04Zm-6.272-1.6c.084-1.848.812-3.92,2.212-3.92,1.036,0,2.072,1.2,2.016,3.92ZM10,0a21.479,21.479,0,0,1-.14-3.08V-8.932c0-3.052-1.176-4.844-3.892-4.844a5.832,5.832,0,0,0-3.164.9l.476,1.512a4.081,4.081,0,0,1,2.24-.7c1.708,0,2.156,1.26,2.156,3.08v.42C4.62-8.54,1.9-7.028,1.9-3.64,1.9-1.316,3.3.224,5.124.224A3.042,3.042,0,0,0,7.812-1.428H7.9L8.036,0ZM7.728-4.256a3.568,3.568,0,0,1-.056.756C7.42-2.156,6.608-1.456,5.656-1.456,4.9-1.456,4-2.1,4-3.864,4-6.8,6.608-7,7.728-7Zm11.48,2.268a3.685,3.685,0,0,1-1.568.364c-1.988,0-3.192-1.9-3.192-5.068,0-2.66.98-5.236,3.136-5.236a3.517,3.517,0,0,1,1.54.364l.42-1.764a4.358,4.358,0,0,0-1.9-.42c-3.388,0-5.348,3.164-5.348,7.056,0,4.48,1.988,6.86,4.956,6.86a4.646,4.646,0,0,0,2.24-.5ZM23.492,0V-13.552H21.336V0Zm-1.12-18.452a1.293,1.293,0,0,0-1.26,1.4,1.272,1.272,0,0,0,1.232,1.4,1.259,1.259,0,0,0,1.316-1.4A1.267,1.267,0,0,0,22.372-18.452Zm8.064,4.676c-2.324,0-4.536,2.072-4.536,7.028,0,4.76,1.96,6.972,4.4,6.972,2.072,0,4.508-1.764,4.508-7C34.8-11.508,32.844-13.776,30.436-13.776Zm-.084,1.736c1.9,0,2.268,3.192,2.268,5.264,0,2.1-.364,5.292-2.212,5.292-1.96,0-2.352-3.052-2.352-5.292C28.056-8.848,28.42-12.04,30.352-12.04ZM31.444-19.1l-2.156,3.78h1.428l2.94-3.78ZM37.212,0h2.156V-8.54a7.605,7.605,0,0,1,.084-1.2c.28-1.456,1.148-2.212,2.044-2.212,1.568,0,1.876,1.624,1.876,3.22V0h2.156V-9.1c0-3.276-1.4-4.676-3.276-4.676a3.439,3.439,0,0,0-3.108,1.848h-.056l-.112-1.624H37.1c.028,1.092.112,1.9.112,3.5Z" transform="translate(448.439 6710.134)" fill="#12263f"/>
    <path id="Trazado_916746" data-name="Trazado 916746" d="M-30.955-10.4h-4.563v-5.994h4.86V-18.2H-37.6V0h7.263V-1.809h-5.184V-8.64h4.563Zm1.269-2.673L-26.284,0h1.863l3.4-13.068h-2.052l-1.62,7.344c-.189,1-.405,2.106-.54,3.186h-.081c-.162-1.134-.378-2.3-.567-3.186l-1.647-7.344ZM-12.406,0a20.712,20.712,0,0,1-.135-2.97V-8.613c0-2.943-1.134-4.671-3.753-4.671a5.623,5.623,0,0,0-3.051.864l.459,1.458a3.936,3.936,0,0,1,2.16-.675c1.647,0,2.079,1.215,2.079,2.97v.4c-2.943.027-5.562,1.485-5.562,4.752,0,2.241,1.35,3.726,3.1,3.726a2.933,2.933,0,0,0,2.592-1.593h.081L-14.3,0Zm-2.187-4.1a3.441,3.441,0,0,1-.054.729c-.243,1.3-1.026,1.971-1.944,1.971-.729,0-1.593-.621-1.593-2.322,0-2.835,2.511-3.024,3.591-3.024ZM-9.625,0h2.079V-18.684H-9.625ZM3.362-13.068H1.283v8.613a5.4,5.4,0,0,1-.108,1.188A2.014,2.014,0,0,1-.688-1.539c-1.431,0-1.755-1.512-1.755-3.564v-7.965H-4.522v8.262c0,3.24.891,5.022,3.186,5.022A3.439,3.439,0,0,0,1.472-1.377h.054L1.661,0H3.47c-.027-.972-.108-2.106-.108-3.564ZM12.38-1.917a3.553,3.553,0,0,1-1.512.351C8.951-1.566,7.79-3.4,7.79-6.453c0-2.565.945-5.049,3.024-5.049a3.391,3.391,0,0,1,1.485.351l.405-1.7a4.2,4.2,0,0,0-1.836-.405c-3.267,0-5.157,3.051-5.157,6.8,0,4.32,1.917,6.615,4.779,6.615a4.48,4.48,0,0,0,2.16-.486ZM16.511,0V-13.068H14.432V0Zm-1.08-17.793a1.247,1.247,0,0,0-1.215,1.35,1.227,1.227,0,0,0,1.188,1.35,1.214,1.214,0,0,0,1.269-1.35A1.222,1.222,0,0,0,15.431-17.793Zm7.776,4.509c-2.241,0-4.374,2-4.374,6.777,0,4.59,1.89,6.723,4.239,6.723,2,0,4.347-1.7,4.347-6.75C27.419-11.1,25.529-13.284,23.207-13.284Zm-.081,1.674c1.836,0,2.187,3.078,2.187,5.076,0,2.025-.351,5.1-2.133,5.1-1.89,0-2.268-2.943-2.268-5.1C20.912-8.532,21.263-11.61,23.126-11.61Zm1.053-6.8L22.1-14.769h1.377l2.835-3.645ZM29.741,0H31.82V-8.235A7.334,7.334,0,0,1,31.9-9.4c.27-1.4,1.107-2.133,1.971-2.133,1.512,0,1.809,1.566,1.809,3.105V0H37.76V-8.775c0-3.159-1.35-4.509-3.159-4.509a3.317,3.317,0,0,0-3,1.782H31.55l-.108-1.566H29.633c.027,1.053.108,1.836.108,3.375Z" transform="translate(590 6867.333)" fill="#12263f"/>
    <path id="Trazado_916747" data-name="Trazado 916747" d="M-31.794-10.78h-4.732V-17h5.04v-1.876h-7.2V0h7.532V-1.876h-5.376V-8.96h4.732Zm.84,16.38a4.736,4.736,0,0,0,2.968-1.288c.952-1.008,1.372-2.324,1.372-5.18V-13.552H-28.77V-1.484c0,2.576-.168,3.584-.644,4.312a2.943,2.943,0,0,1-1.82,1.064Zm3.276-24.052a1.267,1.267,0,0,0-1.288,1.4,1.256,1.256,0,0,0,1.232,1.4,1.273,1.273,0,0,0,1.316-1.4A1.261,1.261,0,0,0-27.678-18.452ZM-15.862-6.58c.028-.336.028-.7.028-1.2,0-3.08-1.092-5.992-3.864-5.992-2.716,0-4.564,2.744-4.564,7.14,0,4.144,1.68,6.8,4.928,6.8a6.534,6.534,0,0,0,2.968-.644l-.336-1.6a4.556,4.556,0,0,1-2.24.532c-1.568,0-3.192-.9-3.22-5.04Zm-6.272-1.6c.084-1.848.812-3.92,2.212-3.92,1.036,0,2.072,1.2,2.016,3.92ZM-7.182-1.988a3.685,3.685,0,0,1-1.568.364c-1.988,0-3.192-1.9-3.192-5.068,0-2.66.98-5.236,3.136-5.236a3.517,3.517,0,0,1,1.54.364l.42-1.764a4.358,4.358,0,0,0-1.9-.42c-3.388,0-5.348,3.164-5.348,7.056,0,4.48,1.988,6.86,4.956,6.86a4.646,4.646,0,0,0,2.24-.5ZM3.178-13.552H1.022V-4.62A5.6,5.6,0,0,1,.91-3.388,2.088,2.088,0,0,1-1.022-1.6c-1.484,0-1.82-1.568-1.82-3.7v-8.26H-5v8.568c0,3.36.924,5.208,3.3,5.208A3.566,3.566,0,0,0,1.218-1.428h.056L1.414,0H3.29c-.028-1.008-.112-2.184-.112-3.7ZM12.53-1.988a3.685,3.685,0,0,1-1.568.364c-1.988,0-3.192-1.9-3.192-5.068,0-2.66.98-5.236,3.136-5.236a3.517,3.517,0,0,1,1.54.364l.42-1.764a4.358,4.358,0,0,0-1.9-.42c-3.388,0-5.348,3.164-5.348,7.056,0,4.48,1.988,6.86,4.956,6.86a4.646,4.646,0,0,0,2.24-.5ZM16.814,0V-13.552H14.658V0Zm-1.12-18.452a1.293,1.293,0,0,0-1.26,1.4,1.272,1.272,0,0,0,1.232,1.4,1.259,1.259,0,0,0,1.316-1.4A1.267,1.267,0,0,0,15.694-18.452Zm8.064,4.676c-2.324,0-4.536,2.072-4.536,7.028,0,4.76,1.96,6.972,4.4,6.972,2.072,0,4.508-1.764,4.508-7C28.126-11.508,26.166-13.776,23.758-13.776Zm-.084,1.736c1.9,0,2.268,3.192,2.268,5.264,0,2.1-.364,5.292-2.212,5.292-1.96,0-2.352-3.052-2.352-5.292C21.378-8.848,21.742-12.04,23.674-12.04ZM24.766-19.1l-2.156,3.78h1.428l2.94-3.78ZM30.534,0H32.69V-8.54a7.605,7.605,0,0,1,.084-1.2c.28-1.456,1.148-2.212,2.044-2.212,1.568,0,1.876,1.624,1.876,3.22V0H38.85V-9.1c0-3.276-1.4-4.676-3.276-4.676a3.439,3.439,0,0,0-3.108,1.848H32.41L32.3-13.552H30.422c.028,1.092.112,1.9.112,3.5Z" transform="translate(725 6710.134)" fill="#12263f"/>
    <path id="Trazado_916748" data-name="Trazado 916748" d="M-44.334-10.935h-4.158V-15.12h4.374V-18.2h-7.911V0h8.235V-3.078h-4.7V-7.992h4.158ZM-41.391,0h8.208V-3h-4.671V-18.2h-3.537Zm17.955-10.935h-4.158V-15.12h4.374V-18.2h-7.911V0H-22.9V-3.078h-4.7V-7.992h4.158ZM-9.045,0h3.159L-6.993-18.2h-3.726L-12.15-11.61c-.486,2.3-.891,4.347-1.161,6.372h-.054c-.324-2.052-.783-4.077-1.3-6.372L-16.119-18.2h-3.726L-21.168,0h3.051l.3-6.318c.108-1.809.216-4.1.27-6.075h.081c.27,1.971.756,4.239,1.107,5.7L-14.85-.3h2.511L-10.773-6.8c.351-1.4.837-3.645,1.161-5.589h.081c-.054,1.944.081,4.293.162,6.021ZM4.4-10.935H.243V-15.12H4.617V-18.2H-3.294V0H4.941V-3.078H.243V-7.992H4.4ZM10.449,0V-4.1c0-3.645-.135-6.453-.216-8.289h.054a52.2,52.2,0,0,0,1.836,5.481L14.9,0h3.24V-18.2H15.039v4.023c0,3.348.243,6.507.351,8.424h-.054c-.513-1.566-1.4-3.915-1.944-5.319L10.584-18.2H7.344V0Zm12.8,0h3.537V-14.931h3.24V-18.2h-9.99v3.267h3.213ZM36.639-18.414c-4.023,0-5.994,4.293-5.994,9.261,0,5,1.62,9.369,5.751,9.369,3.456,0,5.886-2.781,5.886-9.639C42.282-13.581,41.04-18.414,36.639-18.414ZM36.5-15.336c1.593,0,2.079,2.889,2.079,6.075,0,3.7-.567,6.4-2.052,6.4-1.431,0-2.214-2.106-2.214-6.237C34.317-13.014,35.1-15.336,36.5-15.336ZM43.6-.567a8,8,0,0,0,3.483.729c3.564,0,6.021-2.187,6.021-5.508,0-1.917-.891-3.753-3.294-5.211-1.971-1.188-2.511-1.755-2.511-2.835a1.969,1.969,0,0,1,2.241-1.89,4.337,4.337,0,0,1,2.322.621l.567-3.051a6.213,6.213,0,0,0-2.862-.648c-3.807,0-5.751,2.43-5.751,5.346,0,1.647.945,3.564,3.429,5.076,1.539,1,2.349,1.647,2.349,2.97,0,1.188-.81,2.052-2.484,2.052a6.906,6.906,0,0,1-3-.7ZM-51.273,28.76a6.237,6.237,0,0,1-1.7.27c-2.16,0-3.807-1.7-3.807-6.048,0-4.509,1.809-6.237,3.807-6.237a3.559,3.559,0,0,1,1.647.351l.594-2.97a4.86,4.86,0,0,0-2.457-.486c-3.537,0-7.344,2.673-7.344,9.531,0,5.157,2.214,8.991,6.858,8.991a7.161,7.161,0,0,0,2.754-.432Zm2.3,3.24h8.208V29h-4.671V13.8h-3.537Zm16.632-4.158L-31.563,32h3.429l-3.537-18.2H-35.91L-39.852,32h3.429l.81-4.158Zm-2.916-2.754.675-3.78c.189-1.053.459-2.943.648-4.158h.081c.162,1.215.405,3.024.594,4.131l.594,3.807ZM-20.2,32l4.158-18.2h-3.888l-1.242,7.776c-.324,2.052-.621,4.239-.864,6.4h-.054c-.243-2.133-.621-4.374-.945-6.318l-1.3-7.857h-3.915L-24.165,32ZM-6.8,21.065h-4.158V16.88h4.374V13.8H-14.5V32h8.235V28.922h-4.7V24.008H-6.8Zm2.025,10.368a8,8,0,0,0,3.483.729c3.564,0,6.021-2.187,6.021-5.508,0-1.917-.891-3.753-3.294-5.211C-.54,20.255-1.08,19.688-1.08,18.608a1.969,1.969,0,0,1,2.241-1.89,4.337,4.337,0,0,1,2.322.621l.567-3.051a6.213,6.213,0,0,0-2.862-.648c-3.807,0-5.751,2.43-5.751,5.346,0,1.647.945,3.564,3.429,5.076,1.539,1,2.349,1.647,2.349,2.97,0,1.188-.81,2.052-2.484,2.052a6.906,6.906,0,0,1-3-.7ZM18.765,21.065H14.607V16.88h4.374V13.8H11.07V32h8.235V28.922h-4.7V24.008h4.158ZM24.813,32V27.9c0-3.645-.135-6.453-.216-8.289h.054a52.2,52.2,0,0,0,1.836,5.481L29.268,32h3.24V13.8H29.4v4.023c0,3.348.243,6.507.351,8.424H29.7c-.513-1.566-1.4-3.915-1.944-5.319L24.948,13.8h-3.24V32Zm15.12,0h8.208V29H43.47V13.8H39.933Zm16.632-4.158L57.348,32h3.429L57.24,13.8H53L49.059,32h3.429l.81-4.158Zm-2.916-2.754.675-3.78c.189-1.053.459-2.943.648-4.158h.081c.162,1.215.405,3.024.594,4.131l.594,3.807ZM-27.459,53.794h-4.887v2.889h1.62v4.4a2.143,2.143,0,0,1-.7.081c-1.647,0-3.348-1.566-3.348-5.94,0-4.752,1.917-6.4,4.32-6.4a4.442,4.442,0,0,1,2.079.4l.621-3.051a7.225,7.225,0,0,0-2.97-.54c-3.861,0-7.641,2.754-7.722,9.369-.054,3.132.783,5.832,2.349,7.344a6.477,6.477,0,0,0,4.86,1.809,11.915,11.915,0,0,0,3.78-.648Zm10.341-.729h-4.158V48.88H-16.9V45.8h-7.911V64h8.235V60.922h-4.7V56.008h4.158Zm2.025,10.368a8,8,0,0,0,3.483.729c3.564,0,6.021-2.187,6.021-5.508,0-1.917-.891-3.753-3.294-5.211-1.971-1.188-2.511-1.755-2.511-2.835a1.969,1.969,0,0,1,2.241-1.89,4.337,4.337,0,0,1,2.322.621l.567-3.051a6.213,6.213,0,0,0-2.862-.648c-3.807,0-5.751,2.43-5.751,5.346,0,1.647.945,3.564,3.429,5.076,1.539,1,2.349,1.647,2.349,2.97,0,1.188-.81,2.052-2.484,2.052a6.907,6.907,0,0,1-3-.7ZM-1.566,64H1.971V49.069h3.24V45.8h-9.99v3.267h3.213Zm8.64-18.2V64h3.537V45.8Zm11.8-.216c-4.023,0-5.994,4.293-5.994,9.261,0,4.995,1.62,9.369,5.751,9.369,3.456,0,5.886-2.781,5.886-9.639C24.516,50.419,23.274,45.586,18.873,45.586Zm-.135,3.078c1.593,0,2.079,2.889,2.079,6.075,0,3.7-.567,6.4-2.052,6.4-1.431,0-2.214-2.106-2.214-6.237C16.551,50.986,17.334,48.664,18.738,48.664Zm.675-6.885L17.2,44.83H19.71L23,41.779ZM29.862,64V59.9c0-3.645-.135-6.453-.216-8.289H29.7a52.2,52.2,0,0,0,1.836,5.481L34.317,64h3.24V45.8h-3.1v4.023c0,3.348.243,6.507.351,8.424h-.054c-.513-1.566-1.4-3.915-1.944-5.319L30,45.8h-3.24V64Z" transform="translate(585.074 6715.134)" fill="#fff"/>
  </g>
</svg>
