<svg xmlns="http://www.w3.org/2000/svg" width="71.959" height="71.959" viewBox="0 0 71.959 71.959">
  <g id="legal-paper_5168686" transform="translate(0.001)">
    <path id="Trazado_915022" data-name="Trazado 915022" d="M180,60h29.63v4.233H180Z" transform="translate(-154.604 -51.534)" fill="#495705"/>
    <path id="Trazado_915023" data-name="Trazado 915023" d="M210,120h25.4v4.233H210Z" transform="translate(-180.372 -103.069)" fill="#495705"/>
    <path id="Trazado_915024" data-name="Trazado 915024" d="M150,180h33.863v4.233H150Z" transform="translate(-128.837 -154.603)" fill="#495705"/>
    <path id="Trazado_915025" data-name="Trazado 915025" d="M195,240h27.514v4.233H195Z" transform="translate(-167.488 -206.137)" fill="#495705"/>
    <path id="Trazado_915026" data-name="Trazado 915026" d="M225,300h16.931v4.233H225Z" transform="translate(-193.255 -257.671)" fill="#495705"/>
    <path id="Trazado_915027" data-name="Trazado 915027" d="M306.349,360A6.356,6.356,0,0,0,300,366.349c.319,8.412,12.381,8.409,12.7,0A6.356,6.356,0,0,0,306.349,360Zm0,8.466a2.116,2.116,0,1,1,2.116-2.116A2.119,2.119,0,0,1,306.349,368.466Z" transform="translate(-257.672 -309.206)" fill="#495705"/>
    <path id="Trazado_915028" data-name="Trazado 915028" d="M65.609,0H25.937A13.254,13.254,0,0,0,12.7,13.239V38.364a8.5,8.5,0,0,0-4.233,13.8v7.1A7.74,7.74,0,0,0,0,66.9v5.056H63.492V16.931h8.466V6.349A6.356,6.356,0,0,0,65.609,0ZM14.814,42.329a4.244,4.244,0,0,1,3.325,6.848H11.489A4.244,4.244,0,0,1,14.814,42.329ZM12.7,53.409h4.233V59.26H12.7ZM25.4,67.726H4.232V66.9a3.413,3.413,0,0,1,3.41-3.41H21.987A3.414,3.414,0,0,1,25.4,66.9v.823ZM59.259,6.349V67.726H29.629a7.772,7.772,0,0,0-8.466-8.466v-7.1a8.5,8.5,0,0,0-4.233-13.8V13.239a9.016,9.016,0,0,1,9.006-9.006H59.624a6.316,6.316,0,0,0-.364,2.116ZM67.725,12.7H63.492V6.349a2.116,2.116,0,0,1,4.233,0Z" transform="translate(0 0)" fill="#495705"/>
  </g>
</svg>
