<svg xmlns="http://www.w3.org/2000/svg" xmlns:xlink="http://www.w3.org/1999/xlink" width="1328" height="539.285" viewBox="0 0 1328 539.285">
  <defs>
    <clipPath id="clip-path">
      <rect id="Rectángulo_400934" data-name="Rectángulo 400934" width="1328" height="539.285" fill="#ecf6ff"/>
    </clipPath>
    <linearGradient id="linear-gradient" x1="0.5" y1="0.934" x2="0.5" y2="0.106" gradientUnits="objectBoundingBox">
      <stop offset="0" stop-color="#fcf9e8" stop-opacity="0"/>
      <stop offset="0.163" stop-color="#fcf9e8" stop-opacity="0.678"/>
      <stop offset="0.33" stop-color="#fcf9e8"/>
      <stop offset="0.522" stop-color="#fcf9e8"/>
      <stop offset="0.729" stop-color="#fcf9e8"/>
      <stop offset="0.882" stop-color="#fcf9e8" stop-opacity="0.216"/>
      <stop offset="1" stop-color="#fcf9e8" stop-opacity="0"/>
    </linearGradient>
    <clipPath id="clip-path-2">
      <rect id="Rectángulo_403660" data-name="Rectángulo 403660" width="245.116" height="267.858" fill="#667b07"/>
    </clipPath>
    <clipPath id="clip-path-3">
      <rect id="Rectángulo_403660-2" data-name="Rectángulo 403660" width="245.116" height="267.857" fill="#32799d"/>
    </clipPath>
    <clipPath id="clip-path-4">
      <rect id="Rectángulo_403660-3" data-name="Rectángulo 403660" width="245.116" height="267.858" fill="#f37e29"/>
    </clipPath>
    <clipPath id="clip-path-5">
      <rect id="Rectángulo_403660-4" data-name="Rectángulo 403660" width="245.116" height="267.857" fill="#ffa700"/>
    </clipPath>
  </defs>
  <g id="Grupo_1104854" data-name="Grupo 1104854" transform="translate(-136.27 -1106.748)">
    <g id="Grupo_1104853" data-name="Grupo 1104853">
      <g id="Grupo_1104852" data-name="Grupo 1104852">
        <g id="Grupo_1104851" data-name="Grupo 1104851">
          <g id="Grupo_1104850" data-name="Grupo 1104850">
            <g id="Grupo_1104849" data-name="Grupo 1104849">
              <g id="Grupo_1104848" data-name="Grupo 1104848">
                <g id="Grupo_1104847" data-name="Grupo 1104847">
                  <g id="Enmascarar_grupo_1098651" data-name="Enmascarar grupo 1098651" transform="translate(136.27 1106.748)" opacity="0.15" clip-path="url(#clip-path)">
                    <path id="Trazado_872965" data-name="Trazado 872965" d="M0,582.38H1376V0H0Z" transform="translate(-22 -25.003)" fill="url(#linear-gradient)"/>
                    <g id="Grupo_1098818" data-name="Grupo 1098818" transform="translate(586.958 -45.364)" opacity="0.388">
                      <g id="Elipse_11459" data-name="Elipse 11459" transform="translate(0 83.657)" fill="#77af8f" stroke="#707070" stroke-width="1" opacity="0.503">
                        <ellipse cx="229.569" cy="207.604" rx="229.569" ry="207.604" stroke="none"/>
                        <ellipse cx="229.569" cy="207.604" rx="229.069" ry="207.104" fill="none"/>
                      </g>
                      <g id="Elipse_11460" data-name="Elipse 11460" transform="translate(487.401 0)" fill="#94b10b" stroke="#707070" stroke-width="1" opacity="0.503">
                        <ellipse cx="229.569" cy="207.604" rx="229.569" ry="207.604" stroke="none"/>
                        <ellipse cx="229.569" cy="207.604" rx="229.069" ry="207.104" fill="none"/>
                      </g>
                      <g id="Elipse_11461" data-name="Elipse 11461" transform="translate(558.883 322.174)" fill="#1588d1" stroke="#707070" stroke-width="1" opacity="0.426">
                        <ellipse cx="120.915" cy="109.344" rx="120.915" ry="109.344" stroke="none"/>
                        <ellipse cx="120.915" cy="109.344" rx="120.415" ry="108.844" fill="none"/>
                      </g>
                    </g>
                    <g id="Grupo_1098819" data-name="Grupo 1098819" transform="translate(-418.272 68.079)" opacity="0.388">
                      <g id="Elipse_11462" data-name="Elipse 11462" transform="translate(162.575 70.739)" fill="#94b10b" stroke="#707070" stroke-width="1" opacity="0.503">
                        <ellipse cx="272.984" cy="246.865" rx="272.984" ry="246.865" stroke="none"/>
                        <ellipse cx="272.984" cy="246.865" rx="272.484" ry="246.365" fill="none"/>
                      </g>
                      <g id="Elipse_11463" data-name="Elipse 11463" transform="translate(0 191.92)" fill="#f37e29" stroke="#707070" stroke-width="1" opacity="0.503">
                        <ellipse cx="272.984" cy="246.865" rx="272.984" ry="246.865" stroke="none"/>
                        <ellipse cx="272.984" cy="246.865" rx="272.484" ry="246.365" fill="none"/>
                      </g>
                      <g id="Elipse_11464" data-name="Elipse 11464" transform="translate(258.405 0)" fill="#77af8f" stroke="#707070" stroke-width="1" opacity="0.426">
                        <ellipse cx="143.782" cy="130.023" rx="143.782" ry="130.023" stroke="none"/>
                        <ellipse cx="143.782" cy="130.023" rx="143.282" ry="129.523" fill="none"/>
                      </g>
                    </g>
                  </g>
                  <g id="Grupo_1103468" data-name="Grupo 1103468" transform="translate(0 12)">
                    <g id="Grupo_1103467" data-name="Grupo 1103467" transform="translate(0 3.747)">
                      <g id="Grupo_1103448" data-name="Grupo 1103448" transform="translate(285 1225.613)">
                        <g id="Grupo_1103447" data-name="Grupo 1103447" transform="translate(0 0)" clip-path="url(#clip-path-2)">
                          <path id="Trazado_914299" data-name="Trazado 914299" d="M90.751,294.7a1.567,1.567,0,0,1-.366-.047c-.006,0-.183-.051-.186-.051A122.557,122.557,0,0,1,36.444,89.244,1.586,1.586,0,1,1,38.67,91.5,119.344,119.344,0,0,0,90.821,291.488a1.771,1.771,0,0,1,1.3,2,1.481,1.481,0,0,1-1.373,1.221m116.955-30.771a1.587,1.587,0,0,1-1.117-2.713A119.345,119.345,0,0,0,154.3,61.376a1.681,1.681,0,0,1-1.207-1.977,1.488,1.488,0,0,1,1.851-1.135l-.42,1.529.6-1.48a122.559,122.559,0,0,1,53.7,205.16,1.583,1.583,0,0,1-1.116.46" transform="translate(0 -26.847)" fill="#667b07"/>
                          <path id="Trazado_914300" data-name="Trazado 914300" d="M163.619,292.133a1.586,1.586,0,0,1-.383-3.125,100.341,100.341,0,0,0,47.826-167.019,1.718,1.718,0,0,1-.067-2.344,1.472,1.472,0,0,1,2.142-.073l.2.208A103.516,103.516,0,0,1,164,292.086a1.515,1.515,0,0,1-.382.047m-98.03-28.017a1.475,1.475,0,0,1-1.048-.436c-.017-.02-.136-.142-.152-.163a103.52,103.52,0,0,1,49.23-172.231,1.587,1.587,0,1,1,.771,3.078A100.341,100.341,0,0,0,66.7,261.348a1.653,1.653,0,0,1,.023,2.286,1.621,1.621,0,0,1-1.136.481" transform="translate(-16.322 -42.084)" fill="#667b07"/>
                          <path id="Trazado_914301" data-name="Trazado 914301" d="M239.466,206.375a83.257,83.257,0,1,1-83.257-83.257,83.257,83.257,0,0,1,83.257,83.257" transform="translate(-33.65 -56.789)" fill="#667b07"/>
                          <path id="Trazado_914302" data-name="Trazado 914302" d="M153.944,290.013a85.9,85.9,0,1,1,85.9-85.9,86,86,0,0,1-85.9,85.9m0-166.515a80.612,80.612,0,1,0,80.609,80.611A80.7,80.7,0,0,0,153.944,123.5" transform="translate(-31.385 -54.526)" fill="#667b07"/>
                          <path id="Trazado_914303" data-name="Trazado 914303" d="M226.135,91.114a1.587,1.587,0,0,1-1.587-1.587V11.263a1.587,1.587,0,1,1,3.173,0V89.528a1.587,1.587,0,0,1-1.587,1.587" transform="translate(-103.575 -4.463)" fill="#667b07"/>
                          <path id="Trazado_914304" data-name="Trazado 914304" d="M228.52,7.157a7.158,7.158,0,1,0-7.158,7.158,7.158,7.158,0,0,0,7.158-7.158" transform="translate(-98.804)" fill="#667b07"/>
                        </g>
                      </g>
                      <g id="Grupo_1103449" data-name="Grupo 1103449" transform="translate(546.528 1258.496)">
                        <g id="Grupo_1103447-2" data-name="Grupo 1103447" transform="translate(0 0)" clip-path="url(#clip-path-3)">
                          <path id="Trazado_914299-2" data-name="Trazado 914299" d="M90.751,58.2a1.567,1.567,0,0,0-.366.047c-.006,0-.183.051-.186.051A122.557,122.557,0,0,0,36.444,263.664,1.586,1.586,0,1,0,38.67,261.4,119.343,119.343,0,0,1,90.821,61.42a1.771,1.771,0,0,0,1.3-2A1.481,1.481,0,0,0,90.751,58.2M207.706,88.974a1.587,1.587,0,0,0-1.117,2.713A119.345,119.345,0,0,1,154.3,291.531a1.681,1.681,0,0,0-1.207,1.977,1.488,1.488,0,0,0,1.851,1.135l-.42-1.529.6,1.48a122.559,122.559,0,0,0,53.7-205.16,1.583,1.583,0,0,0-1.116-.46" transform="translate(0 -58.203)" fill="#32799d"/>
                          <path id="Trazado_914300-2" data-name="Trazado 914300" d="M163.619,91.237a1.586,1.586,0,0,0-.383,3.125A100.34,100.34,0,0,1,211.062,261.38a1.718,1.718,0,0,0-.067,2.344,1.472,1.472,0,0,0,2.142.073l.2-.208A103.515,103.515,0,0,0,164,91.284a1.515,1.515,0,0,0-.382-.047m-98.03,28.017a1.475,1.475,0,0,0-1.048.436c-.017.02-.136.142-.152.163a103.52,103.52,0,0,0,49.23,172.23,1.587,1.587,0,1,0,.771-3.078A100.341,100.341,0,0,1,66.7,122.021a1.653,1.653,0,0,0,.023-2.286,1.621,1.621,0,0,0-1.136-.48" transform="translate(-16.322 -73.428)" fill="#32799d"/>
                          <path id="Trazado_914301-2" data-name="Trazado 914301" d="M239.465,206.374a83.257,83.257,0,1,0-83.257,83.256,83.257,83.257,0,0,0,83.257-83.256" transform="translate(-33.65 -88.102)" fill="#32799d"/>
                          <path id="Trazado_914302-2" data-name="Trazado 914302" d="M153.944,118.211a85.9,85.9,0,1,0,85.9,85.9,86,86,0,0,0-85.9-85.9m0,166.514a80.612,80.612,0,1,1,80.609-80.611,80.7,80.7,0,0,1-80.609,80.611" transform="translate(-31.385 -85.84)" fill="#32799d"/>
                          <path id="Trazado_914303-2" data-name="Trazado 914303" d="M226.135,9.676a1.587,1.587,0,0,0-1.587,1.587V89.528a1.587,1.587,0,1,0,3.173,0V11.263a1.587,1.587,0,0,0-1.587-1.587" transform="translate(-103.575 171.53)" fill="#32799d"/>
                          <path id="Trazado_914304-2" data-name="Trazado 914304" d="M228.52,7.158A7.158,7.158,0,1,1,221.363,0a7.158,7.158,0,0,1,7.158,7.158" transform="translate(-98.804 253.543)" fill="#32799d"/>
                        </g>
                      </g>
                      <g id="Grupo_1103450" data-name="Grupo 1103450" transform="translate(808.256 1225.613)">
                        <g id="Grupo_1103447-3" data-name="Grupo 1103447" transform="translate(0 0)" clip-path="url(#clip-path-4)">
                          <path id="Trazado_914299-3" data-name="Trazado 914299" d="M90.751,294.7a1.567,1.567,0,0,1-.366-.047c-.006,0-.183-.051-.186-.051A122.557,122.557,0,0,1,36.444,89.244,1.586,1.586,0,1,1,38.67,91.5,119.344,119.344,0,0,0,90.821,291.488a1.771,1.771,0,0,1,1.3,2,1.481,1.481,0,0,1-1.373,1.221m116.955-30.771a1.587,1.587,0,0,1-1.117-2.713A119.345,119.345,0,0,0,154.3,61.376a1.681,1.681,0,0,1-1.207-1.977,1.488,1.488,0,0,1,1.851-1.135l-.42,1.529.6-1.48a122.559,122.559,0,0,1,53.7,205.16,1.583,1.583,0,0,1-1.116.46" transform="translate(0 -26.847)" fill="#f37e29"/>
                          <path id="Trazado_914300-3" data-name="Trazado 914300" d="M163.619,292.133a1.586,1.586,0,0,1-.383-3.125,100.341,100.341,0,0,0,47.826-167.019,1.718,1.718,0,0,1-.067-2.344,1.472,1.472,0,0,1,2.142-.073l.2.208A103.516,103.516,0,0,1,164,292.086a1.515,1.515,0,0,1-.382.047m-98.03-28.017a1.475,1.475,0,0,1-1.048-.436c-.017-.02-.136-.142-.152-.163a103.52,103.52,0,0,1,49.23-172.231,1.587,1.587,0,1,1,.771,3.078A100.341,100.341,0,0,0,66.7,261.348a1.653,1.653,0,0,1,.023,2.286,1.621,1.621,0,0,1-1.136.481" transform="translate(-16.322 -42.084)" fill="#f37e29"/>
                          <path id="Trazado_914301-3" data-name="Trazado 914301" d="M239.466,206.375a83.257,83.257,0,1,1-83.257-83.257,83.257,83.257,0,0,1,83.257,83.257" transform="translate(-33.65 -56.789)" fill="#f37e29"/>
                          <path id="Trazado_914302-3" data-name="Trazado 914302" d="M153.944,290.013a85.9,85.9,0,1,1,85.9-85.9,86,86,0,0,1-85.9,85.9m0-166.515a80.612,80.612,0,1,0,80.609,80.611A80.7,80.7,0,0,0,153.944,123.5" transform="translate(-31.385 -54.526)" fill="#f37e29"/>
                          <path id="Trazado_914303-3" data-name="Trazado 914303" d="M226.135,91.114a1.587,1.587,0,0,1-1.587-1.587V11.263a1.587,1.587,0,1,1,3.173,0V89.528a1.587,1.587,0,0,1-1.587,1.587" transform="translate(-103.575 -4.463)" fill="#f37e29"/>
                          <path id="Trazado_914304-3" data-name="Trazado 914304" d="M228.52,7.157a7.158,7.158,0,1,0-7.158,7.158,7.158,7.158,0,0,0,7.158-7.158" transform="translate(-98.804)" fill="#f37e29"/>
                        </g>
                      </g>
                      <g id="Grupo_1103451" data-name="Grupo 1103451" transform="translate(1069.884 1258.496)">
                        <g id="Grupo_1103447-4" data-name="Grupo 1103447" transform="translate(0 0)" clip-path="url(#clip-path-5)">
                          <path id="Trazado_914299-4" data-name="Trazado 914299" d="M90.751,58.2a1.567,1.567,0,0,0-.366.047c-.006,0-.183.051-.186.051A122.557,122.557,0,0,0,36.444,263.664,1.586,1.586,0,1,0,38.67,261.4,119.343,119.343,0,0,1,90.821,61.42a1.771,1.771,0,0,0,1.3-2A1.481,1.481,0,0,0,90.751,58.2M207.706,88.974a1.587,1.587,0,0,0-1.117,2.713A119.345,119.345,0,0,1,154.3,291.531a1.681,1.681,0,0,0-1.207,1.977,1.488,1.488,0,0,0,1.851,1.135l-.42-1.529.6,1.48a122.559,122.559,0,0,0,53.7-205.16,1.583,1.583,0,0,0-1.116-.46" transform="translate(0 -58.203)" fill="#ffa700"/>
                          <path id="Trazado_914300-4" data-name="Trazado 914300" d="M163.619,91.237a1.586,1.586,0,0,0-.383,3.125A100.34,100.34,0,0,1,211.062,261.38a1.718,1.718,0,0,0-.067,2.344,1.472,1.472,0,0,0,2.142.073l.2-.208A103.515,103.515,0,0,0,164,91.284a1.515,1.515,0,0,0-.382-.047m-98.03,28.017a1.475,1.475,0,0,0-1.048.436c-.017.02-.136.142-.152.163a103.52,103.52,0,0,0,49.23,172.23,1.587,1.587,0,1,0,.771-3.078A100.341,100.341,0,0,1,66.7,122.021a1.653,1.653,0,0,0,.023-2.286,1.621,1.621,0,0,0-1.136-.48" transform="translate(-16.322 -73.428)" fill="#ffa700"/>
                          <path id="Trazado_914301-4" data-name="Trazado 914301" d="M239.465,206.374a83.257,83.257,0,1,0-83.257,83.256,83.257,83.257,0,0,0,83.257-83.256" transform="translate(-33.65 -88.102)" fill="#ffa700"/>
                          <path id="Trazado_914302-4" data-name="Trazado 914302" d="M153.944,118.211a85.9,85.9,0,1,0,85.9,85.9,86,86,0,0,0-85.9-85.9m0,166.514a80.612,80.612,0,1,1,80.609-80.611,80.7,80.7,0,0,1-80.609,80.611" transform="translate(-31.385 -85.84)" fill="#ffa700"/>
                          <path id="Trazado_914303-4" data-name="Trazado 914303" d="M226.135,9.676a1.587,1.587,0,0,0-1.587,1.587V89.528a1.587,1.587,0,1,0,3.173,0V11.263a1.587,1.587,0,0,0-1.587-1.587" transform="translate(-103.575 171.53)" fill="#ffa700"/>
                          <path id="Trazado_914304-4" data-name="Trazado 914304" d="M228.52,7.158A7.158,7.158,0,1,1,221.363,0a7.158,7.158,0,0,1,7.158,7.158" transform="translate(-98.804 253.543)" fill="#ffa700"/>
                        </g>
                      </g>
                      <path id="Trazado_916761" data-name="Trazado 916761" d="M-70.911,0h-3.076V-17.773h3.076Zm2.954-6.7a7.853,7.853,0,0,1,1.416-4.9,4.537,4.537,0,0,1,3.8-1.849,4.311,4.311,0,0,1,3.394,1.465V-18.75h2.966V0H-59.07l-.146-1.367A4.373,4.373,0,0,1-62.769.244a4.512,4.512,0,0,1-3.754-1.868A8.14,8.14,0,0,1-67.957-6.7Zm2.966.256A5.5,5.5,0,0,0-64.215-3.3a2.515,2.515,0,0,0,2.2,1.129A2.8,2.8,0,0,0-59.351-3.8v-5.64a2.759,2.759,0,0,0-2.637-1.587,2.534,2.534,0,0,0-2.222,1.141A6.123,6.123,0,0,0-64.99-6.445ZM-47.473.244a6.137,6.137,0,0,1-4.572-1.776A6.443,6.443,0,0,1-53.8-6.262v-.366a7.925,7.925,0,0,1,.763-3.534,5.807,5.807,0,0,1,2.142-2.423,5.664,5.664,0,0,1,3.076-.867,5.184,5.184,0,0,1,4.169,1.721A7.278,7.278,0,0,1-42.175-6.86v1.2h-8.63a3.966,3.966,0,0,0,1.093,2.588,3.28,3.28,0,0,0,2.411.952,4.017,4.017,0,0,0,3.32-1.648l1.6,1.526A5.34,5.34,0,0,1-44.5-.409,6.631,6.631,0,0,1-47.473.244Zm-.354-11.316a2.5,2.5,0,0,0-1.971.854,4.429,4.429,0,0,0-.958,2.38H-45.1v-.22a3.605,3.605,0,0,0-.793-2.252A2.479,2.479,0,0,0-47.827-11.072Zm10.706-2.136.085,1.526a4.749,4.749,0,0,1,3.845-1.77q4.126,0,4.2,4.724V0h-2.966V-8.557a2.72,2.72,0,0,0-.543-1.862,2.285,2.285,0,0,0-1.776-.6A2.858,2.858,0,0,0-36.951-9.4V0h-2.966V-13.208Zm14.868-3.21v3.21h2.332v2.2h-2.332v7.373a1.624,1.624,0,0,0,.3,1.093,1.387,1.387,0,0,0,1.068.336,4.57,4.57,0,0,0,1.038-.122V-.037A7.306,7.306,0,0,1-21.8.244q-3.418,0-3.418-3.772v-7.483h-2.173v-2.2h2.173v-3.21ZM-14.5,0h-2.966V-13.208H-14.5Zm-3.149-16.638a1.574,1.574,0,0,1,.433-1.135,1.637,1.637,0,0,1,1.239-.452,1.658,1.658,0,0,1,1.245.452,1.562,1.562,0,0,1,.439,1.135,1.526,1.526,0,0,1-.439,1.117,1.671,1.671,0,0,1-1.245.446,1.65,1.65,0,0,1-1.239-.446A1.538,1.538,0,0,1-17.651-16.638ZM-10.486,0V-11.011H-12.5v-2.2h2.014v-.9a5.284,5.284,0,0,1,.659-2.661A4.1,4.1,0,0,1-8-18.445a6.591,6.591,0,0,1,2.844-.562,8.291,8.291,0,0,1,1.874.208q.9.208,1.862.525l-.452,2.454a9.443,9.443,0,0,0-3.076-.586,2.749,2.749,0,0,0-1.965.592,2.368,2.368,0,0,0-.61,1.776v.83h2.6v2.2h-2.6V0ZM-.012,0H-2.979V-13.208H-.012ZM8.7-2.124a2.682,2.682,0,0,0,1.843-.647,2.21,2.21,0,0,0,.781-1.6h2.8a4.357,4.357,0,0,1-.769,2.3A5.044,5.044,0,0,1,11.4-.378,5.82,5.82,0,0,1,8.74.244,5.631,5.631,0,0,1,4.346-1.55,7.117,7.117,0,0,1,2.722-6.506v-.305a7,7,0,0,1,1.611-4.828,5.58,5.58,0,0,1,4.395-1.813,5.427,5.427,0,0,1,3.839,1.373,4.919,4.919,0,0,1,1.556,3.607h-2.8a2.716,2.716,0,0,0-.775-1.868A2.494,2.494,0,0,0,8.7-11.072a2.61,2.61,0,0,0-2.222,1.044A5.326,5.326,0,0,0,5.688-6.86v.476a5.414,5.414,0,0,0,.775,3.2A2.608,2.608,0,0,0,8.7-2.124ZM24.255,0a4.578,4.578,0,0,1-.342-1.233A4.617,4.617,0,0,1,20.447.244,4.66,4.66,0,0,1,17.2-.891,3.632,3.632,0,0,1,15.942-3.7,3.75,3.75,0,0,1,17.511-6.94,7.6,7.6,0,0,1,22-8.069h1.819v-.867a2.314,2.314,0,0,0-.574-1.642,2.274,2.274,0,0,0-1.746-.616,2.613,2.613,0,0,0-1.66.507A1.568,1.568,0,0,0,19.189-9.4H16.223a3.292,3.292,0,0,1,.72-2.032A4.8,4.8,0,0,1,18.9-12.915a6.882,6.882,0,0,1,2.765-.537,5.542,5.542,0,0,1,3.7,1.166,4.157,4.157,0,0,1,1.416,3.278v5.957a6.751,6.751,0,0,0,.5,2.844V0ZM21-2.136a3.374,3.374,0,0,0,1.654-.427,2.854,2.854,0,0,0,1.166-1.147V-6.2h-1.6a4.373,4.373,0,0,0-2.478.574A1.859,1.859,0,0,0,18.909-4a1.733,1.733,0,0,0,.568,1.361A2.2,2.2,0,0,0,21-2.136Zm14.319.012a2.682,2.682,0,0,0,1.843-.647,2.21,2.21,0,0,0,.781-1.6h2.8a4.357,4.357,0,0,1-.769,2.3A5.044,5.044,0,0,1,38.013-.378a5.82,5.82,0,0,1-2.661.623A5.631,5.631,0,0,1,30.957-1.55a7.117,7.117,0,0,1-1.624-4.956v-.305a7,7,0,0,1,1.611-4.828,5.58,5.58,0,0,1,4.395-1.813,5.427,5.427,0,0,1,3.839,1.373,4.919,4.919,0,0,1,1.556,3.607h-2.8a2.716,2.716,0,0,0-.775-1.868,2.494,2.494,0,0,0-1.849-.732,2.61,2.61,0,0,0-2.222,1.044A5.326,5.326,0,0,0,32.3-6.86v.476a5.414,5.414,0,0,0,.775,3.2A2.608,2.608,0,0,0,35.315-2.124ZM46.13,0H43.164V-13.208H46.13ZM42.981-16.638a1.574,1.574,0,0,1,.433-1.135,1.637,1.637,0,0,1,1.239-.452,1.658,1.658,0,0,1,1.245.452,1.562,1.562,0,0,1,.439,1.135,1.526,1.526,0,0,1-.439,1.117,1.671,1.671,0,0,1-1.245.446,1.65,1.65,0,0,1-1.239-.446A1.538,1.538,0,0,1,42.981-16.638ZM48.8-6.726a7.788,7.788,0,0,1,.769-3.5,5.617,5.617,0,0,1,2.161-2.393,6.088,6.088,0,0,1,3.2-.836,5.769,5.769,0,0,1,4.34,1.721,6.77,6.77,0,0,1,1.8,4.565l.012.7a7.858,7.858,0,0,1-.751,3.491A5.549,5.549,0,0,1,58.185-.6a6.132,6.132,0,0,1-3.229.842,5.729,5.729,0,0,1-4.474-1.862A7.13,7.13,0,0,1,48.8-6.58Zm2.966.256a5.322,5.322,0,0,0,.842,3.192,2.738,2.738,0,0,0,2.344,1.154A2.708,2.708,0,0,0,57.294-3.3a5.878,5.878,0,0,0,.836-3.43A5.253,5.253,0,0,0,57.269-9.9a2.748,2.748,0,0,0-2.338-1.172,2.723,2.723,0,0,0-2.307,1.154A5.767,5.767,0,0,0,51.77-6.47ZM55.75-18.75h3.381l-3.381,3.7h-2.38Zm10.6,5.542.085,1.526a4.749,4.749,0,0,1,3.845-1.77q4.126,0,4.2,4.724V0H71.509V-8.557a2.72,2.72,0,0,0-.543-1.862,2.285,2.285,0,0,0-1.776-.6A2.858,2.858,0,0,0,66.516-9.4V0H63.55V-13.208Z" transform="translate(408.051 1209)" fill="#12263f"/>
                      <path id="Trazado_916763" data-name="Trazado 916763" d="M-42-7.935h-7.3v5.469h8.533V0H-52.393V-17.773h11.536v2.49H-49.3v4.907H-42Zm6.555-5.273V1.172a4.345,4.345,0,0,1-1.007,3.094A3.86,3.86,0,0,1-39.4,5.334a5.928,5.928,0,0,1-1.575-.208V2.783a4.57,4.57,0,0,0,1.05.11q1.477,0,1.514-1.611v-14.49Zm-3.223-3.43a1.574,1.574,0,0,1,.433-1.135A1.637,1.637,0,0,1-37-18.225a1.658,1.658,0,0,1,1.245.452,1.562,1.562,0,0,1,.439,1.135,1.526,1.526,0,0,1-.439,1.117A1.671,1.671,0,0,1-37-15.076a1.65,1.65,0,0,1-1.239-.446A1.538,1.538,0,0,1-38.672-16.638ZM-26.465.244a6.137,6.137,0,0,1-4.572-1.776,6.443,6.443,0,0,1-1.752-4.73v-.366a7.925,7.925,0,0,1,.763-3.534,5.807,5.807,0,0,1,2.142-2.423,5.664,5.664,0,0,1,3.076-.867,5.184,5.184,0,0,1,4.169,1.721A7.278,7.278,0,0,1-21.167-6.86v1.2H-29.8A3.966,3.966,0,0,0-28.7-3.076a3.28,3.28,0,0,0,2.411.952,4.017,4.017,0,0,0,3.32-1.648l1.6,1.526A5.34,5.34,0,0,1-23.492-.409,6.631,6.631,0,0,1-26.465.244Zm-.354-11.316a2.5,2.5,0,0,0-1.971.854,4.429,4.429,0,0,0-.958,2.38H-24.1v-.22a3.605,3.605,0,0,0-.793-2.252A2.479,2.479,0,0,0-26.819-11.072ZM-13.44-2.124A2.682,2.682,0,0,0-11.6-2.771a2.21,2.21,0,0,0,.781-1.6h2.8a4.357,4.357,0,0,1-.769,2.3A5.044,5.044,0,0,1-10.742-.378,5.82,5.82,0,0,1-13.4.244,5.631,5.631,0,0,1-17.8-1.55a7.117,7.117,0,0,1-1.624-4.956v-.305a7,7,0,0,1,1.611-4.828,5.58,5.58,0,0,1,4.395-1.813,5.427,5.427,0,0,1,3.839,1.373A4.919,4.919,0,0,1-8.02-8.472h-2.8a2.716,2.716,0,0,0-.775-1.868,2.494,2.494,0,0,0-1.849-.732,2.61,2.61,0,0,0-2.222,1.044,5.326,5.326,0,0,0-.793,3.168v.476a5.414,5.414,0,0,0,.775,3.2A2.608,2.608,0,0,0-13.44-2.124Zm15.662.83A4.6,4.6,0,0,1-1.489.244,4.1,4.1,0,0,1-4.742-1.013a5.349,5.349,0,0,1-1.1-3.638v-8.557h2.966v8.521q0,2.515,2.087,2.515a2.932,2.932,0,0,0,2.917-1.55v-9.485H5.09V0h-2.8Zm11.316-.83a2.682,2.682,0,0,0,1.843-.647,2.21,2.21,0,0,0,.781-1.6h2.8a4.357,4.357,0,0,1-.769,2.3A5.044,5.044,0,0,1,16.235-.378a5.82,5.82,0,0,1-2.661.623A5.631,5.631,0,0,1,9.18-1.55,7.117,7.117,0,0,1,7.556-6.506v-.305a7,7,0,0,1,1.611-4.828,5.58,5.58,0,0,1,4.395-1.813A5.427,5.427,0,0,1,17.4-12.079a4.919,4.919,0,0,1,1.556,3.607h-2.8a2.716,2.716,0,0,0-.775-1.868,2.494,2.494,0,0,0-1.849-.732,2.61,2.61,0,0,0-2.222,1.044,5.326,5.326,0,0,0-.793,3.168v.476a5.414,5.414,0,0,0,.775,3.2A2.608,2.608,0,0,0,13.538-2.124ZM24.353,0H21.387V-13.208h2.966ZM21.2-16.638a1.574,1.574,0,0,1,.433-1.135,1.637,1.637,0,0,1,1.239-.452,1.658,1.658,0,0,1,1.245.452,1.562,1.562,0,0,1,.439,1.135,1.526,1.526,0,0,1-.439,1.117,1.671,1.671,0,0,1-1.245.446,1.65,1.65,0,0,1-1.239-.446A1.538,1.538,0,0,1,21.2-16.638Zm5.823,9.912a7.788,7.788,0,0,1,.769-3.5,5.617,5.617,0,0,1,2.161-2.393,6.088,6.088,0,0,1,3.2-.836,5.769,5.769,0,0,1,4.34,1.721,6.77,6.77,0,0,1,1.8,4.565l.012.7a7.858,7.858,0,0,1-.751,3.491A5.549,5.549,0,0,1,36.407-.6a6.132,6.132,0,0,1-3.229.842A5.729,5.729,0,0,1,28.7-1.617,7.13,7.13,0,0,1,27.026-6.58Zm2.966.256a5.322,5.322,0,0,0,.842,3.192,2.738,2.738,0,0,0,2.344,1.154A2.708,2.708,0,0,0,35.516-3.3a5.878,5.878,0,0,0,.836-3.43A5.253,5.253,0,0,0,35.492-9.9a2.748,2.748,0,0,0-2.338-1.172,2.723,2.723,0,0,0-2.307,1.154A5.767,5.767,0,0,0,29.993-6.47Zm3.979-12.28h3.381l-3.381,3.7h-2.38Zm10.6,5.542.085,1.526a4.749,4.749,0,0,1,3.845-1.77q4.126,0,4.2,4.724V0H49.731V-8.557a2.72,2.72,0,0,0-.543-1.862,2.285,2.285,0,0,0-1.776-.6A2.858,2.858,0,0,0,44.739-9.4V0H41.772V-13.208Z" transform="translate(931.051 1209)" fill="#12263f"/>
                      <path id="Trazado_916762" data-name="Trazado 916762" d="M-67.578-6.6V0h-3.088V-17.773h6.8a6.88,6.88,0,0,1,4.73,1.55,5.21,5.21,0,0,1,1.752,4.1A5.037,5.037,0,0,1-59.1-8.057,7.214,7.214,0,0,1-63.9-6.6Zm0-2.478h3.711a3.655,3.655,0,0,0,2.515-.775,2.849,2.849,0,0,0,.867-2.24,3.074,3.074,0,0,0-.879-2.3,3.388,3.388,0,0,0-2.417-.885h-3.8ZM-51.819,0h-2.966V-18.75h2.966ZM-40.7,0a4.578,4.578,0,0,1-.342-1.233A4.617,4.617,0,0,1-44.507.244,4.66,4.66,0,0,1-47.754-.891,3.632,3.632,0,0,1-49.011-3.7,3.75,3.75,0,0,1-47.443-6.94a7.6,7.6,0,0,1,4.486-1.129h1.819v-.867a2.314,2.314,0,0,0-.574-1.642,2.274,2.274,0,0,0-1.746-.616,2.613,2.613,0,0,0-1.66.507A1.568,1.568,0,0,0-45.764-9.4H-48.73a3.292,3.292,0,0,1,.72-2.032,4.8,4.8,0,0,1,1.959-1.483,6.882,6.882,0,0,1,2.765-.537,5.542,5.542,0,0,1,3.7,1.166,4.157,4.157,0,0,1,1.416,3.278v5.957a6.751,6.751,0,0,0,.5,2.844V0Zm-3.259-2.136A3.374,3.374,0,0,0-42.3-2.563a2.854,2.854,0,0,0,1.166-1.147V-6.2h-1.6a4.373,4.373,0,0,0-2.478.574A1.859,1.859,0,0,0-46.045-4a1.733,1.733,0,0,0,.568,1.361A2.2,2.2,0,0,0-43.958-2.136Zm11.646-11.072.085,1.526a4.749,4.749,0,0,1,3.845-1.77q4.126,0,4.2,4.724V0h-2.966V-8.557a2.72,2.72,0,0,0-.543-1.862,2.285,2.285,0,0,0-1.776-.6A2.858,2.858,0,0,0-32.141-9.4V0h-2.966V-13.208ZM-18.005,0h-2.966V-13.208h2.966Zm-3.149-16.638a1.574,1.574,0,0,1,.433-1.135,1.637,1.637,0,0,1,1.239-.452,1.658,1.658,0,0,1,1.245.452,1.562,1.562,0,0,1,.439,1.135,1.526,1.526,0,0,1-.439,1.117,1.671,1.671,0,0,1-1.245.446,1.65,1.65,0,0,1-1.239-.446A1.538,1.538,0,0,1-21.155-16.638ZM-13.989,0V-11.011H-16v-2.2h2.014v-.9a5.284,5.284,0,0,1,.659-2.661A4.1,4.1,0,0,1-11.5-18.445a6.591,6.591,0,0,1,2.844-.562,8.291,8.291,0,0,1,1.874.208q.9.208,1.862.525l-.452,2.454a9.443,9.443,0,0,0-3.076-.586,2.749,2.749,0,0,0-1.965.592,2.368,2.368,0,0,0-.61,1.776v.83h2.6v2.2h-2.6V0ZM-3.516,0H-6.482V-13.208h2.966ZM5.2-2.124a2.682,2.682,0,0,0,1.843-.647,2.21,2.21,0,0,0,.781-1.6h2.8a4.357,4.357,0,0,1-.769,2.3A5.044,5.044,0,0,1,7.9-.378,5.82,5.82,0,0,1,5.237.244,5.631,5.631,0,0,1,.842-1.55,7.117,7.117,0,0,1-.781-6.506v-.305A7,7,0,0,1,.83-11.639a5.58,5.58,0,0,1,4.395-1.813,5.427,5.427,0,0,1,3.839,1.373A4.919,4.919,0,0,1,10.62-8.472h-2.8a2.716,2.716,0,0,0-.775-1.868A2.494,2.494,0,0,0,5.2-11.072a2.61,2.61,0,0,0-2.222,1.044A5.326,5.326,0,0,0,2.185-6.86v.476a5.414,5.414,0,0,0,.775,3.2A2.608,2.608,0,0,0,5.2-2.124ZM20.752,0a4.578,4.578,0,0,1-.342-1.233A4.617,4.617,0,0,1,16.943.244,4.66,4.66,0,0,1,13.7-.891,3.632,3.632,0,0,1,12.439-3.7,3.75,3.75,0,0,1,14.008-6.94a7.6,7.6,0,0,1,4.486-1.129h1.819v-.867a2.314,2.314,0,0,0-.574-1.642,2.274,2.274,0,0,0-1.746-.616,2.613,2.613,0,0,0-1.66.507A1.568,1.568,0,0,0,15.686-9.4H12.72a3.292,3.292,0,0,1,.72-2.032A4.8,4.8,0,0,1,15.4-12.915a6.882,6.882,0,0,1,2.765-.537,5.542,5.542,0,0,1,3.7,1.166,4.157,4.157,0,0,1,1.416,3.278v5.957a6.751,6.751,0,0,0,.5,2.844V0ZM17.493-2.136a3.374,3.374,0,0,0,1.654-.427,2.854,2.854,0,0,0,1.166-1.147V-6.2h-1.6a4.373,4.373,0,0,0-2.478.574A1.859,1.859,0,0,0,15.405-4a1.733,1.733,0,0,0,.568,1.361A2.2,2.2,0,0,0,17.493-2.136Zm14.319.012a2.682,2.682,0,0,0,1.843-.647,2.21,2.21,0,0,0,.781-1.6h2.8a4.357,4.357,0,0,1-.769,2.3A5.044,5.044,0,0,1,34.509-.378a5.82,5.82,0,0,1-2.661.623A5.631,5.631,0,0,1,27.454-1.55,7.117,7.117,0,0,1,25.83-6.506v-.305a7,7,0,0,1,1.611-4.828,5.58,5.58,0,0,1,4.395-1.813,5.427,5.427,0,0,1,3.839,1.373,4.919,4.919,0,0,1,1.556,3.607h-2.8a2.716,2.716,0,0,0-.775-1.868,2.494,2.494,0,0,0-1.849-.732,2.61,2.61,0,0,0-2.222,1.044A5.326,5.326,0,0,0,28.8-6.86v.476a5.414,5.414,0,0,0,.775,3.2A2.608,2.608,0,0,0,31.812-2.124ZM42.627,0H39.661V-13.208h2.966ZM39.478-16.638a1.574,1.574,0,0,1,.433-1.135,1.637,1.637,0,0,1,1.239-.452,1.658,1.658,0,0,1,1.245.452,1.562,1.562,0,0,1,.439,1.135,1.526,1.526,0,0,1-.439,1.117,1.671,1.671,0,0,1-1.245.446,1.65,1.65,0,0,1-1.239-.446A1.538,1.538,0,0,1,39.478-16.638ZM45.3-6.726a7.788,7.788,0,0,1,.769-3.5,5.617,5.617,0,0,1,2.161-2.393,6.088,6.088,0,0,1,3.2-.836,5.769,5.769,0,0,1,4.34,1.721,6.77,6.77,0,0,1,1.8,4.565l.012.7a7.858,7.858,0,0,1-.751,3.491A5.549,5.549,0,0,1,54.681-.6a6.132,6.132,0,0,1-3.229.842,5.729,5.729,0,0,1-4.474-1.862A7.13,7.13,0,0,1,45.3-6.58Zm2.966.256a5.322,5.322,0,0,0,.842,3.192,2.738,2.738,0,0,0,2.344,1.154A2.708,2.708,0,0,0,53.79-3.3a5.878,5.878,0,0,0,.836-3.43A5.253,5.253,0,0,0,53.766-9.9a2.748,2.748,0,0,0-2.338-1.172,2.723,2.723,0,0,0-2.307,1.154A5.767,5.767,0,0,0,48.267-6.47Zm3.979-12.28h3.381l-3.381,3.7h-2.38Zm10.6,5.542.085,1.526a4.749,4.749,0,0,1,3.845-1.77q4.126,0,4.2,4.724V0H68.005V-8.557a2.72,2.72,0,0,0-.543-1.862,2.285,2.285,0,0,0-1.776-.6A2.858,2.858,0,0,0,63.013-9.4V0H60.046V-13.208Z" transform="translate(669.051 1562)" fill="#12263f"/>
                      <path id="Trazado_916764" data-name="Trazado 916764" d="M-25.5-5.786a6.417,6.417,0,0,1-2.1,4.437A7.158,7.158,0,0,1-32.471.244,6.931,6.931,0,0,1-36.212-.763a6.61,6.61,0,0,1-2.5-2.863,10.33,10.33,0,0,1-.916-4.309v-1.66a10.4,10.4,0,0,1,.891-4.431,6.716,6.716,0,0,1,2.557-2.954,7.134,7.134,0,0,1,3.851-1.038,6.853,6.853,0,0,1,4.736,1.6A6.681,6.681,0,0,1-25.5-11.9h-3.076a4.39,4.39,0,0,0-1.117-2.765,3.692,3.692,0,0,0-2.631-.848,3.607,3.607,0,0,0-3.094,1.471,7.346,7.346,0,0,0-1.1,4.315v1.575A7.793,7.793,0,0,0-35.492-3.76a3.424,3.424,0,0,0,3.021,1.514,3.993,3.993,0,0,0,2.734-.818,4.265,4.265,0,0,0,1.16-2.722Zm1.917-.94a7.788,7.788,0,0,1,.769-3.5,5.617,5.617,0,0,1,2.161-2.393,6.088,6.088,0,0,1,3.2-.836,5.769,5.769,0,0,1,4.34,1.721,6.77,6.77,0,0,1,1.8,4.565l.012.7a7.858,7.858,0,0,1-.751,3.491A5.549,5.549,0,0,1-14.2-.6a6.132,6.132,0,0,1-3.229.842,5.729,5.729,0,0,1-4.474-1.862A7.13,7.13,0,0,1-23.584-6.58Zm2.966.256a5.322,5.322,0,0,0,.842,3.192,2.738,2.738,0,0,0,2.344,1.154A2.708,2.708,0,0,0-15.094-3.3a5.878,5.878,0,0,0,.836-3.43A5.253,5.253,0,0,0-15.118-9.9a2.748,2.748,0,0,0-2.338-1.172,2.723,2.723,0,0,0-2.307,1.154A5.767,5.767,0,0,0-20.618-6.47Zm14.575-6.738.085,1.526a4.749,4.749,0,0,1,3.845-1.77q4.126,0,4.2,4.724V0H-.879V-8.557a2.72,2.72,0,0,0-.543-1.862,2.285,2.285,0,0,0-1.776-.6A2.858,2.858,0,0,0-5.872-9.4V0H-8.838V-13.208Zm14.868-3.21v3.21h2.332v2.2H8.826v7.373a1.624,1.624,0,0,0,.3,1.093,1.387,1.387,0,0,0,1.068.336,4.57,4.57,0,0,0,1.038-.122V-.037A7.306,7.306,0,0,1,9.277.244q-3.418,0-3.418-3.772v-7.483H3.687v-2.2H5.859v-3.21ZM20.337-10.5a7.34,7.34,0,0,0-1.208-.1,2.721,2.721,0,0,0-2.747,1.563V0H13.416V-13.208h2.832l.073,1.477A3.342,3.342,0,0,1,19.3-13.452a2.777,2.777,0,0,1,1.05.171Zm.879,3.772a7.788,7.788,0,0,1,.769-3.5,5.617,5.617,0,0,1,2.161-2.393,6.088,6.088,0,0,1,3.2-.836,5.769,5.769,0,0,1,4.34,1.721,6.77,6.77,0,0,1,1.8,4.565l.012.7a7.858,7.858,0,0,1-.751,3.491A5.549,5.549,0,0,1,30.6-.6a6.132,6.132,0,0,1-3.229.842,5.729,5.729,0,0,1-4.474-1.862A7.13,7.13,0,0,1,21.216-6.58Zm2.966.256a5.322,5.322,0,0,0,.842,3.192,2.738,2.738,0,0,0,2.344,1.154A2.708,2.708,0,0,0,29.706-3.3a5.878,5.878,0,0,0,.836-3.43A5.253,5.253,0,0,0,29.681-9.9a2.748,2.748,0,0,0-2.338-1.172,2.723,2.723,0,0,0-2.307,1.154A5.767,5.767,0,0,0,24.182-6.47ZM39.16,0H36.194V-18.75H39.16Z" transform="translate(1192.051 1562)" fill="#12263f"/>
                      <g id="planificacion" transform="translate(621.851 1328.2)">
                        <g id="Grupo_1103454" data-name="Grupo 1103454">
                          <g id="Grupo_1103453" data-name="Grupo 1103453">
                            <path id="Trazado_914319" data-name="Trazado 914319" d="M88.115,60.8V8.227A8.236,8.236,0,0,0,79.889,0H19.378a8.236,8.236,0,0,0-8.227,8.227v2.925H8.227a8.227,8.227,0,0,0,0,16.453h2.925V38.573H8.227a8.227,8.227,0,0,0,0,16.453h2.925V66H8.227a8.227,8.227,0,0,0,0,16.453h2.925V85.19a8.457,8.457,0,0,0,2.366,5.864,8.058,8.058,0,0,0,5.86,2.545H74.4A19.315,19.315,0,0,0,88.115,60.8ZM8.227,22.12a2.742,2.742,0,0,1,0-5.484h5.667a2.742,2.742,0,1,1,0,5.484Zm0,27.422a2.742,2.742,0,0,1,0-5.484h5.667a2.742,2.742,0,1,1,0,5.484Zm5.667,27.422H8.227a2.742,2.742,0,1,1,0-5.484h5.667a2.742,2.742,0,1,1,0,5.484Zm5.484,11.152a2.913,2.913,0,0,1-2.742-2.925V81.976a8.225,8.225,0,0,0,0-15.51V54.555a8.225,8.225,0,0,0,0-15.51V27.133a8.225,8.225,0,0,0,0-15.51v-3.4a2.745,2.745,0,0,1,2.742-2.742H79.889a2.745,2.745,0,0,1,2.742,2.742V56.881A19.191,19.191,0,0,0,55.209,74.222a19.411,19.411,0,0,0,5.829,13.894Zm55.026,0A13.8,13.8,0,1,1,88.115,74.222,13.819,13.819,0,0,1,74.4,88.115Z" fill="#fff"/>
                          </g>
                        </g>
                        <g id="Grupo_1103456" data-name="Grupo 1103456" transform="translate(55.209 22.12)">
                          <g id="Grupo_1103455" data-name="Grupo 1103455">
                            <path id="Trazado_914320" data-name="Trazado 914320" d="M321.2,121H304.742a2.742,2.742,0,1,0,0,5.484H321.2a2.742,2.742,0,1,0,0-5.484Z" transform="translate(-302 -121)" fill="#fff"/>
                          </g>
                        </g>
                        <g id="Grupo_1103458" data-name="Grupo 1103458" transform="translate(55.209 44.058)">
                          <g id="Grupo_1103457" data-name="Grupo 1103457">
                            <path id="Trazado_914321" data-name="Trazado 914321" d="M321.2,241H304.742a2.742,2.742,0,1,0,0,5.484H321.2a2.742,2.742,0,1,0,0-5.484Z" transform="translate(-302 -241)" fill="#fff"/>
                          </g>
                        </g>
                        <g id="Grupo_1103460" data-name="Grupo 1103460" transform="translate(71.662 65.995)">
                          <g id="Grupo_1103459" data-name="Grupo 1103459">
                            <path id="Trazado_914322" data-name="Trazado 914322" d="M400.227,366.484h-2.742v-2.742a2.742,2.742,0,1,0-5.484,0v5.484a2.742,2.742,0,0,0,2.742,2.742h5.484a2.742,2.742,0,1,0,0-5.484Z" transform="translate(-392 -361)" fill="#fff"/>
                          </g>
                        </g>
                        <g id="Grupo_1103462" data-name="Grupo 1103462" transform="translate(26.834 16.636)">
                          <g id="Grupo_1103461" data-name="Grupo 1103461">
                            <path id="Trazado_914323" data-name="Trazado 914323" d="M168.688,91.8a2.742,2.742,0,0,0-3.878,0l-9.03,9.03-4.316-4.316a2.742,2.742,0,0,0-3.878,3.878l6.255,6.255a2.742,2.742,0,0,0,3.878,0l10.969-10.969A2.742,2.742,0,0,0,168.688,91.8Z" transform="translate(-146.783 -91)" fill="#fff"/>
                          </g>
                        </g>
                        <g id="Grupo_1103464" data-name="Grupo 1103464" transform="translate(26.834 38.573)">
                          <g id="Grupo_1103463" data-name="Grupo 1103463">
                            <path id="Trazado_914324" data-name="Trazado 914324" d="M168.688,211.8a2.742,2.742,0,0,0-3.878,0l-9.03,9.03-4.316-4.316a2.742,2.742,0,0,0-3.878,3.878l6.255,6.255a2.742,2.742,0,0,0,3.878,0l10.969-10.969A2.742,2.742,0,0,0,168.688,211.8Z" transform="translate(-146.783 -211)" fill="#fff"/>
                          </g>
                        </g>
                        <g id="Grupo_1103466" data-name="Grupo 1103466" transform="translate(26.834 60.511)">
                          <g id="Grupo_1103465" data-name="Grupo 1103465">
                            <path id="Trazado_914325" data-name="Trazado 914325" d="M168.688,331.8a2.742,2.742,0,0,0-3.878,0l-9.03,9.03-4.316-4.316a2.742,2.742,0,1,0-3.878,3.878l6.255,6.255a2.742,2.742,0,0,0,3.878,0l10.969-10.969A2.742,2.742,0,0,0,168.688,331.8Z" transform="translate(-146.783 -331)" fill="#fff"/>
                          </g>
                        </g>
                      </g>
                      <g id="identificar" transform="translate(350.202 1328.199)">
                        <circle id="Elipse_11525" data-name="Elipse 11525" cx="2.742" cy="2.742" r="2.742" transform="translate(11.052 73.027)" fill="#fff"/>
                        <path id="Trazado_914326" data-name="Trazado 914326" d="M92.565,81.4,78.6,56.1c.553-.482,1.089-.981,1.6-1.5a31.992,31.992,0,1,0-51.217-8.273L5.447,64.49A13.994,13.994,0,1,0,25.075,84.117L43.231,60.581a31.677,31.677,0,0,0,5.336,2.1L38.239,81.4a8.226,8.226,0,0,0,7.2,12.2H85.362a8.226,8.226,0,0,0,7.2-12.2Zm-71.833-.633A8.509,8.509,0,1,1,8.8,68.832L31.88,51.025a32.236,32.236,0,0,0,6.657,6.662Zm18.11-30.046a26.508,26.508,0,1,1,37.488,0c-.147.147-.3.291-.451.435l-2.764-5.009A21.033,21.033,0,1,0,54.072,52.7L51.3,57.731a26.319,26.319,0,0,1-12.455-7.009Zm30.6-8.706A8.213,8.213,0,0,0,65.4,40.969h0a8.123,8.123,0,0,0-7.2,4.253L56.942,47.5a15.539,15.539,0,1,1,12.5-5.486ZM87.724,86.768a2.7,2.7,0,0,1-2.361,1.348H45.441a2.742,2.742,0,0,1-2.4-4.067L63,47.871a2.742,2.742,0,0,1,4.8,0l19.96,36.178A2.7,2.7,0,0,1,87.724,86.768Z" transform="translate(0 0)" fill="#fff"/>
                        <path id="Trazado_914327" data-name="Trazado 914327" d="M345.5,422a2.742,2.742,0,1,0,2.742,2.742A2.742,2.742,0,0,0,345.5,422Z" transform="translate(-280.093 -344.853)" fill="#fff"/>
                        <path id="Trazado_914328" data-name="Trazado 914328" d="M345.5,307a2.742,2.742,0,0,0-2.742,2.742v11.883a2.742,2.742,0,1,0,5.484,0V309.742A2.742,2.742,0,0,0,345.5,307Z" transform="translate(-280.094 -250.876)" fill="#fff"/>
                      </g>
                      <path id="administracion" d="M87.794,36.607A6.79,6.79,0,0,1,83,25.024a5.813,5.813,0,0,0,0-8.212l-6.2-6.2a5.813,5.813,0,0,0-8.212,0A6.79,6.79,0,0,1,57,5.809,5.814,5.814,0,0,0,51.189,0H42.414a5.814,5.814,0,0,0-5.807,5.807,6.79,6.79,0,0,1-11.583,4.8,5.813,5.813,0,0,0-8.212,0l-6.2,6.205a5.813,5.813,0,0,0,0,8.212,6.79,6.79,0,0,1-4.8,11.583A5.814,5.814,0,0,0,0,42.414v8.775A5.814,5.814,0,0,0,5.809,57a6.79,6.79,0,0,1,4.8,11.583,5.813,5.813,0,0,0,0,8.212l6.2,6.2a5.813,5.813,0,0,0,8.212,0,6.785,6.785,0,0,1,11.583,4.8A5.814,5.814,0,0,0,42.414,93.6h8.775A5.814,5.814,0,0,0,57,87.795,6.79,6.79,0,0,1,68.579,83a5.813,5.813,0,0,0,8.212,0l6.2-6.2a5.813,5.813,0,0,0,0-8.212A6.79,6.79,0,0,1,87.794,57,5.814,5.814,0,0,0,93.6,51.189V42.414a5.814,5.814,0,0,0-5.807-5.807Zm-.043,14.539a12.64,12.64,0,0,0-8.922,21.539L72.685,78.83a12.64,12.64,0,0,0-21.539,8.922H42.457A12.635,12.635,0,0,0,20.918,78.83l-6.144-6.144a12.435,12.435,0,0,0,2.7-13.737,12.435,12.435,0,0,0-11.623-7.8V42.457a12.434,12.434,0,0,0,11.623-7.8,12.435,12.435,0,0,0-2.7-13.737l6.144-6.144a12.435,12.435,0,0,0,13.737,2.7,12.434,12.434,0,0,0,7.8-11.623h8.689a12.434,12.434,0,0,0,7.8,11.623,12.435,12.435,0,0,0,13.737-2.7l6.144,6.144a12.64,12.64,0,0,0,8.922,21.539v8.689ZM46.8,22.269A24.532,24.532,0,1,0,71.334,46.8,24.56,24.56,0,0,0,46.8,22.269Zm0,43.214A18.682,18.682,0,1,1,65.484,46.8,18.7,18.7,0,0,1,46.8,65.484ZM58.957,38.468a2.925,2.925,0,0,1-.327,4.124L43.547,55.461a2.925,2.925,0,0,1-3.933-.124l-4.777-4.626a2.925,2.925,0,1,1,4.069-4.2l2.867,2.776,13.06-11.143A2.925,2.925,0,0,1,58.957,38.468Z" transform="translate(884.249 1328.198)" fill="#fff"/>
                      <g id="control-de-calidad" transform="translate(1139.532 1328.199)">
                        <path id="Trazado_914329" data-name="Trazado 914329" d="M277.675,300.838l-2.691-2.691-3.878,3.878,6.569,6.569,11.466-11.466-3.878-3.878Z" transform="translate(-213.765 -239.64)" fill="#fff"/>
                        <path id="Trazado_914330" data-name="Trazado 914330" d="M97.237,79.557l-12.1-12.1a20.174,20.174,0,0,0-6.149-22.774V10.42H64.637V3.839H54.094L48.8,0H39.755l-5.66,3.839H23.87V10.42H9.519V93.6H78.988V84.577L85.6,91.191A8.227,8.227,0,0,0,97.237,79.557ZM76.689,70.643c-14.272,13.137-33.8-6.394-20.661-20.661a14.564,14.564,0,0,1,10.33-4.272c12.832-.086,19.527,15.778,10.33,24.933ZM29.354,9.323h6.425L41.44,5.484H47.02l5.295,3.839h6.838V15.9h-29.8ZM73.5,88.116H15V15.9H23.87v5.484H64.637V15.9H73.5V41.534C53.38,34.124,37.016,58.92,52.15,74.521A20.1,20.1,0,0,0,73.5,79.092h0Zm19.855-.8a2.755,2.755,0,0,1-3.878,0L78.495,76.327a20.192,20.192,0,0,0,3.878-3.878L93.359,83.435A2.755,2.755,0,0,1,93.359,87.313Z" fill="#fff"/>
                        <path id="Trazado_914331" data-name="Trazado 914331" d="M69.519,158h33.272v5.484H69.519Z" transform="translate(-49.031 -129.115)" fill="#fff"/>
                        <path id="Trazado_914332" data-name="Trazado 914332" d="M69.519,218H91.457v5.484H69.519Z" transform="translate(-49.031 -178.147)" fill="#fff"/>
                        <path id="Trazado_914333" data-name="Trazado 914333" d="M69.519,278H83.778v5.484H69.519Z" transform="translate(-49.031 -227.178)" fill="#fff"/>
                        <path id="Trazado_914334" data-name="Trazado 914334" d="M69.519,338h18.1v5.484h-18.1Z" transform="translate(-49.031 -276.209)" fill="#fff"/>
                        <path id="Trazado_914335" data-name="Trazado 914335" d="M69.519,398H91.457v5.484H69.519Z" transform="translate(-49.031 -325.24)" fill="#fff"/>
                      </g>
                    </g>
                  </g>
                </g>
              </g>
            </g>
          </g>
        </g>
      </g>
    </g>
  </g>
</svg>
