<svg xmlns="http://www.w3.org/2000/svg" xmlns:xlink="http://www.w3.org/1999/xlink" width="44.29" height="48.952" viewBox="0 0 44.29 48.952">
  <defs>
    <clipPath id="clip-path">
      <rect id="Rectángulo_403295" data-name="Rectángulo 403295" width="44.29" height="48.952" transform="translate(0 0)" fill="none"/>
    </clipPath>
  </defs>
  <g id="Grupo_1102948" data-name="Grupo 1102948" transform="translate(0 0.005)">
    <g id="Grupo_1102947" data-name="Grupo 1102947" transform="translate(0 -0.005)" clip-path="url(#clip-path)">
      <path id="Trazado_912985" data-name="Trazado 912985" d="M61.908,2209.737a19.444,19.444,0,0,1-2.1-3.6,22.518,22.518,0,0,1-1.388-3.926,1.1,1.1,0,0,1-.017-.171c-.017-.1.044-.089.1-.063a.506.506,0,0,1,.209.267,4.583,4.583,0,0,0,1.651,1.89,2.554,2.554,0,0,0-.132-1.269,22.055,22.055,0,0,1-.964-4.274,2.33,2.33,0,0,1,.325-1.755,1.5,1.5,0,0,0,.2-.439c.041-.129.079-.325.23-.3.185.027.134.235.139.375.009.276,0,.553,0,.829a1.328,1.328,0,0,0,.052.41c.085.779.144,1.561.285,2.332a15.589,15.589,0,0,0,.7,3.023,20.193,20.193,0,0,0,1.7,3.884c.143.342.414.614.53.97a.993.993,0,0,0,.2.707c.25.4.522.777.794,1.158a1.072,1.072,0,0,1,.266.509c-.011.184-.052.365-.061.55-.015.3-.193.434-.46.289a4.755,4.755,0,0,1-1.19-.759,1.867,1.867,0,0,0-1.076-.638" transform="translate(-57.712 -2170.118)" fill="#fa5745"/>
      <path id="Trazado_912986" data-name="Trazado 912986" d="M354.821,3346.221c.417-.143.7.125.922.379a5.772,5.772,0,0,0,1.292.9c.312.2.385.129.412-.24a1.058,1.058,0,0,1,.112-.5c.161-.032.219.1.3.191.494.578.979,1.165,1.529,1.693a19.892,19.892,0,0,0,4.123,3.01,18.181,18.181,0,0,0,3.061,1.361c.117.039.251.065.29.215-.157.247-.372.178-.575.09a1.883,1.883,0,0,0-.8-.164.922.922,0,0,0-.522.139.816.816,0,0,1-.883.076.963.963,0,0,0,.393.3c.123.084.267.16.151.348a18.508,18.508,0,0,1-2.507-1.19c-.11-.06-.225-.11-.337-.165a24.4,24.4,0,0,1-5.195-4.215,15.487,15.487,0,0,1-1.763-2.235" transform="translate(-350.624 -3306.603)" fill="#f54637"/>
      <path id="Trazado_912987" data-name="Trazado 912987" d="M5.191,1685.508a3.7,3.7,0,0,1-.061-1.089,2.032,2.032,0,0,0-.05-.452c-.1.656-.695,1.085-.669,1.837a18.207,18.207,0,0,0,.9,4.624,4.2,4.2,0,0,1,.234,1.52c-.006.085.048.208-.069.241-.1.028-.114-.083-.149-.154a.252.252,0,0,0-.092-.1,4.292,4.292,0,0,1-1.584-1.9c-.031-.065-.013-.239-.186-.167a13.782,13.782,0,0,1-.477-2.426,12.463,12.463,0,0,1-.155-2.062,15.138,15.138,0,0,1,0-1.9l.02-.534c.219.071.16.267.148.405a.735.735,0,0,0,.412.8c.04.021.071.059.11.083.135.08.228.32.377.252.171-.078.142-.326.145-.5a26.13,26.13,0,0,1,.16-2.651,8.749,8.749,0,0,1,.358-1.965A1.512,1.512,0,0,0,4.75,1679a.437.437,0,0,1,.394-.337.69.69,0,0,0,.612-.484.6.6,0,0,1,.254-.319c.1-.053.214-.133.271.053-.085.553-.293,1.075-.4,1.622a19.421,19.421,0,0,0-.577,5.381c.007.2.057.419-.11.592" transform="translate(-2.771 -1657.951)" fill="#fa6250"/>
      <path id="Trazado_912988" data-name="Trazado 912988" d="M1062.767,338.813c-.011.228.076.276.318.292.563.037,1.126.109,1.687.192.648.1,1.287.224,1.925.363.226.049.445.133.667.2.151.071.295.151.237.356-.049.174-.193.213-.35.226a2.909,2.909,0,0,1-.788-.079,10.712,10.712,0,0,0-2.46-.33,1.036,1.036,0,0,0-.343.027,13.548,13.548,0,0,1-3.131.461,1.857,1.857,0,0,0-.567.144c-.223.114-.233.233-.042.384.108.085.242.137.318.261a.1.1,0,0,1-.03.109c-.546.133-1.11.115-1.661.206-.236.039-.476.061-.712.1a19.847,19.847,0,0,0-3.594.966,19.3,19.3,0,0,0-2.185,1,.505.505,0,0,1-.357.094c-.19-.131-.085-.237.045-.3a.312.312,0,0,0,.187-.392.572.572,0,0,1,.331-.651c.24-.155.487-.3.712-.478a2.241,2.241,0,0,1,.476-.254,23.435,23.435,0,0,1,3.741-1.111,5.835,5.835,0,0,0,.671-.168.718.718,0,0,0,.5-.4,1.055,1.055,0,0,1,1.128-.677c.715-.011,1.43,0,2.144,0q.173,0,.346-.009c.219-.011.277-.11.175-.3.171-.144.442-.074.587-.274.006,0,.014.008.018.014a.169.169,0,0,1,.01.032" transform="translate(-1039.158 -334.76)" fill="#fa6856"/>
      <path id="Trazado_912989" data-name="Trazado 912989" d="M1730.22,432.787c-.149-.006-.238-.132-.364-.186s-.274-.124-.243-.292a.394.394,0,0,1,.281-.28,7.07,7.07,0,0,1,1.283-.216,7.942,7.942,0,0,0,1.637-.153,6.158,6.158,0,0,1,3.615.065,2.235,2.235,0,0,0,.715.092c.129-.016.284.052.369-.113.1-.188-.076-.263-.156-.377a17.891,17.891,0,0,1,3.728,1.421,2.185,2.185,0,0,1,.568.317c.06.124.2.148.289.237.114.116.241.252.145.422s-.266.1-.405.056c-.513-.172-1.008-.393-1.507-.6a5.731,5.731,0,0,0-2.472-.362c-.4.016-.562.357-.783.609-.057.065-.054.177-.145.226a1.015,1.015,0,0,1-.538-.079,18.7,18.7,0,0,0-3.732-.627c-.643-.042-1.284-.059-1.927-.065a.482.482,0,0,1-.357-.095" transform="translate(-1709.151 -426.224)" fill="#f95946"/>
      <path id="Trazado_912990" data-name="Trazado 912990" d="M2676.052,701.7a3.4,3.4,0,0,1,.825.708c.374.357.73.733,1.093,1.1.217.282.582.449.659.841a.514.514,0,0,0-.165.522,2,2,0,0,1-.172.868.215.215,0,0,1-.36.115,5.483,5.483,0,0,1-.959-.724,15.408,15.408,0,0,0-1.59-1.366,2.524,2.524,0,0,0-.238-.139,14.388,14.388,0,0,0-1.415-.875c-.589-.309-1.1-.743-1.674-1.076-.247-.143-.5-.277-.737-.441-.085-.059-.229-.085-.188-.245.154-.108.309-.044.464,0,.569.149.7.1,1.02-.358.251-.36.409-.409.851-.206.817.375,1.606.806,2.4,1.224.056.03.1.1.183.054" transform="translate(-2639.532 -692.017)" fill="#ed3d31"/>
      <path id="Trazado_912991" data-name="Trazado 912991" d="M346.386,659.712a10.351,10.351,0,0,1,1.184-1.566,21.733,21.733,0,0,1,4.778-4.164c.216.034.291.194.333.378a2.83,2.83,0,0,1,.03.875.529.529,0,0,1-.268.34c-.32.223-.625.466-.939.7a16.052,16.052,0,0,0-2.045,1.823,2.072,2.072,0,0,1,1.646-.242,1.606,1.606,0,0,1-.913.918,2.081,2.081,0,0,0-1.22.5,1.365,1.365,0,0,0-.322,1.492.448.448,0,0,1-.319.387c-.5-.3-.411-.8-.44-1.307-.234.25-.4.515-.6.759-.24.3-.344.308-.6.025-.228-.257-.491-.509-.312-.909" transform="translate(-342.231 -646.247)" fill="#fda492"/>
      <path id="Trazado_912992" data-name="Trazado 912992" d="M2346.721,550.4c.045.118.036.148-.1.08q-1.179-.609-2.365-1.2a3.017,3.017,0,0,0-.415-.169.321.321,0,0,0-.408.149c-.478.679-.484.673-1.329.473a1.9,1.9,0,0,0-.309-.023c-.146.1-.262-.007-.38-.061-.395-.183-.77-.406-1.179-.56a21.271,21.271,0,0,0-2.119-.794c-.107-.032-.229-.05-.269-.183a1.083,1.083,0,0,1,.892-.9,6.853,6.853,0,0,1,3.453.755c.187.086.382.156.576.226.1.038.23.125.312,0s-.074-.2-.115-.3c-.055-.137-.279-.14-.268-.333a19.208,19.208,0,0,1,2.241,1.419c.507.352.949.785,1.476,1.107.124.076.156.251.3.314" transform="translate(-2310.201 -540.723)" fill="#f5483a"/>
      <path id="Trazado_912993" data-name="Trazado 912993" d="M8.91,1524.93a20.292,20.292,0,0,0-.432,3.049,17.69,17.69,0,0,1-.123,2.055c-.02.1-.022.223-.129.262s-.148-.084-.219-.136a.169.169,0,0,1-.024-.024c-.224-.251-.58-.373-.759-.63s.039-.65-.1-.967a19.577,19.577,0,0,1,.459-3.345,19.98,19.98,0,0,1,1.129-3.655c.3.045.36.316.413.521.076.294.168.51.5.532a16.034,16.034,0,0,1-.506,1.756,2.246,2.246,0,0,1-.208.583" transform="translate(-7.035 -1503.541)" fill="#fb7b68"/>
      <path id="Trazado_912994" data-name="Trazado 912994" d="M1198.677,173.938c.063.1.268,0,.264.167-.005.187-.194.172-.315.213a1,1,0,0,1-.308.022c-.773,0-1.547-.011-2.319.006-.457.01-.884.064-1.032.646-.067.264-.37.4-.653.457a28.686,28.686,0,0,0-3.782,1.041c-.194.071-.389.137-.584.206a.146.146,0,0,1,.025-.159.637.637,0,0,0,.082-.671.769.769,0,0,0-.312-.481,20.218,20.218,0,0,1,4.756-1.253c.443-.064.89-.115,1.337-.145.218-.015.3-.078.294-.306-.008-.667.009-1.334.016-2,.173.07.13.227.133.356.011.507,0,1.013.009,1.52,0,.206.106.271.3.268.547-.01,1.094-.007,1.641,0,.155,0,.324-.028.445.115" transform="translate(-1175.672 -169.65)" fill="#fc7c68"/>
      <path id="Trazado_912995" data-name="Trazado 912995" d="M142.31,1138.3c-.377.206-.458.016-.5-.33a1.2,1.2,0,0,0-.39-.7,19.437,19.437,0,0,1,1.97-3.808,2.88,2.88,0,0,1,.513-.724c-.054.449.253.719.51,1.009.1.112.18.022.249-.067.23-.3.462-.6.693-.9.039-.051.058-.145.148-.1s.035.115.025.183a1.461,1.461,0,0,0,.324,1.286,1.022,1.022,0,0,1-.482.747c-.293.043-.461-.16-.645-.331-.284-.263-.334-.264-.545.063a20.127,20.127,0,0,0-1.632,3.219,1.1,1.1,0,0,1-.234.453" transform="translate(-139.745 -1119.267)" fill="#fb8e7a"/>
      <path id="Trazado_912996" data-name="Trazado 912996" d="M1734.6,161.14a18.411,18.411,0,0,0-2.163.009c-.333.022-.4-.089-.326-.377a14.328,14.328,0,0,0,.031-1.616c.01-.371.035-.413.415-.419.679-.012,1.358-.007,2.037,0,.512,0,.538.033.525.55,0,.065.024.138-.014.174.072-.167-.048-.383.062-.565.072.669.02,1.34.035,2.01-.015.166-.078.262-.271.23a1.771,1.771,0,0,0-.332.006" transform="translate(-1711.595 -156.852)" fill="#392e3e"/>
      <path id="Trazado_912997" data-name="Trazado 912997" d="M859.286,484.913c.383,0,.329.327.43.554.148.333-.031.541-.225.757l-.416.207c-.714.436-1.5.737-2.217,1.168-.3.183-.6.38-.907.557-.1.059-.2.173-.339.078,0-.207,0-.414,0-.621a.866.866,0,0,0-.281-.7,20.053,20.053,0,0,1,3.955-2" transform="translate(-845.214 -479.177)" fill="#fc917d"/>
      <path id="Trazado_912998" data-name="Trazado 912998" d="M1452.436,53.65c-.109-.152-.044-.321-.045-.483a1.544,1.544,0,0,1,.9-.18c2.766-.013,5.531-.008,8.3-.005a.578.578,0,0,1,.423.113.784.784,0,0,1-.061.7,1.145,1.145,0,0,1-.342.039c-2.857,0-5.714,0-8.571,0-.215,0-.446.033-.6-.179" transform="translate(-1435.193 -52.352)" fill="#584e5d"/>
      <path id="Trazado_912999" data-name="Trazado 912999" d="M1457.747,109.743a.938.938,0,0,0,.473.066q4.326,0,8.651,0c.131,0,.28-.056.389.075a.8.8,0,0,1-.821.547c-.677,0-1.353,0-2.03,0-.111,0-.231-.036-.33.05v.872c-.227-.222-.063-.437-.072-.631-.01-.224-.075-.3-.3-.3q-1.16.017-2.32,0c-.223,0-.308.064-.3.294.014.438.006.877,0,1.315,0,.11.044.234-.064.324q-.021-.945-.042-1.89a21.5,21.5,0,0,0-2.3-.036.93.93,0,0,1-.915-.595.421.421,0,0,1-.018-.1" transform="translate(-1440.505 -108.445)" fill="#261e28"/>
      <path id="Trazado_913000" data-name="Trazado 913000" d="M1463.517,12.679c-3.206.039-6.414-.084-9.62.072a.809.809,0,0,1,.338-.626,5.809,5.809,0,0,1,.791-.046c2.532,0,5.065-.005,7.6.009.185,0,.367.018.55.036a.737.737,0,0,1,.343.556" transform="translate(-1436.701 -11.936)" fill="#8a7f8c"/>
      <path id="Trazado_913001" data-name="Trazado 913001" d="M1491.4.183c-.1.116-.237.068-.357.069q-4.112,0-8.224,0c-.12,0-.256.05-.357-.066a.823.823,0,0,1,.61-.188q3.892.01,7.783.024a.684.684,0,0,1,.545.163" transform="translate(-1464.927 0.004)" fill="#6b626d"/>
      <path id="Trazado_913002" data-name="Trazado 913002" d="M3250.448,972.114l-.651-.82a5.362,5.362,0,0,1,1.2,1.239l-.12.071a.625.625,0,0,1-.429-.49" transform="translate(-3211.358 -959.805)" fill="#d7e9ef"/>
      <path id="Trazado_913003" data-name="Trazado 913003" d="M.064,2158.558q0,.952,0,1.9a7.209,7.209,0,0,1,0-1.9" transform="translate(0 -2133.027)" fill="#fb7b68"/>
      <path id="Trazado_913004" data-name="Trazado 913004" d="M1126.517,3859.744a.233.233,0,0,0-.168-.263,2.5,2.5,0,0,1-.423-.216.153.153,0,0,1-.075-.206.129.129,0,0,1,.182-.045c.337.219.585.016.879-.127a1.4,1.4,0,0,1,1.254.061.465.465,0,0,0,.568-.017c.128-.115.26-.037.39-.005.256.062.506.148.764.2a20.113,20.113,0,0,0,6.065.584,21.729,21.729,0,0,0,6.636-1.391,1.432,1.432,0,0,1,.363-.107,1.706,1.706,0,0,0,.657-.171,1.111,1.111,0,0,1,.535-.083c.516.087.614.21.6.771a18.124,18.124,0,0,1-3.907,1.624,21.747,21.747,0,0,1-6.612.913,22.073,22.073,0,0,1-7.652-1.486.26.26,0,0,1-.056-.041" transform="translate(-1112.518 -3812.321)" fill="#ea362d"/>
      <path id="Trazado_913005" data-name="Trazado 913005" d="M3014.39,977.267l.429.49a21.037,21.037,0,0,1,2.295,3.69,22.317,22.317,0,0,1,1.843,5.282c.038.178.089.352.134.528a3.846,3.846,0,0,1,.169,1.163l.036.146a2.328,2.328,0,0,1,.1,1.033.688.688,0,0,0,.039.369,2.358,2.358,0,0,1,.026.809v1.532a1.916,1.916,0,0,1-.025.744c-.116.839-.171,1.686-.338,2.518a17.631,17.631,0,0,1-.492,2.069c-.016.016-.031.034-.048.049-.1.087-.186.245-.343.161-.133-.071-.084-.224-.071-.348.12-1.156.351-2.3.531-3.443a2.911,2.911,0,0,0,.015-1.027,18.473,18.473,0,0,1-.247-2.162,22.514,22.514,0,0,0-.428-3.547c-.029-.124-.065-.245-.1-.367-.159-.577-.439-1.111-.593-1.692a1.713,1.713,0,0,0-.376-.693,9.82,9.82,0,0,1-.607-1.277,18.113,18.113,0,0,0-3.008-4.535,11.928,11.928,0,0,0-1.375-1.2c-.29-.229-.566-.471-.844-.713-.1-.085-.23-.169-.188-.34a1.3,1.3,0,0,1,.632.4c.57.478,1.126.972,1.68,1.468.163.146.382.2.534.369a.129.129,0,0,0,.227-.093c0-.328.274-.613.13-.967-.1-.234.047-.362.266-.419" transform="translate(-2975.3 -964.958)" fill="#e12d27"/>
      <path id="Trazado_913006" data-name="Trazado 913006" d="M2589.018,1650.145a1.193,1.193,0,0,1,.458.75c.176.631.521,1.206.639,1.846a14.319,14.319,0,0,1,.43,2.81,20.509,20.509,0,0,0,.311,3.118,2.813,2.813,0,0,1,0,1.011c-.142.657-.195,1.333-.313,2a13.354,13.354,0,0,0-.25,1.584c0,.068-.035.134.017.218.137-.014.2-.228.368-.169a7.789,7.789,0,0,1-.384,1.259c-.223,0-.154-.172-.164-.29s.088-.211.056-.407a2.1,2.1,0,0,0-.42,1.155c.145.02.23-.171.364-.053a9.489,9.489,0,0,1-.716,1.816,21.786,21.786,0,0,1-5.74,7.52,24.066,24.066,0,0,1-3.942,2.69.647.647,0,0,1-.131.04c-.034-.157-.26-.262-.107-.478.045-.063-.088-.066-.143-.095a1.157,1.157,0,0,0-1.089.054.73.73,0,0,1-.4.09c-.007-.177.148-.186.255-.231a19.587,19.587,0,0,0,5.48-3.462,18.123,18.123,0,0,0,2.747-3.061,19.722,19.722,0,0,0,1.949-3.306,20.836,20.836,0,0,0,1.951-7.21,19.74,19.74,0,0,0-.981-8.252c-.068-.2-.148-.388-.218-.584-.041-.116-.116-.233-.026-.36" transform="translate(-2547.37 -1630.627)" fill="#dc2e27"/>
      <path id="Trazado_913007" data-name="Trazado 913007" d="M3575.545,2801.662a.312.312,0,0,0-.185.079c-.067.051-.11.188-.209.13s-.086-.165-.061-.279a2.523,2.523,0,0,1,.345-.957c.06-.085.082-.258.234-.171.135.078.091.211.018.331a.334.334,0,0,0,.022.463,1.024,1.024,0,0,1-.164.4" transform="translate(-3532.79 -2767.316)" fill="#e12d27"/>
      <path id="Trazado_913008" data-name="Trazado 913008" d="M3719.754,1996.936q-.049-.517-.1-1.033c.149.333.329.664.1,1.033" transform="translate(-3675.66 -1972.295)" fill="#d7e9ef"/>
      <path id="Trazado_913009" data-name="Trazado 913009" d="M3702.452,1886.378q-.085-.581-.169-1.163a1.887,1.887,0,0,1,.169,1.163" transform="translate(-3658.492 -1862.917)" fill="#d7e9ef"/>
      <path id="Trazado_913010" data-name="Trazado 913010" d="M3731.287,2089.856l-.026-.809c.031-.076-.034-.179.157-.3-.145.415-.009.769-.131,1.113" transform="translate(-3687.128 -2064.037)" fill="#d7e9ef"/>
      <path id="Trazado_913011" data-name="Trazado 913011" d="M3731.264,2313.159q.012-.372.025-.744a1.6,1.6,0,0,1,.031.754s-.019.009-.028.007a.1.1,0,0,1-.029-.017" transform="translate(-3687.13 -2285.064)" fill="#d7e9ef"/>
      <path id="Trazado_913012" data-name="Trazado 913012" d="M486.456,3205.989l-1.111-.274a17.821,17.821,0,0,1-2.765-1.148,18.772,18.772,0,0,1-6.384-5.193.779.779,0,0,0-.134-.107c-.36-.533-.735-1.056-1.074-1.6-.134-.216-.355-.443-.181-.747.245.118.34.368.484.569a19.543,19.543,0,0,0,6.033,5.555,20.716,20.716,0,0,0,3.522,1.6c.141.051.333.042.381.245-.048.366.065.533.424.595.213.036.425.083.633.136.191.049.306.161.17.373" transform="translate(-469.128 -3159.105)" fill="#ce382d"/>
      <path id="Trazado_913013" data-name="Trazado 913013" d="M445.532,3110.428c-.8-.343-1.632-.616-2.426-.983a17.933,17.933,0,0,1-3.7-2.271,19.893,19.893,0,0,1-4.139-4.469c-.051-.076-.094-.158-.141-.237l-.539-.915c.046-.076.052-.181.156-.215.172.058.226.22.306.356a18.535,18.535,0,0,0,2.758,3.609,14.34,14.34,0,0,0,2.188,1.892,18.391,18.391,0,0,0,8.991,3.635.452.452,0,0,1,.229.07c.075.106.122.208-.033.288a2.5,2.5,0,0,1-1.027-.069,16.557,16.557,0,0,1-2.26-.507.576.576,0,0,1-.362-.183" transform="translate(-429.447 -3064.655)" fill="#f47659"/>
      <path id="Trazado_913014" data-name="Trazado 913014" d="M204.027,1825.232c0-.749-.027-1.5.016-2.247a16.055,16.055,0,0,1,.605-3.792c.3.063.273.342.353.549a15.888,15.888,0,0,1-.273,1.592,17.719,17.719,0,0,0-.248,2.738,20.116,20.116,0,0,0,.195,3.266.588.588,0,0,1-.034.339c-.12.146-.223.056-.327-.023a16.388,16.388,0,0,1-.288-2.422" transform="translate(-201.606 -1797.676)" fill="#f7b9a4"/>
      <path id="Trazado_913015" data-name="Trazado 913015" d="M228.671,2534.519l.278.071c.218.068.179.274.205.426a20.586,20.586,0,0,0,1.26,4.333,9.272,9.272,0,0,0,.717,1.491c.049.13.154.245.1.4-.01.089.014.2-.133.2a20.758,20.758,0,0,1-2.428-6.678,1.36,1.36,0,0,1,0-.242" transform="translate(-225.962 -2504.541)" fill="#f99d81"/>
      <path id="Trazado_913016" data-name="Trazado 913016" d="M159.208,1270.906a9.7,9.7,0,0,1,.755-1.832,16.747,16.747,0,0,1,1.113-2.014c.172-.269.306-.246.5-.056s.364.459.7.443a.29.29,0,0,1-.051.2,24.907,24.907,0,0,0-1.895,3.9c-.039.108-.052.259-.221.272-.3-.059-.354.191-.427.372a.657.657,0,0,1-.661.474.315.315,0,0,0-.316.258c-.037.123-.038.281-.192.344a14.188,14.188,0,0,1,.69-2.359" transform="translate(-156.643 -1251.875)" fill="#f96d5b"/>
      <path id="Trazado_913017" data-name="Trazado 913017" d="M257.6,1331.874c.224-.541.438-1.087.676-1.622a22.3,22.3,0,0,1,1.4-2.617,2.5,2.5,0,0,0,.431.275c.006.259-.222.405-.3.625a19.876,19.876,0,0,0-2.008,4.551,2.121,2.121,0,0,1-.344.857c-.12-.149-.1-.377-.281-.493a13.383,13.383,0,0,1,.429-1.576" transform="translate(-254.13 -1311.933)" fill="#f5cec3"/>
      <path id="Trazado_913018" data-name="Trazado 913018" d="M776.512,615.092c.472-.277.94-.562,1.417-.829a13.834,13.834,0,0,1,2.045-.974,2.645,2.645,0,0,1-.666.474c-.239.155-.454.306-.319.662.065.172.042.372-.233.4-.1.01-.223.065-.088.2-.03.207-.218.246-.359.328a13.765,13.765,0,0,0-1.762,1.176c-.2.135-.356.35-.629.36-.536-.165-.739-.478-.585-.9l1.178-.9" transform="translate(-766.113 -606.035)" fill="#f97b6a"/>
      <path id="Trazado_913019" data-name="Trazado 913019" d="M1787.485,554.715a19.268,19.268,0,0,1,2.422.907c.082.17-.048.2-.16.244a.761.761,0,0,1-.333-.076,18.9,18.9,0,0,0-5.969-1.33,1,1,0,0,1-.137-.02c-.347-.1-.715.042-1.059-.092a.613.613,0,0,0-.6-.3c-.252-.014-.522.08-.754-.1,0-.021,0-.043,0-.065a20.749,20.749,0,0,1,6.583.826" transform="translate(-1759.833 -547.326)" fill="#f79175"/>
      <path id="Trazado_913020" data-name="Trazado 913020" d="M878.343,668.9a11.423,11.423,0,0,1,1.793-1.2c.128-.073.248-.161.372-.242.757-.368,1.5-.76,2.295-1.054.063-.023.129-.038.193-.057.22.061.174.236.17.394-.156.21-.411.245-.628.339a19.1,19.1,0,0,0-2.7,1.46,9.439,9.439,0,0,0-.856.57c-.108.077-.207.189-.364.152a1.311,1.311,0,0,0-.275-.36" transform="translate(-867.954 -658.462)" fill="#f6ddd7"/>
      <path id="Trazado_913021" data-name="Trazado 913021" d="M1271.9,584.76c-.046-.132-.032-.285-.131-.4a13.952,13.952,0,0,1,2.717-.829,3.235,3.235,0,0,1,.878-.15c.3.047.184.226.123.388a.4.4,0,0,1-.271.131,21.809,21.809,0,0,0-2.988.844c-.1.04-.214.1-.328.016" transform="translate(-1256.724 -576.479)" fill="#f7c2b2"/>
      <path id="Trazado_913022" data-name="Trazado 913022" d="M1575.774,560.377c.005-.126.128-.277-.077-.357a11.06,11.06,0,0,1,2.427-.274,7.23,7.23,0,0,1,.968.019c.138.019.5-.063.347.324a.409.409,0,0,1-.35.111,17.871,17.871,0,0,0-2.924.249.416.416,0,0,1-.391-.072" transform="translate(-1557.06 -553.118)" fill="#f7ab96"/>
      <path id="Trazado_913023" data-name="Trazado 913023" d="M2899.7,909.317a20,20,0,0,1,1.13,4,12.684,12.684,0,0,1,.254,2.25,30.319,30.319,0,0,1-.072,3.277,23.564,23.564,0,0,1-.745,3.77,22.442,22.442,0,0,1-1.023,2.779,1.109,1.109,0,0,1-.237.416,12.2,12.2,0,0,1-.943,1.639,9.788,9.788,0,0,1-1.491,1.957.884.884,0,0,0-.227.3c-.053.111-.138.205-.264.189a.571.571,0,0,0-.567.309,1.368,1.368,0,0,1-.447.318c-.55.334-1.028.773-1.592,1.084-.324.179-.563.474-.893.645-.127.066-.243.167-.321-.048.175-.371.539-.558.825-.813a20.306,20.306,0,0,0,6.472-11.452,18.713,18.713,0,0,0,.321-3.263,20.646,20.646,0,0,0-2.337-9.862,18.548,18.548,0,0,0-2.844-3.991,21.7,21.7,0,0,0-2.2-2.055c-.1-.083-.251-.139-.228-.315a7.3,7.3,0,0,1,1.4.9,3.382,3.382,0,0,0,.9.845,14.1,14.1,0,0,1,4.051,4.882,23.568,23.568,0,0,1,1.074,2.241" transform="translate(-2858.048 -889.799)" fill="#c3261e"/>
      <path id="Trazado_913024" data-name="Trazado 913024" d="M2535.281,703.712a26.357,26.357,0,0,1,2.19,2c.086.093.17.188.255.281-.164.107-.29-.034-.433-.066a1.187,1.187,0,0,1-.371-.3,16.657,16.657,0,0,0-3.259-2.573,20.306,20.306,0,0,0-2.343-1.247c-.124-.051-.307-.05-.324-.249.043-.07.15-.1.137-.2a10.321,10.321,0,0,1,1.178.55c.114.051.231.094.347.141l2.623,1.664" transform="translate(-2501.06 -693.061)" fill="#f36d55"/>
      <path id="Trazado_913025" data-name="Trazado 913025" d="M473.511,882.368c.249-.013.306.132.282.343-.019.152-.138.229-.244.311-.3.229-.582.469-.856.723a9.267,9.267,0,0,0-.87.83.51.51,0,0,0-.156.37,1.741,1.741,0,0,1-1.4,1.765.766.766,0,0,0-.438.314,7.557,7.557,0,0,0-.525.666c-.064.089-.107.206-.242.215a.308.308,0,0,1-.4-.272l.094-.132a4.882,4.882,0,0,0,.466-.692l.272-.352a1.551,1.551,0,0,1,1.243-1.961,1.023,1.023,0,0,0,.36-.106,4.9,4.9,0,0,0,.908-.834,2.637,2.637,0,0,1,.974-.828l.529-.361" transform="translate(-463.122 -871.93)" fill="#fcf9f9"/>
      <path id="Trazado_913026" data-name="Trazado 913026" d="M597.081,842.708a10.5,10.5,0,0,1-.974.828,5.788,5.788,0,0,0-.959.036c-.318.062-.564.289-.9.32a13.257,13.257,0,0,1,2.191-2.025c.007.49.146.673.64.841" transform="translate(-587.221 -831.909)" fill="#f99281"/>
      <path id="Trazado_913027" data-name="Trazado 913027" d="M528.14,1053.312c-.063.119-.181.125-.294.143a1.557,1.557,0,0,0-1.261,1.842c0,.024-.032.055-.049.083a1.4,1.4,0,0,1,.557-1.784,2,2,0,0,1,1.047-.283" transform="translate(-520.162 -1040.852)" fill="#f9cbc2"/>
      <path id="Trazado_913028" data-name="Trazado 913028" d="M1366.017,3050.692c.071.153.137.083.233.012.4-.3.8-.6,1.225-.868.549-.342,1.031-.781,1.608-1.082a.724.724,0,0,0,.2-.232c.112-.155.219-.294.449-.2a.179.179,0,0,0,.24-.082,5.925,5.925,0,0,1,.919-1.079,1.706,1.706,0,0,0,.185-.288c.139-.261.232-.551.523-.705a.46.46,0,0,0,.15-.225c.235-.549.674-.982.886-1.545.014-.036.069-.057.1-.085a15.189,15.189,0,0,1-1.388,2.5,18.21,18.21,0,0,1-3.235,3.8,18.428,18.428,0,0,1-5.072,3.293c-.262.112-.513.252-.769.38-.294.094-.592.177-.882.284a21.582,21.582,0,0,1-4.915,1.112,20.041,20.041,0,0,1-3.407.115,17.376,17.376,0,0,1-3.96-.612c.026-.176-.044-.309-.223-.308-.231,0-.431-.117-.664-.116-.258,0-.39-.207-.474-.43-.045-.118-.049-.229.118-.256.735.173,1.466.361,2.2.514a6.513,6.513,0,0,0,1.46.184c.8-.039,1.605.052,2.41.047a19.421,19.421,0,0,0,11.376-3.728c.217-.154.392-.4.7-.407" transform="translate(-1331.784 -3008.308)" fill="#c82820"/>
      <path id="Trazado_913029" data-name="Trazado 913029" d="M491.054,2876.5a14.549,14.549,0,0,1-3.266-.622,19.188,19.188,0,0,1-4.754-2.155c-.44-.267-.842-.6-1.261-.9a1.231,1.231,0,0,0-.229-.256c-.22-.2-.206-.318.051-.471.119-.071.255-.106.378-.168a.412.412,0,0,0,.154-.66,3.156,3.156,0,0,0-.336-.347,24.551,24.551,0,0,1-3.061-3.461,21.06,21.06,0,0,1-1.179-1.908c-.178-.356-.388-.7-.533-1.07-.044-.113-.127-.227-.015-.347a1.094,1.094,0,0,1,.737.112c.369.571.656,1.19,1.018,1.766.271.43.546.856.847,1.265.107.156.224.306.34.455a1.951,1.951,0,0,0,.3.364,17.482,17.482,0,0,0,3.413,3.068,16.931,16.931,0,0,0,5.364,2.433.573.573,0,0,1,.34.156,4.754,4.754,0,0,0,2.477.921.7.7,0,0,1,.551.144.264.264,0,0,1-.1.363c-.438.3-.43.8-.565,1.237-.02.064-.008.137-.07.185a.677.677,0,0,1-.609-.1" transform="translate(-471.306 -2830.23)" fill="#f54739"/>
      <path id="Trazado_913030" data-name="Trazado 913030" d="M429.24,2985.722a29.4,29.4,0,0,0,1.777,2.653,32.711,32.711,0,0,0,2.7,2.9c.389.391.306.767-.21.962-.5.187-.5.186-.169.607a.584.584,0,0,1,.061.157,14.194,14.194,0,0,1-2.155-1.867,18.516,18.516,0,0,1-2.806-3.686c-.069-.118-.155-.226-.232-.338l-.146-.339a.738.738,0,0,1-.027-.534.254.254,0,0,1,.368-.184c.58.174.581.17.84-.327" transform="translate(-422.931 -2950.407)" fill="#fa5342"/>
      <path id="Trazado_913031" data-name="Trazado 913031" d="M1669.432,3191.852c.217-.046.415.091.63.062a.415.415,0,0,1,.327-.075,19.3,19.3,0,0,0,9.359-1.718,8.769,8.769,0,0,0,1.175-.584,17.443,17.443,0,0,0,3.238-2.172,19.8,19.8,0,0,0,3.441-3.676c.151-.2.239-.533.614-.432a15.107,15.107,0,0,1-1.571,2.085,19.433,19.433,0,0,1-2.1,2.1c-.207.181-.42.355-.63.533a19.966,19.966,0,0,1-7.626,3.706,20.516,20.516,0,0,1-5.881.5,2.538,2.538,0,0,1-.976-.123c.079-.07-.018-.137,0-.206" transform="translate(-1649.685 -3145.586)" fill="#e1594b"/>
      <path id="Trazado_913032" data-name="Trazado 913032" d="M237.317,2172.057c-.011.571-.193.693-.721.486-.377-.147-.409-.128-.454.284-.01.091-.005.184-.007.275a9.483,9.483,0,0,1-1.043-2.238,19.579,19.579,0,0,1-1.036-3.954.419.419,0,0,0-.061-.118,24.164,24.164,0,0,1-.213-3.257c.006-.138.007-.276.01-.414a1.057,1.057,0,0,0,.2-.538c.046-.19.143-.312.365-.248.257.075.557-.048.783.172a1.192,1.192,0,0,1,.061.577,18.287,18.287,0,0,0,1.44,7.259c.043.1.107.207.055.329.133.5.462.9.624,1.386" transform="translate(-231.008 -2136.742)" fill="#f95f4e"/>
      <path id="Trazado_913033" data-name="Trazado 913033" d="M236.511,1380.585c-.266-.085-.547.02-.82-.086-.2-.079-.186.13-.213.251-.04.185.036.434-.27.462a18.406,18.406,0,0,1,.515-4.165c.014-.067.016-.136.024-.2a20.435,20.435,0,0,1,1.945-4.878c.113-.2.236-.394.354-.591a1.26,1.26,0,0,1,1.444-.174c.1.147.006.265-.067.377a18.41,18.41,0,0,0-2.482,6.192,18.876,18.876,0,0,0-.33,2.429c-.011.135.02.281-.1.388" transform="translate(-232.424 -1354.832)" fill="#f96b59"/>
      <path id="Trazado_913034" data-name="Trazado 913034" d="M476.754,1268.22a1.879,1.879,0,0,0-1.454.137l.322-.565a4.768,4.768,0,0,1,.7-.9,4.827,4.827,0,0,1,1.325-.051c.187.106.053.216-.008.307-.171.256-.371.492-.545.746-.113.11-.135.314-.339.331" transform="translate(-469.678 -1251.816)" fill="#f88570"/>
      <path id="Trazado_913035" data-name="Trazado 913035" d="M935.814,589.434c.73-.062,1.451-.2,2.184-.249.495-.034.988-.013,1.481-.039.369.054.752-.079,1.114.076a1.389,1.389,0,0,1-.617.361.942.942,0,0,0-.7.774c-.034.2-.147.264-.33.271a2.3,2.3,0,0,0-.651.045,18.009,18.009,0,0,0-4.288.729,17.556,17.556,0,0,0-5.412,2.654c-.144.106-.269.262-.481.234-.078-.114-.014-.221.017-.329a1.384,1.384,0,0,0,.091-.4,1.517,1.517,0,0,1,.724-1.366,16.759,16.759,0,0,1,3.327-1.734,25.958,25.958,0,0,1,3.541-1.022" transform="translate(-917.099 -582.175)" fill="#fa6e5a"/>
      <path id="Trazado_913036" data-name="Trazado 913036" d="M1792.6,597.119c.213-.129.447-.04.67-.065.111-.013.182.014.2-.175a.909.909,0,0,1,.547-.775c.29-.123.58-.244.871-.366a18.22,18.22,0,0,1,6.091,1.312c.118.046.235.094.352.142a21.388,21.388,0,0,1,2.405,1.239c.107.063.241.087.3.217-.152.1-.288.008-.423-.042-.643-.237-.828-.181-1.21.38-.214.315-.332.357-.689.243a3.544,3.544,0,0,1-.472-.211,16.517,16.517,0,0,0-4.134-1.417,16.035,16.035,0,0,0-3.951-.373c-.19.006-.4.049-.559-.108" transform="translate(-1771.396 -588.691)" fill="#f75241"/>
      <path id="Trazado_913037" data-name="Trazado 913037" d="M781.908,846.775c-.116.241-.383.363-.48.625a1.558,1.558,0,0,0-.141.634,2.423,2.423,0,0,1-.207.828c-.02.123-.116.191-.2.271-.4.331-.79.67-1.163,1.03-.095.092-.188.268-.369.114-.139-.22-.043-.453-.02-.675a3.353,3.353,0,0,1,.285-1.1,12.17,12.17,0,0,1,1.115-.964,12.3,12.3,0,0,1,1.176-.765" transform="translate(-770.061 -836.759)" fill="#f98d78"/>
      <path id="Trazado_913038" data-name="Trazado 913038" d="M2513.23,1626.636c-.278.01-.381.245-.511.423a19.267,19.267,0,0,1-2.577,2.966,20.78,20.78,0,0,1-3.708,2.742,3.9,3.9,0,0,1-.41.176c-.177.049-.338.14-.511.2a.913.913,0,0,1-1.188-.723.354.354,0,0,1,.2-.369c.469-.267.857-.654,1.349-.887a.947.947,0,0,0,.5-.494,3.314,3.314,0,0,1,.785-.615,15.347,15.347,0,0,0,2.154-1.838,18.047,18.047,0,0,0,3.073-4.157c.011-.02.024-.039.036-.059a17.9,17.9,0,0,0,2.008-6.371,4.535,4.535,0,0,1,.045-.517,18.154,18.154,0,0,0-.615-6.537.836.836,0,0,1-.065-.438c.153-.2.247-.026.37.064a8.741,8.741,0,0,1,.137-1.575.44.44,0,0,0,.009-.068c.038-.218.08-.461.3-.548s.333.148.481.264a4.117,4.117,0,0,1,.447,1.082,20.425,20.425,0,0,1,.971,6.01.748.748,0,0,0,.1.463,19.972,19.972,0,0,1-2.2,8.836,11.073,11.073,0,0,1-1.187,1.976" transform="translate(-2474.699 -1588.966)" fill="#dc2e27"/>
      <path id="Trazado_913039" data-name="Trazado 913039" d="M3069.72,1096.082a.373.373,0,0,1-.205-.4,19.861,19.861,0,0,0-.934-5.957c-.124-.405-.3-.795-.452-1.192a10.457,10.457,0,0,1-.565-1.219,19.008,19.008,0,0,0-3.206-4.768c-.074-.194-.334-.276-.318-.525l.424.138a15.492,15.492,0,0,1,2.131,2.695,19.653,19.653,0,0,1,2.593,6.28,17.4,17.4,0,0,1,.477,3.571c.006.456.052.916.054,1.375" transform="translate(-3027.799 -1069.224)" fill="#e65540"/>
      <path id="Trazado_913040" data-name="Trazado 913040" d="M2189.754,751.982c.081.187.326.255.348.484a.8.8,0,0,0-.6.478.5.5,0,0,1-.247.281c-.249.079-.282.268-.3.477-.171.075-.248-.061-.323-.16a6.319,6.319,0,0,0-.577-.615,17.7,17.7,0,0,0-2.934-2.357,1.719,1.719,0,0,0-1-.36c.193.2.407.3.572.451.1.1.3.164.2.377-.168.041-.286-.072-.407-.148a16.982,16.982,0,0,0-4.065-1.849,4.141,4.141,0,0,1-.847-.284,1.053,1.053,0,0,1-.269-.726,9.511,9.511,0,0,1,2.221.6,15.75,15.75,0,0,1,2.154.925c.448.232.5.2.8-.215a.859.859,0,0,1,1.259-.344c.137.057.282.1.423.142a15.277,15.277,0,0,1,2.164,1.506c.517.405.938.912,1.437,1.336" transform="translate(-2153.512 -739.184)" fill="#f14437"/>
      <path id="Trazado_913041" data-name="Trazado 913041" d="M564.525,992.983c.01.486-.225.932-.231,1.42a2.249,2.249,0,0,0,.037.4c0,.011.011.026.007.033a5.055,5.055,0,0,1-1.332,1.485,4.372,4.372,0,0,0-.973.064.5.5,0,0,1-.422-.074c.093-.266.331-.331.563-.4a1.608,1.608,0,0,0,1.249-1.64.528.528,0,0,1,.169-.428,6.3,6.3,0,0,1,.933-.859" transform="translate(-554.968 -981.238)" fill="#f8ac99"/>
      <path id="Trazado_913042" data-name="Trazado 913042" d="M1732.414,3523.33c-.03.359-.323.482-.583.608-.488.236-.862.637-1.343.884-.117.06-.233.232-.035.359.146.093.043.277.188.382a.812.812,0,0,0,.891.133.889.889,0,0,1,.466-.086,11.723,11.723,0,0,1-2.52,1.188,19.127,19.127,0,0,1-4.367,1.082,20.686,20.686,0,0,1-3.48.146,4.44,4.44,0,0,0-.58-.066,1.715,1.715,0,0,1,.474-1.374c.133-.088.233-.181.217-.354.165-.151.37-.108.56-.1a17.931,17.931,0,0,0,3.946-.368,16.551,16.551,0,0,0,3.762-1.238,16.059,16.059,0,0,0,2.06-1.1c.1-.065.2-.164.343-.095" transform="translate(-1700.674 -3481.633)" fill="#e5362d"/>
      <path id="Trazado_913043" data-name="Trazado 913043" d="M411.738,756.892a17.145,17.145,0,0,1,4.768,1.98c.185.112.374.215.562.323a2.716,2.716,0,0,1,.783.477,17.491,17.491,0,0,1,1.7,1.388,14.322,14.322,0,0,1,2,2.275,16.081,16.081,0,0,1,1.447,2.263.7.7,0,0,1,.087.223,1.454,1.454,0,0,0,.477.927,14.425,14.425,0,0,1,.563,1.352.644.644,0,0,1,.065.364c-.089.168-.21.087-.326.04a1.155,1.155,0,0,1-.251-.484,15.681,15.681,0,0,0-2.871-4.955,1.145,1.145,0,0,1-.084-.11,17.8,17.8,0,0,0-4.795-4.035,15.843,15.843,0,0,0-6.106-2.007,16.336,16.336,0,0,0-2.173-.133,16.51,16.51,0,0,0-5.85,1.1,17.08,17.08,0,0,0-5.508,3.389,15.994,15.994,0,0,0-2.671,3.2,17.931,17.931,0,0,0-2.607,6.987,16.471,16.471,0,0,0,.281,6.285,21.772,21.772,0,0,0,1.084,3.209,18.853,18.853,0,0,0,2.3,3.77.843.843,0,0,1,.172.3c-.01.143-.067.236-.23.214a.707.707,0,0,1-.277-.347c.053-.273-.146-.345-.339-.422a16.516,16.516,0,0,1-1.816-3.041.978.978,0,0,1-.284-.386,18.672,18.672,0,0,1-1.4-5.087,17.593,17.593,0,0,1,1.107-8.623,15.381,15.381,0,0,1,2.279-4.057,18.545,18.545,0,0,1,2.463-2.743,17.207,17.207,0,0,1,8.011-3.884,16.925,16.925,0,0,1,4.235-.324,18.5,18.5,0,0,1,2.811.375.736.736,0,0,1,.4.191" transform="translate(-385.679 -747.358)" fill="#ae1d0e"/>
      <path id="Trazado_913044" data-name="Trazado 913044" d="M779.1,1784.243c.089-.031.182.081.27-.005.2.042.211.229.256.373a16.5,16.5,0,0,1,.659,3.352,15.451,15.451,0,0,1-.047,3.722,17.39,17.39,0,0,1-1.738,5.861,18.374,18.374,0,0,1-3,4.295,17.9,17.9,0,0,1-9.634,5.16,18.271,18.271,0,0,1-3.932.209,10.341,10.341,0,0,1-2.7-.372.8.8,0,0,1-.309-.146c-.891-.292-1.8-.526-2.668-.9a17.592,17.592,0,0,1-4.128-2.467,14.889,14.889,0,0,1-2.357-2.313l.212-.185.04-.036c.214.069.316.264.449.416a15.928,15.928,0,0,0,9.386,5.276,16.519,16.519,0,0,0,11.549-2.007,16.007,16.007,0,0,0,4.01-3.262,18.031,18.031,0,0,0,3.371-5.515,17.111,17.111,0,0,0,1.041-4.673,16.833,16.833,0,0,0-.551-5.85,2.813,2.813,0,0,0-.157-.584c-.032-.116-.1-.23-.025-.354" transform="translate(-740.911 -1763.134)" fill="#c0221c"/>
      <path id="Trazado_913045" data-name="Trazado 913045" d="M349.367,1339.735a20.456,20.456,0,0,0-1.537,2.409,18.6,18.6,0,0,0-1.837,5.82,15.18,15.18,0,0,0-.139,3.3,18.472,18.472,0,0,0,1.71,6.628l-.752-.142a17.278,17.278,0,0,1-1.383-4.638,19.594,19.594,0,0,1-.214-3.538,18.294,18.294,0,0,1,1.451-6.428,22.706,22.706,0,0,1,1.538-2.92l.272-.351c.288-.108.56-.312.892-.142" transform="translate(-341.127 -1323.824)" fill="#de412e"/>
      <path id="Trazado_913046" data-name="Trazado 913046" d="M1523.011,3682.618a18.12,18.12,0,0,0,5.226.409c.593-.022,1.183-.127,1.774-.195a.97.97,0,0,1,.619.41,8.707,8.707,0,0,1-1.916.342,21.379,21.379,0,0,1-2.656.075,3.3,3.3,0,0,0-1.019-.119,3.658,3.658,0,0,1-1.42-.54c-.13-.072-.276-.113-.405-.186-.08-.046-.244-.022-.2-.2" transform="translate(-1504.99 -3639.06)" fill="#f87657"/>
      <path id="Trazado_913047" data-name="Trazado 913047" d="M697.751,3131.572c.241-.205.26.074.351.17.066.07.218.181-.012.252a1.71,1.71,0,0,1-.339-.422" transform="translate(-689.498 -3094.459)" fill="#c0221c"/>
      <path id="Trazado_913048" data-name="Trazado 913048" d="M622.066,1044.1c-.311-.038-.579.192-.892.142.183-.358.478-.635.691-.972l1.325-1.518c.37-.34.743-.677,1.11-1.021a1.358,1.358,0,0,1,.335-.236c.169.194.052.387-.01.575a1.862,1.862,0,0,1-.2.4,16.987,16.987,0,0,0-1.8,1.942l-.564.69" transform="translate(-613.827 -1028.192)" fill="#df5f52"/>
      <path id="Trazado_913049" data-name="Trazado 913049" d="M896.216,716.628c-.015-.342.282-.617.206-.972l.212-.205a19.047,19.047,0,0,1,3.334-2.009,17.864,17.864,0,0,1,4.762-1.46,11.92,11.92,0,0,1,2.087-.2c.642,0,1.287-.029,1.926.013a11.3,11.3,0,0,1,2.651.406l.279.686a17,17,0,0,0-4.96-.468,18.057,18.057,0,0,0-5.912,1.368,17.079,17.079,0,0,0-4.471,2.773.883.883,0,0,1-.116.072" transform="translate(-885.615 -703.349)" fill="#dd3c2d"/>
      <path id="Trazado_913050" data-name="Trazado 913050" d="M2990.267,1121.754c-.06-.253-.111-.47.267-.545.137-.027.291-.248.334-.407.093-.347.3-.358.579-.3a7.172,7.172,0,0,1,1.279,1.478,18.612,18.612,0,0,1,2.386,4.254.608.608,0,0,1,.075.3.206.206,0,0,1-.066-.016c-.109-.072-.186-.278-.32-.2a.624.624,0,0,0-.234.432,9.372,9.372,0,0,0-.125,1.976c-.215-.076-.175-.4-.432-.387-.163.009-.17-.133-.2-.23a22.611,22.611,0,0,0-.852-2.131,17.833,17.833,0,0,0-1.423-2.442c-.356-.51-.741-1-1.131-1.48-.069-.085-.176-.159-.136-.3" transform="translate(-2954.857 -1107.223)" fill="#e6362d"/>
      <path id="Trazado_913051" data-name="Trazado 913051" d="M2438.269,2918.581a17.251,17.251,0,0,0,8.524-7.946c.043-.081.093-.158.139-.237.23.173.149.466.264.683a17.6,17.6,0,0,1-5.661,6.333c-.123.085-.245.171-.368.257a16.444,16.444,0,0,1-2.354,1.252c-.223-.048-.485-.034-.545-.342" transform="translate(-2409.429 -2875.974)" fill="#fbae9b"/>
      <path id="Trazado_913052" data-name="Trazado 913052" d="M3183.491,1580.315c.377.785.655,1.611.981,2.416.166.738.395,1.462.52,2.21.118.7.179,1.411.253,2.119a18.873,18.873,0,0,1-.011,2.38c0,.124.031.256-.063.365-.133.078-.108.219-.133.338a1.236,1.236,0,0,1-.114.361c-.045.081-.094.163-.213.131a.18.18,0,0,1-.136-.209.443.443,0,0,0-.019-.2,18.655,18.655,0,0,0,.122-2.443,18.176,18.176,0,0,0-.77-4.777,2.359,2.359,0,0,0-.127-.278c-.154-.6-.45-1.14-.644-1.721a.414.414,0,0,1-.172-.352c.123-.192.258-.366.524-.335" transform="translate(-3145.318 -1561.619)" fill="#f68262"/>
      <path id="Trazado_913053" data-name="Trazado 913053" d="M3172.458,2383.352c.115.091-.019.366.188.341.189-.022.165-.265.2-.417s-.03-.341.222-.341a15.71,15.71,0,0,1-1.207,5.1,9.837,9.837,0,0,1-.878,1.826c-.322-.137-.13-.473-.264-.683a19.594,19.594,0,0,0,1.407-3.956,16.833,16.833,0,0,0,.328-1.865" transform="translate(-3133.219 -2354.749)" fill="#f69279"/>
      <path id="Trazado_913054" data-name="Trazado 913054" d="M2863.847,1147.486a1.7,1.7,0,0,0-.476.34c-.243-.106-.276-.342-.346-.555a18.8,18.8,0,0,0-3.528-4.72c.066-.3.28-.27.494-.21a1.246,1.246,0,0,1,.264.147c.342.212.513.6.83.833a19.224,19.224,0,0,1,2.762,4.164" transform="translate(-2825.675 -1128.79)" fill="#f66a4d"/>
      <path id="Trazado_913055" data-name="Trazado 913055" d="M2579,926.414c-.255,0-.531-.272-.758.062-.767-.7-1.6-1.307-2.433-1.924-.177-.336-.549-.444-.806-.687-.048-.046-.141-.07-.126-.146.022-.109.128-.069.2-.076a.825.825,0,0,1,.465.113,13.861,13.861,0,0,1,3.455,2.657" transform="translate(-2544.422 -912.717)" fill="#f75241"/>
      <path id="Trazado_913056" data-name="Trazado 913056" d="M2119.216,3602.218c.123.207.392.183.545.342a13.434,13.434,0,0,1-3.745,1.234c-.25-.072-.393-.3-.619-.411a21.938,21.938,0,0,0,3.819-1.166" transform="translate(-2090.376 -3559.611)" fill="#fa8c71"/>
      <path id="Trazado_913057" data-name="Trazado 913057" d="M423.327,811.915a7.132,7.132,0,0,1-.621-1.489,16.965,16.965,0,0,1-.848-3.682,14.913,14.913,0,0,1-.12-2.548,17.582,17.582,0,0,1,1.355-6.085,16.484,16.484,0,0,1,7.586-8.448,17.375,17.375,0,0,1,4.84-1.756,16.04,16.04,0,0,1,4.187-.3,16.348,16.348,0,0,1,6.854,1.907,18.122,18.122,0,0,1,5.192,4.23.4.4,0,0,1,.044.092c-.19.179-.288-.018-.383-.112a28.455,28.455,0,0,0-2.3-2.023,23.33,23.33,0,0,0-2.118-1.414,3.15,3.15,0,0,0-.624-.359c-.189-.109-.4-.176-.592-.272a16.184,16.184,0,0,0-5.247-1.462,19.763,19.763,0,0,0-3.52.018,15.7,15.7,0,0,0-4.676,1.21,17.184,17.184,0,0,0-3.725,2.184,15.221,15.221,0,0,0-2.636,2.541,1.966,1.966,0,0,1-.155.186,2.954,2.954,0,0,0-.959,1.831c-.312.631-.738,1.2-1,1.858a14.012,14.012,0,0,0-1.088,3.007,18.669,18.669,0,0,0-.52,3.348,1.453,1.453,0,0,0,.037.584c.022.087.116.156.066.261a1.226,1.226,0,0,0-.09.838,19.74,19.74,0,0,0,1.263,5.491.521.521,0,0,1,.036.168c-.024.131-.09.212-.237.19" transform="translate(-416.738 -778.264)" fill="#cb5a21"/>
      <path id="Trazado_913058" data-name="Trazado 913058" d="M2227.548,953.482c.184.094.4.115.556.274a1.183,1.183,0,0,0,.624.349,18.321,18.321,0,0,1,3.463,2.52c.365.333.726.668,1.075,1.018.068.068.13.134.235.074a15.68,15.68,0,0,1,2.925,4.989c.067.183.141.363.211.544a5.161,5.161,0,0,1,.257.905c-.223.072-.249-.123-.3-.243a17.891,17.891,0,0,0-2.052-3.558,9.448,9.448,0,0,0-.672-.834,15.622,15.622,0,0,0-1.731-1.774,18.884,18.884,0,0,0-3.835-2.651c-.15-.08-.327-.124-.428-.281-.038-.168.082-.291.146-.459-.151.122-.2.308-.376.359a.745.745,0,0,1-.457-.125,16.121,16.121,0,0,0-2.106-.758c-.123-.037-.286-.032-.326-.207a.294.294,0,0,1,.454-.153.389.389,0,0,0,.331.033,1.94,1.94,0,0,1,1.093.008,1.473,1.473,0,0,0,.914-.03" transform="translate(-2198.442 -942.139)" fill="#e4844a"/>
      <path id="Trazado_913059" data-name="Trazado 913059" d="M557.119,2833.486l.2-.138a3.136,3.136,0,0,1,.57.948,2.559,2.559,0,0,0,.575.868c.31.456.488.984.789,1.447.069.105.128.218.2.323.054.188.3.323.158.564v.033a16.785,16.785,0,0,1-2.491-4.046" transform="translate(-550.529 -2799.835)" fill="#d86539"/>
      <path id="Trazado_913060" data-name="Trazado 913060" d="M3157.261,1562.429l.346.555.123.347a1.072,1.072,0,0,1-.47-.9" transform="translate(-3119.911 -1543.948)" fill="#c0221c"/>
      <path id="Trazado_913061" data-name="Trazado 913061" d="M749.912,2587.233c.029-.221-.21-.337-.214-.545.155-.108.288.006.421.053a1.179,1.179,0,0,0,.806.052.992.992,0,0,1,.79.166.813.813,0,0,0,.584.143c.29-.059.354.189.462.369.138.01.214-.13.342-.141.162-.017.237-.168.365-.238a.255.255,0,0,1,.316,0c.106.1.041.2,0,.311-.074.193-.342.287-.275.547.312-.015.377-.31.546-.483.053-.054.04-.157.111-.21.213-.129.347-.028.423.166a1,1,0,0,1,.06.628,1.307,1.307,0,0,1-.229.42c-.03.051-.14.125.006.176a.9.9,0,0,0,.422-.339c.068-.082.16-.153.268-.093.127.07.06.174.016.268a1.443,1.443,0,0,0-.1.633.126.126,0,0,0,.176.083.765.765,0,0,0,.491-.445c.063-.17.119-.316-.01-.481-.061-.079-.107-.192-.005-.28a.2.2,0,0,1,.256.014c.147.1.271.113.374-.064.059-.1.14-.2.272-.172s.177.164.179.3a.349.349,0,0,1-.026.093,1.79,1.79,0,0,0-.248.512c-.288.608-.609,1.2-.923,1.795.681-1.15,1.318-2.324,1.954-3.5.811-1.5,1.649-2.983,2.467-4.478.287-.525.577-1.05.862-1.576.06-.111.108-.28.3-.185a1.2,1.2,0,0,1,.137.564c.42,2.871.853,5.741,1.265,8.613a1.658,1.658,0,0,0,.042.238c.089.819.272,1.627.3,2.292.092-.994.3-2.136.461-3.284.38-2.7.795-5.39,1.155-8.091a1.666,1.666,0,0,1,.091-.4c.191-.219.233.027.28.111.3.534.6,1.068.883,1.607.928,1.741,1.9,3.459,2.853,5.184.525.945,1.043,1.894,1.584,2.829-1.075-2-2.2-3.966-3.265-5.968-.672-1.262-1.354-2.52-2.023-3.783a.786.786,0,0,1-.155-.45c.147-.229.263-.025.358.044.859.623,1.729,1.229,2.6,1.828,1.075.736,2.156,1.462,3.23,2.2.112.077.219.16.276.208-.5-.686-1.052-1.407-1.578-2.148-.051-.072-.119-.15-.045-.249.339-.288.708-.143,1.046-.031.241.08.49.125.727.215a.382.382,0,0,0,.335-.033c.32-.19.717-.273.9-.66a.289.289,0,0,1,.328-.139,1.442,1.442,0,0,1,.372.076,11.13,11.13,0,0,1,1.532.711.478.478,0,0,1,.276.512.419.419,0,0,0,.272.5,1.089,1.089,0,0,1,.2.14c.125.1.317.178.305.35-.014.206-.262.134-.384.227-.216.027-.348-.124-.5-.234-.128-.1-.157.011-.187.1-.042.121-.077.268-.215.288-.288.041-.3.232-.288.451s-.026.373-.274.447c-.231.069-.125.23-.028.346a6.976,6.976,0,0,1,.486.532c.184.27.155.339-.176.44-.29-.055-.445-.309-.712-.471.134.167.3.274.344.459.017.23.187.3.372.343.342.086.392.164.275.492-.058.163-.092.332-.151.494-.023.063-.064.141,0,.194.076.068.153,0,.217-.04.185-.117.36-.26.6-.164a.246.246,0,0,1,.128.11,12.369,12.369,0,0,1-2.106,1.986,16.665,16.665,0,0,1-7.429,3.326,17.126,17.126,0,0,1-5.708.042,16.521,16.521,0,0,1-10.241-5.845" transform="translate(-740.832 -2549.57)" fill="#fe9c54"/>
      <path id="Trazado_913062" data-name="Trazado 913062" d="M2196.84,1482.521c.34-.086.243-.26.083-.436-.139-.153-.293-.291-.433-.443-.225-.244-.186-.421.127-.508.135-.038.157-.109.156-.221,0-.138,0-.276,0-.413,0-.118.046-.246.156-.221.326.076.314-.164.376-.35.079-.239.18-.249.292-.019.04.322.371.288.559.493-.028-.132-.142-.161-.135-.259.075-.159.243-.1.383-.156a1.686,1.686,0,0,0-.611-.492c-.215-.116-.314-.264-.226-.5a.316.316,0,0,0-.155-.412,7.533,7.533,0,0,0-1.912-.822c-.121-.028-.252-.042-.3.093-.173.535-.7.571-1.1.763-.229.11-.533-.067-.748-.164a1.567,1.567,0,0,0-1.229-.091c-.145.017-.2-.106-.259-.192-.818-1.12-1.651-2.23-2.443-3.369a.647.647,0,0,1-.159-.337c.025-.083.088-.1.163-.093.489.2.966.435,1.439.67,2.208,1.1,4.438,2.148,6.63,3.277.223.115.489.149.665.352a4.187,4.187,0,0,0-.18.548.7.7,0,0,0,.749.341c.095-.08.2-.151.129-.306-.04-.084-.022-.155.089-.169a11.156,11.156,0,0,1,1.055.458,12.794,12.794,0,0,0-1.617-.862c-1.874-.894-3.727-1.827-5.571-2.782-.89-.461-1.785-.915-2.687-1.355-.085-.041-.336-.041-.164-.266a9.66,9.66,0,0,1,1.766-.3q3.954-.545,7.909-1.083a13.114,13.114,0,0,1,2.057-.222.8.8,0,0,1-.133,0c-.645-.021-1.281-.134-1.921-.193-1.864-.22-3.7-.606-5.564-.845-1.351-.174-2.693-.41-4.043-.592a.421.421,0,0,1-.256-.088c-.047-.233.163-.253.289-.318.994-.513,2-.995,3-1.5,1.583-.8,3.189-1.564,4.779-2.354.677-.336,1.361-.656,2.03-.984a13.57,13.57,0,0,1-1.291.53.461.461,0,0,1-.186-.53c.021-.09.108-.127.166-.2-.244.119-.474.243-.7.377-.362-.315-.338-.54.03-.809.221-.162.567-.259.5-.655-.008-.048.032-.083.073-.109.3-.192.35-.312.21-.63a.452.452,0,0,1,.164-.653,16.88,16.88,0,0,1,2.745,4.43c.046.11.07.253.227.279a16.062,16.062,0,0,1,.577,3.25,16.889,16.889,0,0,1-1.273,7.89,17.823,17.823,0,0,1-2.257,3.9c-.289.382-.62.732-.932,1.1a.555.555,0,0,0-.658.117c-.094.084-.253.232-.392.11-.115-.1-.028-.258.033-.382.086-.173.078-.371.178-.549.072-.128.076-.28-.2-.285-.253,0-.535-.118-.462-.494.135,0,.262.1.4.034" transform="translate(-2163.371 -1445.815)" fill="#fea259"/>
      <path id="Trazado_913063" data-name="Trazado 913063" d="M701.117,829a.538.538,0,0,1-.644.186,2.479,2.479,0,0,0-1.437-.052c-.063.022-.149.068-.218-.022-.167-.217-.319-.072-.471.027a.324.324,0,0,1-.326.056,16.84,16.84,0,0,0-3.666-.45.413.413,0,0,1-.134-.032.309.309,0,0,1-.171-.275c-.01-.1.043-.227-.05-.288a.447.447,0,0,1-.082.535,4.61,4.61,0,0,1-1.232.117,16.362,16.362,0,0,0-5.229,1.236,1.99,1.99,0,0,1-.522.177c-.168.014-.206-.147-.306-.236.047.1.126.174.083.288-.62.4-1.289.7-1.917,1.089a16.064,16.064,0,0,0-4.478,4.048c-.066.087-.114.21-.262.182a2.981,2.981,0,0,1,.889-1.844c.507-.549.988-1.121,1.519-1.649a17.042,17.042,0,0,1,3.256-2.422,16.455,16.455,0,0,1,4.795-1.878,11.09,11.09,0,0,1,2.554-.318c.664,0,1.323-.05,1.993-.02a16.038,16.038,0,0,1,3.817.671,11.326,11.326,0,0,1,2.24.875" transform="translate(-672.011 -817.656)" fill="#db7543"/>
      <path id="Trazado_913064" data-name="Trazado 913064" d="M597.165,1069.888a24.292,24.292,0,0,1,1.685-1.949,18.371,18.371,0,0,1,4.844-3.366.4.4,0,0,1,.1-.021,5.234,5.234,0,0,1,.818,1.5.463.463,0,0,1-.174.29,18.038,18.038,0,0,1-1.763,1.379,3.622,3.622,0,0,0-1.24,1.069c-.132.164-.291.3-.432.456a13.612,13.612,0,0,0-1.964,2.755,2.871,2.871,0,0,1-.491.748.4.4,0,0,1-.354-.091c-.524-.32-1.106-.521-1.647-.805a.622.622,0,0,0-.3-.069c-.052-.02-.093-.047-.063-.112a10.855,10.855,0,0,1,.982-1.788" transform="translate(-589.122 -1051.96)" fill="#f1b47b"/>
      <path id="Trazado_913065" data-name="Trazado 913065" d="M459.522,2277.262a.92.92,0,0,1-.469-.584c-.18-.449-.478-.833-.642-1.286a15.929,15.929,0,0,1-1.1-3.791,15.221,15.221,0,0,1-.281-2.49c0-.15-.029-.317.207-.308a.464.464,0,0,1,.393-.082c.575.049,1.139.182,1.716.211a.242.242,0,0,1,.18.091c.033.1-.05.129-.107.172a1.388,1.388,0,0,1-.486.1c.136.011.289-.048.423.054a.917.917,0,0,1,.127.686c-.173.188-.414.018-.571.123.152.021.362-.128.524.068a.989.989,0,0,1,.013.6c-.1.2-.321.12-.451.2.188,0,.387-.139.6-.016-.131.223-.082.485-.16.72a.4.4,0,0,1-.271.135c.1.012.188-.012.254.06.128.182.108.411.195.606.005.048-.005.1-.05.116-.2.071-.068.131,0,.194a1.043,1.043,0,0,1,.105.541.231.231,0,0,0,.057.3,1.078,1.078,0,0,1,.1.583.464.464,0,0,0,.062.217c-.026.19.232.282.17.486-.2.339-.581.383-.882.558-.1.059-.231.092-.091.237a6.413,6.413,0,0,0,.378,1.041c.042.147.162.284.06.45" transform="translate(-451.618 -2241.879)" fill="#dd7c47"/>
      <path id="Trazado_913066" data-name="Trazado 913066" d="M505.554,1666.855l.067.079a8.712,8.712,0,0,1,1.3.626,1.326,1.326,0,0,1,.61.371c.054.2.055.376-.159.485-.217.03-.389-.116-.608-.164.228.135.488.136.689.284-.073.238-.04.517-.265.7-.265.061-.477-.132-.7-.154.2.11.494.083.658.326a2.522,2.522,0,0,1-.249,1.547,4.631,4.631,0,0,0-.192,1.183c-.025.265-.061.527-.1.789-.025.156-.045.327-.225.4-.093.006-.131-.056-.157-.131a2.311,2.311,0,0,0,.081-.6.3.3,0,0,0-.062-.177c-.154-.211-.147-.484-.27-.708a.245.245,0,0,1,.188-.069,1.293,1.293,0,0,0-.491-.038c-.109.014-.229.006-.267-.1a8.337,8.337,0,0,0-.855-1.4,1.081,1.081,0,0,1-.084-.258,11.6,11.6,0,0,1,1.1-2.989" transform="translate(-498.492 -1647.139)" fill="#eca068"/>
      <path id="Trazado_913067" data-name="Trazado 913067" d="M457.232,1921.454c.11.1.257.173.208.369-.034.135.063.229.138.324-.15.174-.324.016-.465.044.155.065.359-.009.526.1a.793.793,0,0,1-.136.638c-.205.156-.436.059-.616.088.185.057.433-.035.655.073.142.093.081.25.121.376a.179.179,0,0,1-.085.074c-.667.068-1.33.181-2,.212a.765.765,0,0,1-.334-.057c-.185-.234-.1-.511-.082-.758a19.311,19.311,0,0,1,.48-3.182,1.017,1.017,0,0,1,.068-.158c.3.435.607.871.913,1.3a.549.549,0,0,1,.057.261c.019.115.079.16.19.093.081.138.318-.01.362.2" transform="translate(-449.744 -1896.894)" fill="#e48a56"/>
      <path id="Trazado_913068" data-name="Trazado 913068" d="M465.075,2246.785c.8-.032,1.59-.225,2.4-.23a4.189,4.189,0,0,0,.989.112q1.412,0,2.825,0a1.41,1.41,0,0,1,.477.042c.124.059.106.131.015.2a1.224,1.224,0,0,1-.341.164.926.926,0,0,0-.6.43.35.35,0,0,1-.294.157c-.924-.074-1.836-.24-2.755-.356a.4.4,0,0,1-.307-.129c-.767-.08-1.522-.25-2.3-.273l-.113-.122" transform="translate(-459.574 -2219.983)" fill="#124454"/>
      <path id="Trazado_913069" data-name="Trazado 913069" d="M2508.389,982.428c-.3.041-.53-.028-.624-.349a1.432,1.432,0,0,1,.624.349" transform="translate(-2478.103 -970.464)" fill="#db7543"/>
      <path id="Trazado_913070" data-name="Trazado 913070" d="M2193.264,1307.175a.638.638,0,0,0-.008.8.17.17,0,0,1-.036.244c-.147.117-.063.24.006.377-.124.017-.462-.37-.3.17.062.209-.291.315-.453.46-.389.348-.405.329-.186.784.191-.024.333-.23.552-.146l.151.475a4.853,4.853,0,0,1-1.367.787c-.493.227-.977.471-1.465.709-2.054,1-4.117,1.985-6.174,2.982a.4.4,0,0,1-.328.068c-.1-.153.012-.264.086-.367,1.06-1.468,2.113-2.942,3.214-4.38.308-.4.6-.819.908-1.222a.76.76,0,0,1,.231-.252c.229-.074.386-.2.347-.472-.022-.16.084-.277.164-.405a3.129,3.129,0,0,1,.9-.793c.281-.21.534-.13.768.157.052.064.093.137.193.085a2.252,2.252,0,0,0,.433-.344c.077-.083.182-.156.111-.295a.645.645,0,0,1-.35-.772c.15-.475.261-.668.879-.389a12.9,12.9,0,0,1,1.728,1.738" transform="translate(-2157.785 -1289.869)" fill="#fdad67"/>
      <path id="Trazado_913071" data-name="Trazado 913071" d="M1869.05,929.677a15.2,15.2,0,0,1,3.847.431c.1.023.2.032.3.048.769.294,1.58.469,2.328.827a1.283,1.283,0,0,0,.576.215c.1.1.06.22,0,.318a13.982,13.982,0,0,1-.742,1.284.205.205,0,0,1-.1.028c-.566-.125-1.053-.456-1.611-.611-.366-.1-.723-.234-1.1-.312-.795-.232-1.614-.363-2.413-.583a2.545,2.545,0,0,0-.854.03c-.106-.045-.12-.141-.135-.237-.055-.362-.126-.722-.166-1.086-.014-.123-.053-.252.061-.353" transform="translate(-1846.865 -918.675)" fill="#f2b078"/>
      <path id="Trazado_913072" data-name="Trazado 913072" d="M2434.422,1074.985c-.152.195-.233.017-.266-.078a.39.39,0,0,0-.665-.189,2.971,2.971,0,0,0-.811.676c-.116.19-.282.326-.221.611.041.188-.14.367-.392.353-.05-.067.013-.126.021-.194a.549.549,0,0,1-.265.155c-.178-.01-.263.109-.338.243a.266.266,0,0,1-.26.119c-.246-.1-.2-.276-.126-.458a10.129,10.129,0,0,1,.78-1.34,4.6,4.6,0,0,0,.3-.538,3.156,3.156,0,0,1,.589-1.047.3.3,0,0,0,.085-.254c.006-.146.124-.229.2-.352-.083,0-.14.062-.213.056-.325-.022-.373-.254-.388-.51-.012-.156-.114-.125-.213-.1-.265.13-.532.3-.759-.058-.067-.152.066-.244.111-.362.029-.036-.051-.029-.008-.013.01,0,0,.011-.009.031a.257.257,0,0,1-.236.154c-.28-.158-.625-.162-.883-.373a2.437,2.437,0,0,1,.715-1.331,19.989,19.989,0,0,1,4.081,2.681,2.195,2.195,0,0,1,.208.229.927.927,0,0,0-.238,0c-.127.035-.256-.17-.389.037a.886.886,0,0,0-.1.868c.024.056.156.07.24.1.15.051.058.1,0,.15-.031.2-.206.291-.338.412-.1.09-.245.144-.216.319" transform="translate(-2401.713 -1057.529)" fill="#fab073"/>
      <path id="Trazado_913073" data-name="Trazado 913073" d="M2406.112,1023.526l-.71,1.314a.27.27,0,0,1-.234.3.109.109,0,0,1-.046-.173c.22-.41.441-.819.659-1.23.057-.107.153-.2.109-.345.167-.107.146-.409.472-.423l-.25.558" transform="translate(-2376.65 -1010.868)" fill="#4c1e17"/>
      <path id="Trazado_913074" data-name="Trazado 913074" d="M637.616,2585.257l-.136-.414c.169-.288.1-.648.3-.935.084-.121-.054-.135-.15-.133-.137,0-.3.095-.38-.1a.181.181,0,0,1,.076-.11,7.814,7.814,0,0,1,1.7-.789c.294.141.309.193.143.5-.164.163-.383.247-.631.438.336-.11.527-.373.831-.342.281.155.131.414.154.632-.062.24-.339.242-.461.416,0,0,.007.021.015.028a.088.088,0,0,0,.032.014c.246.075.383-.048.472-.257a1.488,1.488,0,0,1,.18-.242.245.245,0,0,1,.343.032,2.383,2.383,0,0,0,.444.265c.555.295.6.292,1.09-.106a1.079,1.079,0,0,1,1.419.076c.149.163.378.229.484.433a.263.263,0,0,1-.065.235c.46-.379,1-.724,1.525-1.1,1.49-1.066,2.969-2.145,4.467-3.2.128-.09.237-.228.422-.2a.217.217,0,0,1,.046.09.882.882,0,0,1-.173.48c-1.113,2.068-2.218,4.14-3.342,6.2-.187.344-.363.694-.568,1.028-.063.1-.1.24-.255.257-.023-.121-.009-.288-.153-.317-.129-.025-.166.12-.217.225-.11.227-.261.177-.414.04-.06-.054-.134-.131-.208-.068-.1.083.012.164.046.24s.214.169.132.249c-.177.172-.066.518-.356.585-.136.031-.174.29-.368.146-.055-.314.236-.474.321-.735-.235.181-.313.483-.538.663a1.173,1.173,0,0,1,.1-.741c.026-.055.133-.1.051-.166s-.162.007-.2.072a.8.8,0,0,1-.524.407c-.03-.3.254-.438.333-.693-.051-.033-.1.064-.16.028a1.028,1.028,0,0,0-.013-.526c-.032-.246-.161-.359-.415-.249-.257.208-.363.574-.711.689a.251.251,0,0,1,.05-.338,2.569,2.569,0,0,0,.21-.267c.054-.078.174-.166.056-.26s-.2.008-.3.073-.134.3-.338.169c-.041-.217.209-.277.267-.5a4.81,4.81,0,0,0-.608.7c-.125-.062-.139-.062-.14-.136,0-.273-.173-.312-.371-.244a.469.469,0,0,1-.445-.079,1.026,1.026,0,0,0-1.053-.175c-.219.1-.445-.051-.662-.118-.13-.04-.258-.09-.387-.136a8.308,8.308,0,0,1-.9-1.621c-.019-.04-.045-.077-.068-.115" transform="translate(-629.712 -2549.874)" fill="#fea55d"/>
      <path id="Trazado_913075" data-name="Trazado 913075" d="M1835.423,2469.425q-.481,3.333-.962,6.666c-.268,1.868-.531,3.736-.821,5.606-.133-.9-.318-1.8-.385-2.708a.812.812,0,0,0,.174-.453,10.319,10.319,0,0,0,.073-1.275q-.005-4.406,0-8.81c.026-.128.134-.149.235-.161a3.441,3.441,0,0,0,1.68-.64.277.277,0,0,1,.226-.058c.1.056.089.155.077.24a5.242,5.242,0,0,1-.2,1.164c-.014.147.1.321-.091.43" transform="translate(-1811.57 -2438.399)" fill="#042c3a"/>
      <path id="Trazado_913076" data-name="Trazado 913076" d="M1690.591,2469.376a.686.686,0,0,1,.069.4q0,4.536,0,9.073a6.343,6.343,0,0,1-.171,1.281c-.137-.023-.076-.123-.118-.168a.04.04,0,0,0-.033,0,.1.1,0,0,0-.027.02c-.2-.84-.273-1.7-.405-2.549-.277-1.783-.525-3.571-.793-5.355a11.3,11.3,0,0,0-.253-1.559c-.155-.158-.014-.338-.038-.506l-.031-.082a2.223,2.223,0,0,1-.184-1.276c.057-.1.138-.067.205-.024a4.645,4.645,0,0,0,1.645.654.215.215,0,0,1,.139.093" transform="translate(-1668.622 -2439.39)" fill="#103e4d"/>
      <path id="Trazado_913077" data-name="Trazado 913077" d="M2021.585,2416.747l.146-1.393c-.049-.108.039-.155.1-.216.153-.119.24-.325.464-.352.3-.012.588-.078.885-.083a.528.528,0,0,1,.42.095q1.381,1.969,2.834,3.886l1.884,2.545-.044.047c-.617-.426-1.233-.853-1.852-1.277-1.549-1.06-3.114-2.1-4.621-3.217-.057-.042-.112-.141-.189-.021Z" transform="translate(-1997.674 -2386.139)" fill="#104250"/>
      <path id="Trazado_913078" data-name="Trazado 913078" d="M1236.867,2588.872a1.489,1.489,0,0,1,.038.506l-5.39,9.787c-.022.04-.044.081-.062.123-.032.074-.086.116-.162.082s-.053-.108-.018-.172c.077-.142.15-.285.226-.427q.387-.716.775-1.43a2.248,2.248,0,0,1,.281-.514v.005q1.382-2.532,2.762-5.064c.522-.962,1.032-1.93,1.548-2.9" transform="translate(-1216.673 -2558.251)" fill="#5e1011"/>
      <path id="Trazado_913079" data-name="Trazado 913079" d="M2016.656,2587.72l.023.014c1.8,3.421,3.666,6.811,5.536,10.2.039.071.159.163.063.229-.13.09-.171-.069-.215-.148q-1.191-2.122-2.375-4.249-1.553-2.808-3.092-5.623a.977.977,0,0,0,.059-.419" transform="translate(-1992.745 -2557.112)" fill="#5c0d0e"/>
      <path id="Trazado_913080" data-name="Trazado 913080" d="M1194.607,3277.184a3.605,3.605,0,0,1,.473-.777c.034-.063.09-.109.168-.062s.044.115.009.175l-.433.736c-.106.078-.164.01-.217-.072" transform="translate(-1180.477 -3237.574)" fill="#55130b"/>
      <path id="Trazado_913081" data-name="Trazado 913081" d="M1620.492,3419.733c.028-.186.058-.391.088-.6.012-.083.024-.17.137-.158.15.016.1.119.083.207-.031.193-.057.387-.086.58-.015.1.008.244-.138.233-.167-.013-.07-.158-.084-.267" transform="translate(-1601.31 -3378.539)" fill="#601d15"/>
      <path id="Trazado_913082" data-name="Trazado 913082" d="M1007.9,3144.386c-.044-.291.3-.349.354-.583.011-.048.076-.083.117-.124.073-.073.158-.176.257-.073s-.032.177-.092.249c-.1.114-.2.222-.294.333-.125.046-.155.256-.341.2" transform="translate(-995.972 -3106.38)" fill="#551509"/>
      <path id="Trazado_913083" data-name="Trazado 913083" d="M2368.477,3331.512c.111.007.116.109.138.176.094.28.331.509.309.823,0,.068-.128.036-.16-.031q-.2-.422-.377-.852c-.029-.068.029-.1.09-.116" transform="translate(-2340.366 -3292.106)" fill="#460e0d"/>
      <path id="Trazado_913084" data-name="Trazado 913084" d="M1064.476,3191.7c.273-.192.346-.591.711-.689a.177.177,0,0,1-.017.244c-.149.171-.292.348-.446.514-.115.124-.213.126-.247-.069" transform="translate(-1051.885 -3153.263)" fill="#52190d"/>
      <path id="Trazado_913085" data-name="Trazado 913085" d="M2086.148,3416.188c.006.107.017.185-.08.194s-.115-.05-.129-.126c-.043-.246-.092-.491-.135-.737-.015-.088.007-.167.11-.174s.09.08.1.144l.132.7" transform="translate(-2061.129 -3374.948)" fill="#47160e"/>
      <path id="Trazado_913086" data-name="Trazado 913086" d="M2708.412,3101.311a.423.423,0,0,1-.1-.049q-.3-.279-.6-.562c-.042-.04-.081-.088-.03-.145a.1.1,0,0,1,.152,0c.2.184.4.37.6.561.07.068.055.137-.025.2" transform="translate(-2675.636 -3063.847)" fill="#551a0e"/>
      <path id="Trazado_913087" data-name="Trazado 913087" d="M2230.833,3382.112c.069,0,.091.047.107.1.068.241.14.481.2.724.02.076.041.175-.071.195-.08.014-.108-.063-.128-.131-.07-.241-.142-.481-.212-.722-.026-.089-.024-.164.1-.169" transform="translate(-2204.335 -3342.108)" fill="#49150f"/>
      <path id="Trazado_913088" data-name="Trazado 913088" d="M2012.314,3425.792c-.009.053.038.155-.084.171s-.117-.074-.127-.155c-.03-.237-.06-.474-.094-.71-.01-.069-.037-.138.059-.163s.145.041.156.128c.031.237.058.474.089.728" transform="translate(-1988.2 -3384.419)" fill="#5b1912"/>
      <path id="Trazado_913089" data-name="Trazado 913089" d="M2757.625,3052.008c-.159.275-.279.094-.4-.034-.112-.112-.229-.219-.335-.336-.052-.057-.191-.106-.084-.21s.159.031.221.081c.2.162.4.332.6.5" transform="translate(-2724.156 -3015.302)" fill="#501d13"/>
      <path id="Trazado_913090" data-name="Trazado 913090" d="M2158.814,3402.569c0,.057.026.139-.073.154s-.117-.056-.133-.126c-.055-.235-.107-.47-.16-.7-.017-.074-.075-.162.059-.186.085-.015.13.039.146.112.055.246.106.493.161.75" transform="translate(-2132.891 -3361.469)" fill="#571b13"/>
      <path id="Trazado_913091" data-name="Trazado 913091" d="M1542.867,3407.809c-.1-.017-.092-.078-.074-.154.055-.223.1-.447.158-.67.018-.073.01-.176.135-.153s.1.115.083.19c-.049.225-.1.448-.161.67-.017.069-.05.132-.141.117" transform="translate(-1524.534 -3366.532)" fill="#5d1710"/>
      <path id="Trazado_913092" data-name="Trazado 913092" d="M1130.624,3237.234c.024-.024.048-.048.071-.073.061-.067.082-.23.223-.123.112.085,0,.16-.045.232l-.422.628c-.186.016-.24-.053-.133-.216s.2-.3.306-.449" transform="translate(-1116.894 -3198.716)" fill="#53150d"/>
      <path id="Trazado_913093" data-name="Trazado 913093" d="M2537.673,3238.52c.025.1,0,.137-.046.153a.119.119,0,0,1-.146-.057l-.448-.687c-.026-.04-.046-.09,0-.122s.108-.039.119-.025c.189.256.37.516.526.738" transform="translate(-2506.997 -3199.48)" fill="#4e1210"/>
      <path id="Trazado_913094" data-name="Trazado 913094" d="M1390.19,3365.07c-.074-.016-.12-.048-.095-.119q.143-.4.294-.8c.021-.055.061-.1.131-.061.043.023.077.054.057.108-.1.278-.2.555-.312.83-.009.023-.054.032-.076.043" transform="translate(-1373.646 -3324.285)" fill="#47140c"/>
      <path id="Trazado_913095" data-name="Trazado 913095" d="M1466.335,3387.552l-.27.872a.093.093,0,0,1-.133.064.084.084,0,0,1-.059-.108q.12-.411.247-.819a.076.076,0,0,1,.109-.049c.061.02.1.051.106.04" transform="translate(-1448.53 -3347.438)" fill="#4f190e"/>
      <path id="Trazado_913096" data-name="Trazado 913096" d="M2599.32,3193.022c-.026.044-.036.082-.06.1a.1.1,0,0,1-.147-.034q-.251-.324-.5-.65c-.036-.047-.057-.1,0-.149.023-.019.08-.037.088-.027.208.252.413.508.617.763" transform="translate(-2567.843 -3154.498)" fill="#49150c"/>
      <path id="Trazado_913097" data-name="Trazado 913097" d="M2878.964,2882.813a.2.2,0,0,1,.028.021c.095.1.369.151.284.279-.117.174-.314-.028-.428-.111a3.521,3.521,0,0,1-.4-.249c-.2-.191,0-.151.094-.174l.424.234" transform="translate(-2844.314 -2848.484)" fill="#48160b"/>
      <path id="Trazado_913098" data-name="Trazado 913098" d="M1699.075,3426.318l.066-.661c.006-.061.026-.112.1-.117.1-.008.116.061.111.133-.022.263-.049.526-.074.79-.006.065-.04.116-.109.1-.159-.034-.065-.168-.091-.246" transform="translate(-1678.974 -3385.022)" fill="#4f190e"/>
      <path id="Trazado_913099" data-name="Trazado 913099" d="M2301.983,3360.429c0,.02-.011.059-.065.073a.1.1,0,0,1-.136-.067c-.095-.256-.191-.512-.283-.769-.02-.055-.017-.114.056-.136.048-.015.1-.008.119.037.1.277.2.556.309.863" transform="translate(-2274.267 -3319.786)" fill="#4a1410"/>
      <path id="Trazado_913100" data-name="Trazado 913100" d="M1317.423,3337.117c-.128-.027-.107-.116-.076-.187.105-.239.222-.473.332-.711.033-.072.082-.112.159-.081.049.02.052.068.031.114-.124.268-.248.537-.375.8-.013.027-.048.043-.071.061" transform="translate(-1301.742 -3296.668)" fill="#4a0e0a"/>
      <path id="Trazado_913101" data-name="Trazado 913101" d="M2657.377,3148.871a.508.508,0,0,1,.087.065q.27.289.536.581a.1.1,0,0,1,0,.15c-.057.057-.108.025-.147-.018-.193-.211-.386-.423-.571-.641-.055-.065-.04-.13.091-.138" transform="translate(-2625.826 -3111.626)" fill="#54170c"/>
      <path id="Trazado_913102" data-name="Trazado 913102" d="M2473.108,3276.587c-.013.028-.019.07-.042.085a.1.1,0,0,1-.146-.038q-.226-.365-.446-.733a.086.086,0,0,1,.021-.122.076.076,0,0,1,.118.018c.166.26.328.523.5.79" transform="translate(-2443.214 -3237.013)" fill="#4b1512"/>
      <path id="Trazado_913103" data-name="Trazado 913103" d="M1319.342,3261.417a1.543,1.543,0,0,1-.281.514.626.626,0,0,1,.281-.514" transform="translate(-1303.459 -3222.841)" fill="#fea55d"/>
      <path id="Trazado_913104" data-name="Trazado 913104" d="M1861.51,1559.528l.5-.311-.222.387q-1.7,2.286-3.392,4.572-.483.652-.949,1.316c-.061.086-.178.159-.131.3.182.025.38-.13.548.049.712.113,1.422.233,2.135.339q2.611.39,5.223.77c.612.09,1.219.21,1.83.3a6.188,6.188,0,0,1,.638.094c.028.044.072.042.117.052.1.022.268-.081.268.1,0,.128-.158.169-.272.151a8.05,8.05,0,0,0-1.309.035q-4.664,0-9.328,0a1.5,1.5,0,0,1-.513-.046c-.148-.07-.141-.216-.166-.346a3.468,3.468,0,0,0-.224-.845,2.919,2.919,0,0,0-2.542-1.835c-.126-.014-.258-.015-.317-.162a17.276,17.276,0,0,1-.021-2.278c.007-.281.21-.371.448-.378.425-.013.85-.024,1.274-.068a2.667,2.667,0,0,1,.267,1.2,4.534,4.534,0,0,0,.091.518c.069.242.177.053.244.01.592-.381,1.162-.794,1.743-1.193,1.084-.745,2.154-1.511,3.246-2.245a.79.79,0,0,1,.28-.131.277.277,0,0,0,.2-.122.543.543,0,0,1,.337-.235" transform="translate(-1831.437 -1540.775)" fill="#0f3e4d"/>
      <path id="Trazado_913105" data-name="Trazado 913105" d="M2072.913,2246.73h11.418c-.094-.189-.244-.1-.352-.161-.006,0-.007-.021,0-.031a.1.1,0,0,1,.018-.029l2.292.236.006.056c-.6.089-1.2.184-1.8.265-1.324.18-2.649.351-3.974.53q-2.913.395-5.824.8c-.137.019-.272.048-.408.073-.141.179-.312.138-.487.067-.055,0-.112,0-.139.063l-1.4.076a.313.313,0,0,1,.068-.288,3.207,3.207,0,0,0,.474-1.418c.009-.089.012-.186.11-.236" transform="translate(-2047.737 -2219.937)" fill="#042c3b"/>
      <path id="Trazado_913106" data-name="Trazado 913106" d="M2203.323,2412.036l.487-.067c3.038,1.523,6.053,3.091,9.116,4.563.331.159.654.337.979.51.075.04.2.073.139.193s-.145.049-.232,0c-.328-.171-.661-.332-.992-.5a1.3,1.3,0,0,1-.772-.4q-1.521-.747-3.042-1.495c-1.408-.7-2.813-1.4-4.224-2.09a11.747,11.747,0,0,1-1.459-.718" transform="translate(-2177.262 -2383.44)" fill="#5b100f"/>
      <path id="Trazado_913107" data-name="Trazado 913107" d="M2188.721,1678.05c-.181-.035-.372.038-.548-.049q4.239-2.054,8.479-4.1a4.629,4.629,0,0,1,.842-.438c.427-.2.852-.4,1.28-.6.089-.041.215-.153.275-.046.079.142-.1.175-.19.22-1.331.652-2.668,1.292-4,1.949-2.051,1.015-4.1,2.042-6.142,3.064" transform="translate(-2162.292 -1652.986)" fill="#631111"/>
      <path id="Trazado_913108" data-name="Trazado 913108" d="M2917.868,2781.439l.772.4c0,.176.205.412-.144.481a1.915,1.915,0,0,1-.9-.426c.138-.125,0-.415.276-.458" transform="translate(-2883.083 -2748.54)" fill="#fe9c54"/>
      <path id="Trazado_913109" data-name="Trazado 913109" d="M2845.359,2941.743a3.4,3.4,0,0,1-.77-.536c0-.1.059-.162.153-.1.229.147.45.307.673.465a.086.086,0,0,1,.017.123c-.017.025-.054.037-.073.05" transform="translate(-2810.943 -2906.294)" fill="#4d170e"/>
      <path id="Trazado_913110" data-name="Trazado 913110" d="M2831.622,2986.76a.524.524,0,0,0-.257-.473.594.594,0,0,1,.632.28c.116.168-.058.257-.186.334-.134.047-.195,0-.189-.142" transform="translate(-2797.875 -2950.954)" fill="#fe9c54"/>
      <path id="Trazado_913111" data-name="Trazado 913111" d="M2914.33,2820.145a3.627,3.627,0,0,1,.9.426c0,.066,0,.171-.089.138a2.983,2.983,0,0,1-.827-.41c-.052-.041-.017-.1.012-.154" transform="translate(-2879.821 -2786.788)" fill="#53140c"/>
      <path id="Trazado_913112" data-name="Trazado 913112" d="M2802,3001.11a.286.286,0,0,0,.189.142c.084.147.037.258-.122.178a4.628,4.628,0,0,1-.634-.448.093.093,0,0,1-.014-.148c.05-.059.1-.032.151,0,.145.091.287.186.43.28" transform="translate(-2768.257 -2965.304)" fill="#4b1812"/>
      <path id="Trazado_913113" data-name="Trazado 913113" d="M2972.577,2716.176a.094.094,0,0,1-.133.079q-.367-.138-.729-.29c-.05-.021-.108-.06-.086-.129a.1.1,0,0,1,.143-.052c.254.1.5.209.753.32.025.011.037.051.051.073" transform="translate(-2936.477 -2683.652)" fill="#4d150d"/>
      <path id="Trazado_913114" data-name="Trazado 913114" d="M3034.777,1984.111c-.017,0-.085,0-.094-.1-.006-.07.041-.094.1-.107.212-.043.422-.094.634-.134.076-.015.178-.031.189.082.007.078-.07.1-.141.116-.212.041-.423.085-.691.14" transform="translate(-2998.789 -1960.298)" fill="#55150c"/>
      <path id="Trazado_913115" data-name="Trazado 913115" d="M2996.54,2649.39c.25.083.5.165.75.251a.093.093,0,0,1,.061.137.128.128,0,0,1-.114.045c-.25-.084-.5-.177-.746-.267-.049-.018-.081-.045-.058-.1a.094.094,0,0,1,.106-.066" transform="translate(-2960.984 -2618.052)" fill="#47150b"/>
      <path id="Trazado_913116" data-name="Trazado 913116" d="M2995.1,1842.785c.11-.008.172-.012.195.054s-.041.1-.091.115c-.225.081-.451.158-.677.235-.071.024-.142.022-.167-.061s.04-.111.11-.133c.227-.072.453-.15.631-.209" transform="translate(-2958.931 -1820.984)" fill="#52130b"/>
      <path id="Trazado_913117" data-name="Trazado 913117" d="M3018.838,2582.22a.086.086,0,0,1-.107.1c-.264-.068-.527-.143-.787-.224-.028-.009-.053-.071-.055-.109a.074.074,0,0,1,.1-.07c.272.08.543.167.813.254.018.006.028.034.04.05" transform="translate(-2982.193 -2551.374)" fill="#43140d"/>
      <path id="Trazado_913118" data-name="Trazado 913118" d="M3056.885,2376.474l.6.061c.07.007.149.014.138.108s-.09.095-.16.088c-.194-.017-.387-.038-.58-.061-.086-.01-.224.016-.221-.1,0-.162.153-.079.222-.093" transform="translate(-3020.508 -2348.356)" fill="#5b1d12"/>
      <path id="Trazado_913119" data-name="Trazado 913119" d="M3048.747,2054.722c-.1-.031-.253.07-.265-.078-.01-.13.152-.1.242-.123a4.957,4.957,0,0,1,.506-.074c.073-.008.174-.036.184.086.007.088-.065.1-.137.114-.18.024-.36.051-.529.076" transform="translate(-3012.424 -2030.138)" fill="#54190c"/>
      <path id="Trazado_913120" data-name="Trazado 913120" d="M2970.644,1773.809c-.056,0-.1-.013-.11-.068s.027-.1.086-.128c.224-.09.448-.182.673-.271a.124.124,0,0,1,.156.03c.036.044.032.1-.014.115-.264.112-.531.217-.79.322" transform="translate(-2935.396 -1752.354)" fill="#51140b"/>
      <path id="Trazado_913121" data-name="Trazado 913121" d="M3017.836,1911.621c-.064,0-.124.009-.145-.061s.028-.107.085-.123c.229-.064.461-.121.689-.189.086-.025.136,0,.154.078s-.049.095-.1.11c-.229.065-.459.125-.682.186" transform="translate(-2981.993 -1888.632)" fill="#561b0f"/>
      <path id="Trazado_913122" data-name="Trazado 913122" d="M2917.31,1658.463c-.2-.025-.31.317-.552.146.2-.271.532-.327.785-.512a.076.076,0,0,1,.118.02.094.094,0,0,1-.037.144c-.1.067-.209.135-.313.2" transform="translate(-2882.258 -1638.466)" fill="#441009"/>
      <path id="Trazado_913123" data-name="Trazado 913123" d="M3060.612,2200.729a2.709,2.709,0,0,1-.777.061c-.071,0-.154-.011-.162-.093s.073-.105.145-.106c.272,0,.544,0,.816,0-.007.046-.015.093-.023.139" transform="translate(-3023.483 -2174.561)" fill="#642410"/>
      <path id="Trazado_913124" data-name="Trazado 913124" d="M3048.387,2446.268c.187.034.389.069.589.11.052.01.123.026.119.1-.006.1-.094.084-.155.077-.2-.022-.406-.052-.608-.083-.076-.011-.187-.011-.178-.115.012-.14.138-.071.234-.088" transform="translate(-3012.099 -2417.33)" fill="#511a12"/>
      <path id="Trazado_913125" data-name="Trazado 913125" d="M3060.956,2127.8c.155.069.419-.095.429.075s-.275.116-.423.134-.457.129-.458-.075c0-.22.309-.039.452-.134" transform="translate(-3024.304 -2102.624)" fill="#5a2013"/>
      <path id="Trazado_913126" data-name="Trazado 913126" d="M3066.855,2305.371c-.177-.112-.5.1-.495-.162,0-.164.336-.059.518-.06.123,0,.363,0,.341.131-.034.2-.258-.024-.364.091" transform="translate(-3030.091 -2277.853)" fill="#6b0e0d"/>
      <path id="Trazado_913127" data-name="Trazado 913127" d="M3036.03,2514.926l-.665-.162c-.058-.014-.116-.029-.094-.107s.069-.079.133-.064c.222.053.445.1.667.153.063.014.158,0,.146.1-.013.115-.1.1-.187.082" transform="translate(-2999.365 -2484.844)" fill="#4b160c"/>
      <path id="Trazado_913128" data-name="Trazado 913128" d="M1252.255,930.913a17.378,17.378,0,0,1,4.639-1.362,13.167,13.167,0,0,1,2.4-.157c.115.1.068.234.052.354-.046.363-.09.727-.16,1.087a.348.348,0,0,1-.113.2,1.9,1.9,0,0,1-.836.167,16.046,16.046,0,0,0-4.511,1.22,2.1,2.1,0,0,1-.554.186.2.2,0,0,1-.193-.117c-.235-.468-.514-.912-.734-1.388a.167.167,0,0,1,.006-.192" transform="translate(-1237.411 -918.394)" fill="#f2b37d"/>
      <path id="Trazado_913129" data-name="Trazado 913129" d="M1834.751,879.016l.186-1.446.122-.627c.155.209.051.454.176.629l.189,1.444a.552.552,0,0,1-.672,0" transform="translate(-1813.05 -866.57)" fill="#285560"/>
      <path id="Trazado_913130" data-name="Trazado 913130" d="M1224.641,1024.588l.882,1.67a.063.063,0,0,1-.011.092.233.233,0,0,1-.206.02.13.13,0,0,1-.076-.175l-.762-1.533c-.041-.08-.086-.158-.122-.24s-.134-.172-.01-.227c.106-.047.14.076.18.155s.083.16.125.239" transform="translate(-1209.796 -1012.069)" fill="#5b3029"/>
      <path id="Trazado_913131" data-name="Trazado 913131" d="M796.477,1460.238a15.788,15.788,0,0,1,1.944-3.023,1.923,1.923,0,0,1,.487-.526c.1.134,0,.24-.053.349a.348.348,0,0,0,.051.446c.313.267.576.636.991.728a2.064,2.064,0,0,1,1.163.566,1.858,1.858,0,0,0,.434.266,3.511,3.511,0,0,1,.641.793c.287.368.559.748.845,1.117.736,1.024,1.5,2.03,2.179,3.092.08.125.236.241.123.427a.592.592,0,0,1-.49-.1c-1.788-.877-3.594-1.713-5.388-2.577q-1.307-.629-2.6-1.278c-.126-.063-.295-.091-.323-.276" transform="translate(-787.056 -1439.459)" fill="#fece98"/>
      <path id="Trazado_913132" data-name="Trazado 913132" d="M986.177,1199.729a2.3,2.3,0,0,1-.744-.481c-.13-.169-.27-.34-.549-.23-.09.036-.236-.064-.354-.107a3.868,3.868,0,0,1-1.014-.762.371.371,0,0,1-.067-.5.847.847,0,0,0,.153-.342,1.56,1.56,0,0,1,.414-.415,7.143,7.143,0,0,1,1.25-1.108c.573-.449,1.148-.9,1.718-1.351a1.633,1.633,0,0,0,.2-.231c.022.048.012.117.085.133.228.112.294.351.4.547.76,1.43,1.55,2.844,2.294,4.283a.743.743,0,0,1,.124.354,4.838,4.838,0,0,0-.535.484,2.4,2.4,0,0,0-.521.98c-.121.087-.221.011-.314-.051-1.033-.687-2.074-1.362-3.056-2.056.154.264.461.484.516.856" transform="translate(-971.75 -1180.075)" fill="#fed6a6"/>
      <path id="Trazado_913133" data-name="Trazado 913133" d="M605,1667.186c1.295.64,2.586,1.287,3.886,1.918,1.394.677,2.794,1.34,4.194,2,.238.113.488.2.732.3-.026.156-.146.117-.24.107-.126-.013-.25,0-.375,0a1.413,1.413,0,0,1-.453-.165c-.279-.138-.559-.276-.836-.418-2.291-1.172-4.623-2.26-6.918-3.425a1.113,1.113,0,0,1-.4-.259c-.487-.32-1.026-.546-1.536-.824a.856.856,0,0,1-.341-.219c.127-.181.252-.033.357.019.648.315,1.29.643,1.935.966" transform="translate(-595.583 -1646.407)" fill="#6a2822"/>
      <path id="Trazado_913134" data-name="Trazado 913134" d="M1038.235,1327.957a13.923,13.923,0,0,1-1.25,1.108,2.8,2.8,0,0,1,1.25-1.108" transform="translate(-1024.719 -1312.25)" fill="#fece98"/>
      <path id="Trazado_913135" data-name="Trazado 913135" d="M991.07,1312.415a1.529,1.529,0,0,1-.7-.527.1.1,0,0,1-.008-.151c.058-.051.109,0,.144.039.189.211.373.426.559.639" transform="translate(-978.62 -1296.2)" fill="#8c6044"/>
      <path id="Trazado_913136" data-name="Trazado 913136" d="M727.108,1660.835c.266.13.533.258.8.39a.081.081,0,0,1,.028.118c-.013.022-.064.048-.082.039a2.768,2.768,0,0,1-.793-.455l.048-.093" transform="translate(-718.46 -1641.191)" fill="#7e462b"/>
      <path id="Trazado_913137" data-name="Trazado 913137" d="M940.976,1366.584a1.28,1.28,0,0,1-.707-.631,1.332,1.332,0,0,1,.707.631" transform="translate(-929.147 -1349.796)" fill="#975d3f"/>
      <path id="Trazado_913138" data-name="Trazado 913138" d="M1051.75,1264.554c-.285-.113-.42-.371-.609-.575-.03-.033-.057-.08-.016-.121a.1.1,0,0,1,.152.014,2.777,2.777,0,0,1,.473.683" transform="translate(-1038.672 -1248.879)" fill="#8c6950"/>
      <path id="Trazado_913139" data-name="Trazado 913139" d="M767.362,1598.645a2.367,2.367,0,0,1,.842.429.919.919,0,0,1-.842-.429" transform="translate(-758.286 -1579.736)" fill="#784e32"/>
      <path id="Trazado_913140" data-name="Trazado 913140" d="M1183.606,1171.6c-.146-.2-.293-.4-.436-.6-.04-.056-.075-.134-.011-.186s.126.015.157.07a2.946,2.946,0,0,1,.365.67l-.075.046" transform="translate(-1169.13 -1156.938)" fill="#8c6d5c"/>
      <path id="Trazado_913141" data-name="Trazado 913141" d="M805.669,1536.975a1.247,1.247,0,0,1-.787-.518,1.9,1.9,0,0,1,.787.518" transform="translate(-795.362 -1518.284)" fill="#734d34"/>
      <path id="Trazado_913142" data-name="Trazado 913142" d="M847.245,1476.293a1.449,1.449,0,0,1,.736.593,1.662,1.662,0,0,1-.736-.593" transform="translate(-837.224 -1458.831)" fill="#7c4e38"/>
      <path id="Trazado_913143" data-name="Trazado 913143" d="M1119.533,1215.289a1.881,1.881,0,0,1,.543.722,1.365,1.365,0,0,1-.543-.722" transform="translate(-1106.291 -1200.914)" fill="#845b43"/>
      <path id="Trazado_913144" data-name="Trazado 913144" d="M893.894,1416.617a3.226,3.226,0,0,1,.757.642,1.237,1.237,0,0,1-.757-.642" transform="translate(-883.321 -1399.861)" fill="#774831"/>
      <path id="Trazado_913145" data-name="Trazado 913145" d="M651.323,2299.433l3.114.413a4.918,4.918,0,0,1,1.64.12q2.259.286,4.514.608c.147.042.308,0,.451.067.13.113.02.183-.054.246a1.516,1.516,0,0,1-.331.186q-3.749,1.868-7.494,3.747c-.351.175-.721.31-1.068.494a.343.343,0,0,1-.3.055.407.407,0,0,0-.157-.349c-.136-.093.016-.113.023-.167.121-.233.394-.2.557-.321-.228.035-.423.263-.7.185a2.085,2.085,0,0,0-.064-.689c.068-.215.3-.17.44-.274-.177,0-.324.194-.515.071l-.074-.65c.041-.186.218-.156.336-.219-.084-.005-.183.041-.258-.042-.26-.141-.108-.421-.207-.616,0-.023.005-.054.022-.06.253-.094-.016-.114-.023-.17.061-.1.006-.2,0-.291a.328.328,0,0,1,.205-.392.282.282,0,0,0-.2-.159q0-.33,0-.659c.006-.058.056-.1.065-.155-.138-.206.007-.467-.13-.673.023-.071.006-.152.055-.217l.154-.087" transform="translate(-643.413 -2272.235)" fill="#feb370"/>
      <path id="Trazado_913146" data-name="Trazado 913146" d="M612.393,2408.527q4.582-2.272,9.163-4.546a.777.777,0,0,0,.133-.107.311.311,0,0,1,.434.09c0,.178-.154.219-.273.276-1.83.876-3.646,1.781-5.481,2.648-.855.4-1.694.842-2.54,1.263a1.975,1.975,0,0,1-.547.2,17,17,0,0,0-1.714.852c-.033.051-.073.087-.141.063-.063.012-.133.056-.175-.036-.051-.109.037-.142.1-.177.345-.177.692-.35,1.038-.524" transform="translate(-604.006 -2375.393)" fill="#6a0d0c"/>
      <path id="Trazado_913147" data-name="Trazado 913147" d="M627.347,2856.685l.141-.063c.158.136.305-.032.461-.018s.294.03.182.211a1.332,1.332,0,0,0-.243.808c.007.1-.089.153-.192.162a2.754,2.754,0,0,1-.348-1.1" transform="translate(-619.927 -2822.815)" fill="#fe9c54"/>
      <path id="Trazado_913148" data-name="Trazado 913148" d="M685.753,2717.291c.231-.1.461-.193.693-.284.075-.03.171-.126.231.008s-.081.135-.151.165c-.208.088-.421.166-.632.247-.089,0-.149-.033-.141-.135" transform="translate(-677.641 -2684.809)" fill="#49170b"/>
      <path id="Trazado_913149" data-name="Trazado 913149" d="M663.076,2654.038c.183-.059.368-.112.547-.181.094-.036.164-.024.192.066s-.069.091-.126.113l-.539.206c-.069-.023-.177.034-.2-.072-.022-.088.1-.07.129-.131" transform="translate(-655.104 -2622.448)" fill="#481a0f"/>
      <path id="Trazado_913150" data-name="Trazado 913150" d="M591.612,2382.01c.08.094.023.131-.065.155-.214.017-.428.034-.642.049-.057,0-.123,0-.135-.072-.016-.091.058-.116.126-.119.239-.009.477-.01.716-.013" transform="translate(-583.78 -2353.835)" fill="#7a2f19"/>
      <path id="Trazado_913151" data-name="Trazado 913151" d="M617.215,2519.236c.13.068.356-.127.382.028.038.229-.263.052-.355.18a.15.15,0,0,1-.025.022c-.154-.026-.3.1-.475.017.088-.227.348-.116.474-.247" transform="translate(-609.446 -2489.405)" fill="#642812"/>
      <path id="Trazado_913152" data-name="Trazado 913152" d="M640.111,2586.737c.148.035.362-.191.416-.012s-.237.109-.348.2a.691.691,0,0,1-.147.073c-.107-.006-.221.043-.333-.045.077-.19.308-.089.411-.217" transform="translate(-632.134 -2556.06)" fill="#602413"/>
      <path id="Trazado_913153" data-name="Trazado 913153" d="M602.532,2450.86c.08.036.271-.067.2.159l-.713.11c-.062.01-.122,0-.136-.07s.045-.1.1-.107l.544-.092" transform="translate(-594.763 -2421.871)" fill="#752e15"/>
      <path id="Trazado_913154" data-name="Trazado 913154" d="M588.836,2306.769c.011.08.123.185-.055.216-.242-.052-.5.032-.746-.128l.8-.088" transform="translate(-581.08 -2279.484)" fill="#8a361c"/>
      <path id="Trazado_913155" data-name="Trazado 913155" d="M661.358,1761.647c1.441.632,2.829,1.373,4.241,2.063,1.452.709,2.9,1.432,4.346,2.149-.043.157-.178.161-.3.179-2.3.322-4.6.673-6.9,1.039a17.385,17.385,0,0,0-2.144.349.316.316,0,0,1-.345-.091c-.2-.053-.013-.21-.081-.3-.01-.027,0-.044.026-.051a1.366,1.366,0,0,0,.24-.97,6.192,6.192,0,0,1,.426-2.025,2.689,2.689,0,0,0,.083-.953.153.153,0,0,1,.067-.143c.186-.2.057-.515.274-.7a.158.158,0,0,1-.063-.145.508.508,0,0,0,.13-.4" transform="translate(-652.352 -1740.81)" fill="#fec386"/>
      <path id="Trazado_913156" data-name="Trazado 913156" d="M575.958,2200.908a.23.23,0,0,0-.026.051,2.67,2.67,0,0,1-1.022-.1,2.586,2.586,0,0,1,.961-.083l.087.137" transform="translate(-568.11 -2174.734)" fill="#874327"/>
      <path id="Trazado_913157" data-name="Trazado 913157" d="M654.482,1847.249a.15.15,0,0,1-.067.143,2.217,2.217,0,0,1-.867-.379,2.8,2.8,0,0,1,.934.235" transform="translate(-645.818 -1825.167)" fill="#79422b"/>
      <path id="Trazado_913158" data-name="Trazado 913158" d="M681.581,1773.733a.153.153,0,0,1,.063.145,1.81,1.81,0,0,1-.8-.228.1.1,0,0,1-.074-.133c.028-.062.1-.05.149-.031.223.08.445.164.667.247" transform="translate(-672.705 -1752.494)" fill="#74432c"/>
      <path id="Trazado_913159" data-name="Trazado 913159" d="M614.691,1986.09a2.952,2.952,0,0,1-.945-.107.1.1,0,0,1-.055-.075.077.077,0,0,1,.091-.078,2.839,2.839,0,0,1,.908.26" transform="translate(-606.433 -1962.339)" fill="#76361b"/>
      <path id="Trazado_913160" data-name="Trazado 913160" d="M633.788,1913.528a2.263,2.263,0,0,1-.869-.226l.029-.118.866.236-.027.108" transform="translate(-625.433 -1890.555)" fill="#713821"/>
      <path id="Trazado_913161" data-name="Trazado 913161" d="M590.267,2130.964a1.865,1.865,0,0,1-.926-.128c.322-.163.6.021.864-.018a.125.125,0,0,1,.062.146" transform="translate(-582.37 -2105.565)" fill="#74341e"/>
      <path id="Trazado_913162" data-name="Trazado 913162" d="M602.887,2059.724c-.09-.123-.339.049-.362-.2a2.321,2.321,0,0,1,.921.149,1.116,1.116,0,0,1-.559.047" transform="translate(-595.398 -2035.164)" fill="#712d19"/>
      <path id="Trazado_913163" data-name="Trazado 913163" d="M667.63,1818.03a4.846,4.846,0,0,0,1.124-.169c2.086-.3,4.169-.624,6.251-.947.772-.12,1.552-.182,2.315-.36.2-.15.433.064.638-.049a6.777,6.777,0,0,0-.792-1.246c-.517-.745-1.049-1.479-1.575-2.218-.011-.023-.01-.062,0-.061.331.027.716-.147.983.125.941.96,1.865,1.936,2.821,2.881a.3.3,0,0,1,.111.208,1.148,1.148,0,0,1-.225.386,3.381,3.381,0,0,0-.525,1.417c-.022.143-.016.31-.2.375a1.1,1.1,0,0,1-.342.038q-2.883,0-5.766,0a.576.576,0,0,1-.455-.111c-1.189,0-2.378-.006-3.566,0-.235,0-.452-.082-.683-.082-.085,0-.108-.072-.122-.143a.3.3,0,0,0,.006-.048" transform="translate(-659.727 -1791.505)" fill="#1a5160"/>
      <path id="Trazado_913164" data-name="Trazado 913164" d="M933.271,2265.283h6.642c.153.173.114.39.135.593a.792.792,0,0,1-.724.7,1.09,1.09,0,0,0-.411.165,1.375,1.375,0,0,1-.716.177l-6.169-.823c.058-.034.16-.06.166-.1.052-.329.331-.358.562-.467.172-.082.379-.093.516-.247" transform="translate(-921.003 -2238.489)" fill="#0b3a4a"/>
      <path id="Trazado_913165" data-name="Trazado 913165" d="M2755.62,1414.791c-.279-.172.021-.281.076-.314a3.024,3.024,0,0,0,.478-.417c.226.026.141.129.047.217a3.426,3.426,0,0,1-.6.514" transform="translate(-2722.911 -1397.334)" fill="#591e11"/>
      <path id="Trazado_913166" data-name="Trazado 913166" d="M2883.967,1592.549c-.049.036-.083.063-.119.086l-.582.366c-.067.042-.136.051-.179-.02s.025-.1.071-.132c.2-.135.4-.268.6-.405.043-.03.08-.046.12-.007a1.281,1.281,0,0,1,.092.113" transform="translate(-2848.973 -1573.579)" fill="#50150e"/>
      <path id="Trazado_913167" data-name="Trazado 913167" d="M2846.386,1533.3a.31.31,0,0,1-.059.077c-.206.14-.415.276-.621.415-.057.039-.108.037-.144-.021a.092.092,0,0,1,.007-.087c.216-.158.433-.314.655-.463.08-.054.121.021.163.079" transform="translate(-2811.897 -1515.069)" fill="#51130a"/>
      <path id="Trazado_913168" data-name="Trazado 913168" d="M2801.809,1471.791a.414.414,0,0,1-.061.082c-.188.15-.379.3-.569.444a.121.121,0,0,1-.184-.006c-.046-.059.009-.1.057-.136.193-.146.385-.294.577-.44.033-.025.065-.072.114-.026a.786.786,0,0,1,.066.083" transform="translate(-2767.848 -1454.281)" fill="#58190e"/>
      <path id="Trazado_913169" data-name="Trazado 913169" d="M1947.211,1120.346l-.173-1.268a.446.446,0,0,1-.122-.279c-.144-.908-.265-1.82-.44-2.724a1.61,1.61,0,0,1-.009-.206c-.02-.255-.091-.5-.1-.76a.8.8,0,0,1,.67-.72,1.925,1.925,0,0,0,1.009-.845,2.268,2.268,0,0,1,.377-.489.731.731,0,0,0,.221-.383,1.98,1.98,0,0,1,.325-.72.549.549,0,0,0,.087-.7,10.459,10.459,0,0,1,2.12.711c.193.09.389.174.584.261.088.155-.03.263-.093.377-.9,1.639-1.812,3.269-2.719,4.9-.5.9-.991,1.8-1.492,2.694-.047.085-.057.283-.249.153" transform="translate(-1923.35 -1098.103)" fill="#fec68a"/>
      <path id="Trazado_913170" data-name="Trazado 913170" d="M1894.832,1060.854a.793.793,0,0,0,.145.139c.17.1.217.2.042.333a.765.765,0,0,0-.269.394,4.346,4.346,0,0,1-.918,1.572,1.748,1.748,0,0,1-1.164.831c-.283.025-.381.292-.447.543-.137-.085-.139-.234-.16-.365-.106-.658-.22-1.316-.312-1.977-.074-.52-.163-1.039-.234-1.559-.018-.134-.056-.273.055-.39a.65.65,0,0,1,.06-.113c.312.1.618-.1.952.036a7.484,7.484,0,0,0,1.385.336c.295.054.575.15.864.22" transform="translate(-1869.121 -1047.71)" fill="#fdcf9a"/>
      <path id="Trazado_913171" data-name="Trazado 913171" d="M1763.469,1052.425l.267,1.939a.352.352,0,0,1-.3.29c-.22.058-.279.2-.276.411.007.506,0,1.012,0,1.518a1.368,1.368,0,0,1-.232.781.7.7,0,0,1-1.014.2c-.142-.32.041-.63.03-.947.01-.059.025-.117.04-.175.158-1.271.376-2.534.553-3.8a.485.485,0,0,1,.118-.282l.067-.146h.672l.075.219" transform="translate(-1741.021 -1039.76)" fill="#427a88"/>
      <path id="Trazado_913172" data-name="Trazado 913172" d="M2017.33,1200.049c.032-.006.083,0,.093-.021q2.219-4,4.432-8.008a.448.448,0,0,0,.028-.1l.058-.018.068.153c.108.119.011.217-.041.311-.825,1.519-1.667,3.029-2.479,4.554-.58,1.088-1.166,2.173-1.749,3.259-.072.133-.091.322-.294.347a1.182,1.182,0,0,1-.116-.478" transform="translate(-1993.469 -1177.806)" fill="#70372c"/>
      <path id="Trazado_913173" data-name="Trazado 913173" d="M2136.745,996.823a1.986,1.986,0,0,1-.13.891c-.111-.224-.083-.405.13-.891" transform="translate(-2111.279 -985.032)" fill="#97654b"/>
      <path id="Trazado_913174" data-name="Trazado 913174" d="M2207.585,1023.157a1.8,1.8,0,0,1,.27-.82,1.3,1.3,0,0,1-.27.82" transform="translate(-2181.474 -1010.245)" fill="#845644"/>
      <path id="Trazado_913175" data-name="Trazado 913175" d="M2280.205,1052.393a1.287,1.287,0,0,1-.31.814,1.461,1.461,0,0,1,.31-.814" transform="translate(-2252.929 -1039.945)" fill="#8a5a41"/>
      <path id="Trazado_913176" data-name="Trazado 913176" d="M2351.352,1085.091a1.371,1.371,0,0,1-.369.77,1.719,1.719,0,0,1,.369-.77" transform="translate(-2323.176 -1072.256)" fill="#7d5438"/>
      <path id="Trazado_913177" data-name="Trazado 913177" d="M2027.133,1190.045q1.033-1.912,2.067-3.824,1.179-2.17,2.363-4.337c.053-.1.145-.183.134-.31l.212-.278a2.723,2.723,0,0,1,.926.354c.053.057-.108.234.111.2.194.146.383.285.605.033.032-.036.128-.016.194-.021.062.215-.171.3-.2.468.158-.125.2-.381.441-.427.023.261-.046.582.379.581.011.164-.124.258-.184.391.068.015.112-.066.181-.05.1.121.027.229-.051.306a2.373,2.373,0,0,0-.528.879,15.879,15.879,0,0,1-1,1.72c-.07.131-.127.269-.2.4a.2.2,0,0,0,.113.3c-.691.491-1.379.988-2.074,1.473-1.148.8-2.3,1.6-3.49,2.418Z" transform="translate(-2003.156 -1167.324)" fill="#febb7b"/>
      <path id="Trazado_913178" data-name="Trazado 913178" d="M2707.719,1364.482a.547.547,0,0,1-.082-.076c-.046-.061,0-.111.038-.147.188-.164.381-.323.571-.485.038-.032.083-.047.122-.014a.124.124,0,0,1,.032.089,3.067,3.067,0,0,1-.681.634" transform="translate(-2675.591 -1347.611)" fill="#602916"/>
      <path id="Trazado_913179" data-name="Trazado 913179" d="M2659.994,1313.992c-.074-.018-.145-.071-.087-.137.184-.21.379-.412.583-.6.061-.057.126,0,.134.082a3.414,3.414,0,0,1-.63.657" transform="translate(-2628.425 -1297.697)" fill="#5d2816"/>
      <path id="Trazado_913180" data-name="Trazado 913180" d="M2608.457,1265.692l-.16.173c-.051.054-.111.087-.172.023s0-.1.032-.143c.1-.13.2-.263.3-.394l.1-.088c.052-.044.077-.168.179-.069.073.071-.005.124-.04.174-.077.111-.161.217-.243.325" transform="translate(-2577.255 -1250.191)" fill="#63311d"/>
      <path id="Trazado_913181" data-name="Trazado 913181" d="M2554.642,1224.921c-.138.183-.273.368-.414.548-.039.049-.088.13-.165.062-.06-.052-.042-.117.008-.182.116-.153.223-.312.333-.469.1-.084.173-.056.238.041" transform="translate(-2523.816 -1210.343)" fill="#6d3620"/>
      <path id="Trazado_913182" data-name="Trazado 913182" d="M2497.042,1180.572l-.238.262c-.068-.228.07-.334.127-.461.12-.1.157-.277.339-.37.028.254-.192.377-.229.569" transform="translate(-2467.253 -1166.046)" fill="#6a331d"/>
      <path id="Trazado_913183" data-name="Trazado 913183" d="M2514.428,1583.361l-.337.236c.056-.16.107-.326.337-.236" transform="translate(-2484.354 -1564.607)" fill="#febb7b"/>
      <path id="Trazado_913184" data-name="Trazado 913184" d="M784.186,2416.594c1.177-.645,2.4-1.208,3.6-1.8,1.658-.813,3.321-1.617,4.981-2.426.082-.04.158-.091.237-.136a.166.166,0,0,1,.247-.012c.094.095.021.2-.032.281-.267.417-.582.8-.87,1.2-1.085,1.516-2.242,2.979-3.31,4.507-.081.116-.144.273-.326.277-.34-.176-.515-.582-.912-.672a.935.935,0,0,0-1.046.321.687.687,0,0,1-.933.042c-.212-.152-.488-.2-.656-.426-.052-.068-.126-.006-.186.025a.5.5,0,0,1-.28.005.165.165,0,0,1-.062-.234c.094-.167-.013-.273-.09-.393-.077-.07-.2-.038-.271-.117.118-.177.267-.361-.089-.443" transform="translate(-774.911 -2383.64)" fill="#fead67"/>
      <path id="Trazado_913185" data-name="Trazado 913185" d="M1152.991,2325.268q1.395-1.885,2.789-3.771.748-1.014,1.488-2.033a1.293,1.293,0,0,0,.264-.45h-.249c-.12-.1-.281-.047-.41-.112l-.489-.047c.394-.068.708-.382,1.085-.426a.782.782,0,0,0,.688-.592c.1.04.113.14.135.226a2.75,2.75,0,0,0,.757,1.252c.089.09.23.168.167.339l.138,1.307-6.495,4.632-.034-.038.164-.286" transform="translate(-1139.191 -2290.42)" fill="#073241"/>
      <path id="Trazado_913186" data-name="Trazado 913186" d="M856.305,2997.066a.534.534,0,0,1-.107-.077c-.049-.058-.01-.116.033-.148.216-.161.434-.318.657-.47.026-.018.087,0,.125.017a.07.07,0,0,1,.019.116,3.871,3.871,0,0,1-.726.562" transform="translate(-846.048 -2960.922)" fill="#49110a"/>
      <path id="Trazado_913187" data-name="Trazado 913187" d="M899.69,3049.833a.655.655,0,0,1-.126-.141c-.042-.084.063-.064.094-.093.184-.167.379-.321.57-.48.056-.046.123-.086.181-.024.082.088,0,.138-.062.191-.178.16-.357.319-.531.484-.034.032-.057.068-.126.062" transform="translate(-888.914 -3012.999)" fill="#421108"/>
      <path id="Trazado_913188" data-name="Trazado 913188" d="M805.56,2939.108c.292-.189.513-.336.739-.477.06-.037.127-.12.206-.022s-.019.133-.074.182c-.232.209-.444.472-.871.316" transform="translate(-796.032 -2903.806)" fill="#4b0f08"/>
      <path id="Trazado_913189" data-name="Trazado 913189" d="M734.859,2820.27c.113-.014.272-.132.271.117a2.529,2.529,0,0,0-.623.354c-.087.068-.245.12-.309.009-.075-.132.1-.144.176-.193.158-.1.324-.192.486-.287" transform="translate(-725.495 -2786.872)" fill="#4e100b"/>
      <path id="Trazado_913190" data-name="Trazado 913190" d="M949.679,3098.4c-.01-.021-.027-.062-.047-.1a.086.086,0,0,1,.03-.119,3.921,3.921,0,0,0,.631-.572.1.1,0,0,1,.149,0,.086.086,0,0,1,.008.143q-.313.29-.629.577a.953.953,0,0,1-.141.076" transform="translate(-938.387 -3060.937)" fill="#440e07"/>
      <path id="Trazado_913191" data-name="Trazado 913191" d="M773.887,2880.194c.093-.028.184-.153.28-.005a.283.283,0,0,1-.155.217.759.759,0,0,1-.551.281c-.068-.022-.142.119-.2,0-.04-.079,0-.126.094-.171a5.542,5.542,0,0,0,.532-.327" transform="translate(-764.1 -2846.052)" fill="#491209"/>
      <path id="Trazado_913192" data-name="Trazado 913192" d="M791.387,2904.746a2.326,2.326,0,0,1,.551-.282c-.065.327-.246.425-.551.282" transform="translate(-782.026 -2870.11)" fill="#fead67"/>
      <path id="Trazado_913193" data-name="Trazado 913193" d="M1599.874,2004.479a3.421,3.421,0,0,1-1.059-1.816l-.056-.62a3.362,3.362,0,0,1,.849-2.148c.034-.171.173-.256.292-.359a2.961,2.961,0,0,1,1.358-.613.843.843,0,0,1,.631.059,3.008,3.008,0,0,1,2.846,1.866,5.3,5.3,0,0,1,.013.651.992.992,0,0,1-.219.605c-.332.439-.645.457-1.019.058-.165-.176-.3-.383-.478-.543a3.8,3.8,0,0,0-.427-.492,1.1,1.1,0,0,0-1.422.042,1.039,1.039,0,0,0-.169,1.451c.088.136.2.247.3.373a2.827,2.827,0,0,0,2.264,1.176c.155,0,.352-.077.449.137l-.126.155a3.456,3.456,0,0,1-2.088.771,3.83,3.83,0,0,1-1.943-.754" transform="translate(-1579.849 -1975.247)" fill="#fe984f"/>
      <path id="Trazado_913194" data-name="Trazado 913194" d="M1811.658,2165.08c.273.166.411.458.629.676a.369.369,0,0,0,.57.023.972.972,0,0,0,.4-.8,1.066,1.066,0,0,1,.07-.606,2.769,2.769,0,0,1,.29,1.193,3.5,3.5,0,0,1-.651,1.941c-.137.084-.184.264-.343.325-.355-.106-.73-.007-1.09-.115a2.839,2.839,0,0,1-1.686-1.167c.116-.088.222-.01.32.031a1.131,1.131,0,0,0,1.466-1.14c-.015-.117-.071-.248.025-.362" transform="translate(-1788.44 -2138.774)" fill="#d65f29"/>
      <path id="Trazado_913195" data-name="Trazado 913195" d="M1689.686,1504.19a3.073,3.073,0,0,0-2.007.662c-.122-.13-.052-.281-.046-.425a6.7,6.7,0,0,1,.136-1.12,3.574,3.574,0,0,0,.083-.458,1.806,1.806,0,0,1,.149-.929c.191-.034.219.134.282.242a.3.3,0,0,0,.344.168c.148-.024.3-.035.446-.063a.475.475,0,0,0,.4-.379,3.206,3.206,0,0,0,.111-.821c0-.681,0-1.362,0-2.043,0-.467.108-.606.572-.652.249-.025.453-.159.691-.2.166,1.084.369,2.163.486,3.255a2.16,2.16,0,0,1-1.117.135c-.525.009-.532.009-.532.514q0,1.055,0,2.11" transform="translate(-1667.645 -1480.456)" fill="#1d515f"/>
      <path id="Trazado_913196" data-name="Trazado 913196" d="M1334.475,1064.611c-.075.948-.267,1.88-.387,2.822-.057.442-.138.881-.208,1.322-.118,0-.087-.153-.2-.185a17.881,17.881,0,0,1-1.03,1.648,1.728,1.728,0,0,1-1.114.865.463.463,0,0,1-.336.007.656.656,0,0,1-.242-.286c-.756-1.41-1.56-2.794-2.287-4.219-.05-.1-.143-.187-.1-.317a.563.563,0,0,0,0-.061,15.762,15.762,0,0,1,4.111-1.322c.6-.1,1.2-.183,1.8-.274" transform="translate(-1312.841 -1052.019)" fill="#fdd7a7"/>
      <path id="Trazado_913197" data-name="Trazado 913197" d="M1320.283,1087.519a1.749,1.749,0,0,1,.456.88,1.613,1.613,0,0,1-.456-.88" transform="translate(-1304.667 -1074.656)" fill="#87624c"/>
      <path id="Trazado_913198" data-name="Trazado 913198" d="M1477.209,1025.194c.082.244.165.488.246.733.02.06.075.137-.034.164-.077.019-.095-.051-.106-.1-.055-.259-.231-.493-.2-.77l.1-.023" transform="translate(-1459.637 -1013.068)" fill="#89694c"/>
      <path id="Trazado_913199" data-name="Trazado 913199" d="M1403.224,1056.261a1.619,1.619,0,0,1,.327.83,1.255,1.255,0,0,1-.327-.83" transform="translate(-1386.626 -1043.767)" fill="#816047"/>
      <path id="Trazado_913200" data-name="Trazado 913200" d="M1553.6,1006.7a4.527,4.527,0,0,1-.255-.947,1.051,1.051,0,0,1,.255.947" transform="translate(-1534.97 -993.855)" fill="#7f583c"/>
      <path id="Trazado_913201" data-name="Trazado 913201" d="M1630.754,1000.713a1.217,1.217,0,0,1-.146-.73,1.386,1.386,0,0,1,.146.73" transform="translate(-1611.317 -988.155)" fill="#9d704e"/>
      <path id="Trazado_913202" data-name="Trazado 913202" d="M1312.306,1204.685c.583,1.066,1.164,2.133,1.75,3.2.293.532.6,1.058.9,1.586a5.775,5.775,0,0,1,.854,1.512.286.286,0,0,1-.176.241,3.269,3.269,0,0,1-.755-1.337l-2.777-5.19.206-.009" transform="translate(-1296.58 -1190.436)" fill="#916f5a"/>
      <path id="Trazado_913203" data-name="Trazado 913203" d="M1166.085,1575.948c-.139.511-.112,1.043-.2,1.56l-.273.251c-.76-.7-1.5-1.422-2.186-2.194-.268-.3-.561-.577-.846-.861-.037-.037-.123-.089-.138-.077-.23.19-.433.022-.645-.034-.021-.006-.053.034-.08.053l-1.438-1.881c-.249-.336-.458-.7-.711-1.064l3.534,2.339a2.641,2.641,0,0,1,.857.5c.687.446,1.362.911,2.053,1.351l.076.061" transform="translate(-1145.85 -1553.111)" fill="#2a6371"/>
      <path id="Trazado_913204" data-name="Trazado 913204" d="M1460.917,1647.538a2.455,2.455,0,0,1-.757-.454c-.724-.484-1.472-.931-2.165-1.461a1.2,1.2,0,0,1,.4-.942,1.128,1.128,0,0,0,.168-.215.491.491,0,0,1,.477-.325l.756,1.32a3.786,3.786,0,0,1,.689,1.126c.163.3.438.566.429.95" transform="translate(-1440.747 -1624.694)" fill="#fdcd95"/>
      <path id="Trazado_913205" data-name="Trazado 913205" d="M1719.733,1237.791a.714.714,0,0,1-.594.281c-.479,0-.569.113-.57.593q0,1.072,0,2.143a1.856,1.856,0,0,1-.008.276c-.124.808-.379,1.018-1.2,1a.23.23,0,0,1-.241-.154c-.055-.137-.129-.267-.195-.4-.137-.125-.07-.281-.052-.421.1-.8.228-1.591.307-2.391.047-.2.093-.4.121-.6.015-.106,0-.237.151-.266.655.256,1.064-.175,1.109-.8s.012-1.242.012-1.864c0-.162-.032-.3.239-.283a.532.532,0,0,0,.439-.232l.384,2.352.1.765" transform="translate(-1696.531 -1220.07)" fill="#2a6371"/>
      <path id="Trazado_913206" data-name="Trazado 913206" d="M1555.752,1387.11a16.83,16.83,0,0,1-.245,2.117c-.024.239-.058.477-.087.716a4.46,4.46,0,0,0-.1.976c-.127.013-.186-.081-.239-.167-.293-.479-.556-.975-.826-1.468a.457.457,0,0,1-.043-.234l-.81-1.533a1.7,1.7,0,0,0,1.407-.948c.176-.34.416-.624.613-.941a1.552,1.552,0,0,0,.311-.555c.016-.1.085-.223.2-.206.132.02.083.165.1.26a.465.465,0,0,0,.038.094l-.025.082c-.175.589-.162,1.209-.291,1.806" transform="translate(-1535.028 -1368.486)" fill="#fdcd98"/>
      <path id="Trazado_913207" data-name="Trazado 913207" d="M1752.052,1423.69a5.3,5.3,0,0,1,.291-1.806l-.1.964c-.11.27-.034.584-.195.842" transform="translate(-1731.329 -1405.066)" fill="#fdd7a7"/>
      <path id="Trazado_913208" data-name="Trazado 913208" d="M1765.644,2161.495a1.218,1.218,0,0,1-.369,1.37,1.2,1.2,0,0,1-1.442.1,1.274,1.274,0,0,1-.441-1.532,1.222,1.222,0,0,1,2.081-.2c.063.081.114.172.171.258" transform="translate(-1742.426 -2135.188)" fill="#571c16"/>
      <path id="Trazado_913209" data-name="Trazado 913209" d="M1610.954,1738.688q.461.816.924,1.632c.049.087.075.195.184.235l-.056.4a.216.216,0,0,1-.066.008l-1.117-2.076.131-.2" transform="translate(-1591.77 -1718.123)" fill="#682d22"/>
      <path id="Trazado_913210" data-name="Trazado 913210" d="M1778.316,2173.564a1,1,0,0,1,1.055-.864.973.973,0,0,1,.972,1.024,2.261,2.261,0,0,1-1.8.175c-.178-.052-.3-.12-.225-.335" transform="translate(-1757.258 -2146.998)" fill="#fcfcfd"/>
      <path id="Trazado_913211" data-name="Trazado 913211" d="M1778.648,2246.063c.028.071-.005.192.089.206.508.073,1.016.307,1.53.016.126-.072.254-.168.409-.062a1.024,1.024,0,1,1-2.027-.16" transform="translate(-1757.591 -2219.496)" fill="#dcdde0"/>
    </g>
  </g>
</svg>
