<svg id="Grupo_1104826" data-name="Grupo 1104826" xmlns="http://www.w3.org/2000/svg" xmlns:xlink="http://www.w3.org/1999/xlink" width="85.853" height="40.83" viewBox="0 0 85.853 40.83">
  <defs>
    <clipPath id="clip-path">
      <rect id="Rectángulo_402942" data-name="Rectángulo 402942" width="85.853" height="40.83" fill="none"/>
    </clipPath>
  </defs>
  <g id="Grupo_1101080" data-name="Grupo 1101080" transform="translate(0 0)" clip-path="url(#clip-path)">
    <path id="Trazado_911964" data-name="Trazado 911964" d="M51.539,17.062l1.413-1.508a2.922,2.922,0,0,1,3.327-.653,5.687,5.687,0,0,1,3.854,5.307,6.7,6.7,0,0,1-.473,3.34,1.648,1.648,0,0,0-.161.544c-.04.426-.205.894.261,1.207.293.2.763.078,1.105-.478A5.269,5.269,0,0,1,63.76,22.8a14.667,14.667,0,0,1,4.277-.749,18.182,18.182,0,0,1,5.661.307,6.168,6.168,0,0,1,3.481,1.782c.163.192.358.357.507.558.665.9.338,1.959.45,2.948a2.461,2.461,0,0,1-1.116,2.6c-.266.171-.353.622-.574,1.045,2,.855,3.908,1.646,5.791,2.5a3.73,3.73,0,0,1,1.332,1,1.532,1.532,0,0,1-.4,2.3,10.156,10.156,0,0,1-.887.684,6.186,6.186,0,0,1-4.067,1.155,48.059,48.059,0,0,0-9.252-.143,3.8,3.8,0,0,0-.934.118,7.828,7.828,0,0,1-2.432.251c-3.47.119-6.936-.067-10.4-.04-1.13.009-2.261-.174-3.391-.263-2.322-.182-4.641-.429-6.966-.519a63.808,63.808,0,0,0-9.847.373c-1.757.2-3.511.437-5.273.584a91.238,91.238,0,0,1-10.045.219c-2.655-.069-5.314,0-7.969-.088-2.268-.077-4.536-.259-6.8-.469a4.323,4.323,0,0,1-1.765-.611,1.137,1.137,0,0,1-.048-2.111,7.838,7.838,0,0,1,3.073-1.007q.27-.529.593-1.16c-.221-.276-.4-.537-.611-.758a4.418,4.418,0,0,1-1.183-3.3c.016-1.954,1.21-3.249,2.511-4.458a1.825,1.825,0,0,1,1.235-.386,4.6,4.6,0,0,1,2.693.783,7.468,7.468,0,0,1,2.252,1.985.88.88,0,0,0,.125.143c.348.39.74.763,1.3.539.652-.26.642-.821.579-1.435a11.565,11.565,0,0,1,1.9-7.379,29.718,29.718,0,0,1,3.416-4.532,8.339,8.339,0,0,1,2.066-1.63,2.327,2.327,0,0,1,3.425.846,17.1,17.1,0,0,1,2.09,4.853,9.308,9.308,0,0,0,.329,1.08.925.925,0,0,0,.895.588.967.967,0,0,0,.888-.6,2.047,2.047,0,0,0,.192-.723,14.589,14.589,0,0,1,1.857-5.513c.53-1.006.965-2.063,1.531-3.045a20.738,20.738,0,0,1,6.505-7.258,8.12,8.12,0,0,1,4.408-1.572c2.086,0,3.151.845,3.788,3.007a22.482,22.482,0,0,0,.831,2.488,19.329,19.329,0,0,1,1.2,3.566,17.8,17.8,0,0,1,.216,3.381c0,.272-.256.56-.425.821-.646,1-.513,1.278.76,1.511" transform="translate(-0.428 -0.407)" fill="#fff" fill-rule="evenodd"/>
    <path id="Trazado_911965" data-name="Trazado 911965" d="M79.362,30.207c.644.283,1.265.579,1.9.829a18.875,18.875,0,0,1,2.666,1.321,4.252,4.252,0,0,1,1.749,2.368,2.288,2.288,0,0,1-.357,2.332,8.826,8.826,0,0,0-.809,1.05,1.853,1.853,0,0,1-1.2.85,6.492,6.492,0,0,0-1.61.527,5.3,5.3,0,0,1-3.642.686,53.479,53.479,0,0,0-6.241-.3c-.316,0-.634-.02-.947.008-1.948.174-3.894.366-5.843.533-.435.038-.875-.006-1.312,0-.691.012-1.382.039-2.074.048-1.193.013-2.389.062-3.581.016-2.586-.1-5.171-.244-7.757-.371a2.308,2.308,0,0,1-.378-.022,31.276,31.276,0,0,0-8.474-.4c-1.946.09-3.9.187-5.852.214a53.613,53.613,0,0,0-6,.608c-1.684.211-3.405.13-5.109.189-1.132.039-2.266.153-3.4.135-1.937-.03-3.873-.139-5.81-.207a9.052,9.052,0,0,0-1.137.018c-2.589.228-5.158-.189-7.739-.21a13.641,13.641,0,0,1-4.929-1.223,2.057,2.057,0,0,1-.8-3.516,16.058,16.058,0,0,1,1.358-1.316c.459-.422.938-.822,1.436-1.258a6.517,6.517,0,0,1-.513-3.69,7.451,7.451,0,0,1,3.657-5.868,2.982,2.982,0,0,1,1.441-.367,6.62,6.62,0,0,1,4.087,1.231,16.776,16.776,0,0,0,1.435.874c.407-1.316.837-2.5,1.135-3.719a20.15,20.15,0,0,1,2.834-5.939,11.374,11.374,0,0,1,4.474-3.986,4.727,4.727,0,0,1,3.839-.21,3.244,3.244,0,0,1,1.017.811,13.762,13.762,0,0,1,2.34,3.59c.507.067.509-.341.633-.585.86-1.685,1.687-3.387,2.556-5.067a27.53,27.53,0,0,1,5.031-6.825,10.02,10.02,0,0,1,2.446-1.75A11.613,11.613,0,0,1,44.669.009a7.142,7.142,0,0,1,4.613,1.386,2.173,2.173,0,0,1,.569.941c.342.812.618,1.651.971,2.457a23.417,23.417,0,0,1,1.448,5.465c.138.8.249,1.609.363,2.35.213.095.352.214.431.183,1.852-.722,3.478-.044,5.028.866a5.91,5.91,0,0,1,2.941,4,23.062,23.062,0,0,1,.242,3.379,10.633,10.633,0,0,1-.059,1.134c.559.221.875-.175,1.259-.3.417-.136.843-.252,1.262-.387a18.737,18.737,0,0,1,8.22-.68,12.179,12.179,0,0,1,4.807,1.64,9.432,9.432,0,0,1,2.252,1.98,3.413,3.413,0,0,1,.581,2.711c-.088.689-.221,1.373-.3,2.064a6.37,6.37,0,0,0,.059,1.008M51.111,16.654c-1.273-.233-1.406-.509-.76-1.511.168-.261.428-.549.425-.821a17.8,17.8,0,0,0-.216-3.381,19.329,19.329,0,0,0-1.2-3.566,22.482,22.482,0,0,1-.831-2.488c-.638-2.162-1.7-3.007-3.788-3.007a8.12,8.12,0,0,0-4.408,1.572,20.738,20.738,0,0,0-6.505,7.258c-.566.982-1,2.04-1.531,3.045a14.589,14.589,0,0,0-1.857,5.513,2.047,2.047,0,0,1-.192.723.967.967,0,0,1-.888.6.925.925,0,0,1-.895-.588,9.308,9.308,0,0,1-.329-1.08,17.1,17.1,0,0,0-2.09-4.853,2.327,2.327,0,0,0-3.425-.846,8.339,8.339,0,0,0-2.066,1.63,29.718,29.718,0,0,0-3.416,4.532,11.565,11.565,0,0,0-1.9,7.379c.063.614.074,1.175-.579,1.435-.563.224-.954-.15-1.3-.539a.88.88,0,0,1-.125-.143,7.468,7.468,0,0,0-2.252-1.985,4.6,4.6,0,0,0-2.693-.783,1.825,1.825,0,0,0-1.235.386c-1.3,1.209-2.495,2.5-2.511,4.458a4.418,4.418,0,0,0,1.183,3.3c.214.221.39.482.611.758q-.324.632-.593,1.16a7.838,7.838,0,0,0-3.073,1.007,1.137,1.137,0,0,0,.048,2.111,4.323,4.323,0,0,0,1.765.611c2.261.21,4.529.392,6.8.469,2.654.089,5.314.019,7.969.088a91.238,91.238,0,0,0,10.045-.219c1.762-.147,3.516-.38,5.273-.584a63.808,63.808,0,0,1,9.847-.373c2.326.09,4.645.337,6.966.519,1.131.089,2.262.272,3.391.263,3.468-.027,6.934.159,10.4.04A7.828,7.828,0,0,0,67.6,38.5a3.8,3.8,0,0,1,.934-.118,48.059,48.059,0,0,1,9.252.143,6.186,6.186,0,0,0,4.067-1.155,10.156,10.156,0,0,0,.887-.684,1.532,1.532,0,0,0,.4-2.3,3.73,3.73,0,0,0-1.332-1c-1.883-.855-3.795-1.646-5.791-2.5.222-.423.308-.874.574-1.045a2.461,2.461,0,0,0,1.116-2.6c-.113-.989.214-2.046-.45-2.948-.149-.2-.344-.366-.507-.558a6.168,6.168,0,0,0-3.481-1.782,18.182,18.182,0,0,0-5.661-.307,14.667,14.667,0,0,0-4.277.749,5.269,5.269,0,0,0-2.894,2.021c-.342.556-.813.676-1.105.478-.467-.313-.3-.782-.261-1.207a1.648,1.648,0,0,1,.161-.544A6.7,6.7,0,0,0,59.7,19.8a5.687,5.687,0,0,0-3.854-5.307,2.922,2.922,0,0,0-3.327.653l-1.413,1.508" transform="translate(0 0)" fill="#0b2f5b" fill-rule="evenodd"/>
  </g>
</svg>
