<svg xmlns="http://www.w3.org/2000/svg" xmlns:xlink="http://www.w3.org/1999/xlink" width="227.316" height="306.465" viewBox="0 0 227.316 306.465">
  <defs>
    <clipPath id="clip-path">
      <rect id="Rectángulo_402941" data-name="Rectángulo 402941" width="227.317" height="306.465" fill="none"/>
    </clipPath>
  </defs>
  <g id="Grupo_1104828" data-name="Grupo 1104828" transform="translate(14 26)">
    <g id="Grupo_1101078" data-name="Grupo 1101078" transform="translate(-14 -26)" clip-path="url(#clip-path)">
      <path id="Trazado_911903" data-name="Trazado 911903" d="M115.456,35.814a2.611,2.611,0,0,1-.544,1.787,2.013,2.013,0,0,0-.365,1.337,1.9,1.9,0,0,1-.623,1.586,1.5,1.5,0,0,0-.491,1.139,4.735,4.735,0,0,1-.734,2.265,6.993,6.993,0,0,0-.739,2.087c-.242,1.138-.776,2.212-1.119,3.333a50.537,50.537,0,0,0-1.722,5.305.92.92,0,0,1-.154.448c-.948.975-.767,2.3-1.049,3.47a3.633,3.633,0,0,0,.159,1.571.978.978,0,0,0,.869.826,1.107,1.107,0,0,0,1.2-.609,12.237,12.237,0,0,0,.932-2.029,39.336,39.336,0,0,0,1.427-4.588,13.508,13.508,0,0,1,.657-1.8c.911-2.828,1.756-5.677,2.586-8.531.566-1.945,1.218-3.865,1.857-5.789a11.336,11.336,0,0,1,.6-1.276c.466-.032.353.326.453.532a5.639,5.639,0,0,0,.326.519,40.424,40.424,0,0,0-.9,5.525,23.774,23.774,0,0,1-.847,4.064,50.125,50.125,0,0,1-1.8,5.785,22.96,22.96,0,0,0-.887,3.721,2.826,2.826,0,0,0,.113,1.1.478.478,0,0,0,.343.281.507.507,0,0,0,.413-.18,4.029,4.029,0,0,0,.416-.855c.216-.6.4-1.208.6-1.8,1.258-.513,2.45.028,3.651.083a13.045,13.045,0,0,1,3.543.791,15.713,15.713,0,0,1-1.726,2.318,14.211,14.211,0,0,0-2.771,2.863,2.068,2.068,0,0,1-.608.505c-.471.342-.952.673-1.428,1.013a5.159,5.159,0,0,1-.507.385,6.435,6.435,0,0,0-1.121.583,5.271,5.271,0,0,0-.751,1.034,14.367,14.367,0,0,0,1.4,3.863,21.129,21.129,0,0,1,1.541,3.665,11.383,11.383,0,0,0,.9,2.036,14.01,14.01,0,0,1,.8,1.907,1.533,1.533,0,0,1-.383,1.887,2.8,2.8,0,0,0-.38.538c-.842,0-1.695.062-2.535-.013-1.431-.128-2.851-.4-4.286-.5a4.173,4.173,0,0,1-2.551-1.184c-.438-.387-.828-.824-1.266-1.211a29.024,29.024,0,0,1-3.748-4.155c-.876-1.141-1.825-2.228-2.721-3.354-.5-.624-.952-1.285-1.4-1.887-1.4-.22-2.756-.528-4.124-.626-2.5-.179-4.966-.621-7.459-.865-3.239-.316-6.457-.826-9.7-1.125a27.173,27.173,0,0,1-3.92-.713c-.825-.2-1.4.348-2.124.424-.3.032-.4.459-.319.8.227.93.485,1.853.693,2.787.486,2.188.934,4.384,1.428,6.57.245,1.093.532,2.178.841,3.254a45.932,45.932,0,0,1,1.234,4.951,33.394,33.394,0,0,0,.9,3.232c.073.254.093.522.149.78a5.458,5.458,0,0,0,.354,1.394A13.812,13.812,0,0,1,79,90.443c.545,2.171,1.11,4.339,1.74,6.487a11.873,11.873,0,0,1,.384,3.169,2.006,2.006,0,0,1-1.357,2.038,6.265,6.265,0,0,1-2.091-1.364c-1.348-1.291-2.6-2.679-3.836-4.078-1.2-1.354-2.235-2.838-3.559-4.095a21.771,21.771,0,0,1-2.158-2.773c-.256-.337-.47-.707-.741-1.032-1.155-1.382-2.324-2.754-3.486-4.132a2.415,2.415,0,0,1-.288-.386,23.843,23.843,0,0,0-3.421-4.212,8.4,8.4,0,0,1-.676-.894c-.384-.571-.631-1.247-1.307-1.582-.124-.061-.181-.255-.274-.385q-1.45-2.007-2.9-4.017a18.7,18.7,0,0,1-1.1-1.566,22.047,22.047,0,0,0-3.714-4.548,2.351,2.351,0,0,1-.49-.629,6.743,6.743,0,0,0-1.534-1.831c-.412-.408-.738-.9-1.125-1.337-1.133-1.27-2.28-2.527-3.415-3.793-.426-.474-.856-.949-1.246-1.453a1.559,1.559,0,0,0-1.071-.6,55.775,55.775,0,0,0-6.017-.816A1.5,1.5,0,0,1,35,56.573c-1.851-.5-3.758-.695-5.64-1.019-2.049-.351-4.085-.77-6.128-1.152-.631-.118-1.262-.241-1.9-.311a60.641,60.641,0,0,1-6.444-1.229c-.154-.034-.371-.04-.446-.142-.594-.821-1.6-.786-2.386-1.194A24.319,24.319,0,0,1,8.432,49.5a23.07,23.07,0,0,1-5.457-5.567,11.263,11.263,0,0,1-1.589-3.789,1.611,1.611,0,0,1,.421-1.62,6.165,6.165,0,0,1,1.827-1.61,5.714,5.714,0,0,1,.339.882,7.463,7.463,0,0,0,1.8,3.482c.346.4.545.918.874,1.334.524.662,1.083,1.3,1.664,1.917a8.1,8.1,0,0,0,1.712,1.612c1.7.949,3.289,2.158,5.449,2a4.736,4.736,0,0,0,2.493-.911.651.651,0,0,0,.249-.847,2.914,2.914,0,0,0-1.966-1.95,4.928,4.928,0,0,1-1.837-.95c-1.115-.815-2.1-1.8-3.257-2.562a4.6,4.6,0,0,1-1.069-1.182A4.3,4.3,0,0,0,9.006,38.6c-.793-.529-.972-1.459-1.325-2.381a18.613,18.613,0,0,1,4.21-.475c1.48-.052,2.966.017,4.443-.079a56.578,56.578,0,0,1,11.189.326.747.747,0,0,0,.159.022,33.894,33.894,0,0,1,5.382.454c1.807.132,3.614.266,5.419.431,1.537.139,3.071.321,4.606.485,1.376.149,2.754.28,4.126.459.895.114,1.784.285,2.671.456,1.676.324,3.36.56,5.067.717a18.741,18.741,0,0,1,4.377.917,15.778,15.778,0,0,0,3.267.732c2.274.276,4.519.71,6.779,1.058,2.215.341,4.44.6,6.654.939,1.317.2,2.621.481,3.932.715s2.621.452,3.931.68c1.837.321,3.666.743,5.517.949,2.346.26,4.6.958,6.931,1.271q2.138.287,4.263.632a1.318,1.318,0,0,0,1.049-.257q2.663-1.92,5.33-3.836c.392-.278.823-.5,1.19-.808.533-.439,1-.958,1.534-1.392,1.9-1.539,3.659-3.239,5.541-4.8.03-.024.1,0,.208,0M75.677,59.042a8.078,8.078,0,0,0,1.235-.739,4.8,4.8,0,0,0,.9-1.1.86.86,0,0,0-.287-1.136A4.1,4.1,0,0,0,75.3,55.3a.816.816,0,0,0-.769.47c-.246.581-.471,1.172-.722,1.8.544.541.912,1.221,1.866,1.469m12.567-2.725c-.371-.174-.609-.289-.851-.4-.978-.466-1.534-.435-2.02.432a8,8,0,0,0-.584,2.226.564.564,0,0,0,.172.426c.264.25.564.459.819.662,1.151-.262,1.6-1.287,2.464-1.852ZM81.378,55.8c-1.385-.028-1.929.735-1.817,2.2.116,1.513,1.1,1.864,2.329.953a4.042,4.042,0,0,0,.612-.51,1.375,1.375,0,0,0,.138-1.635c-.258-.554-.558-1.047-1.262-1.005m-23.17.241a2.39,2.39,0,0,0,1.084-2.729,1.654,1.654,0,0,0-1.485-1.019,1.225,1.225,0,0,0-1.2,1.071c-.188,1.463-.338,2.1,1.444,2.669a.674.674,0,0,0,.159.008M23.385,49.956c.508.068.877.114,1.244.167a.788.788,0,0,0,.816-.381,3.328,3.328,0,0,0,.482-2.3,1.176,1.176,0,0,0-1.685-.913,1.854,1.854,0,0,0-1.1,1.9c.06.469.148.935.242,1.524M91.413,60.816a16.765,16.765,0,0,0,.823-1.569,1.291,1.291,0,0,0-.968-1.706,1.553,1.553,0,0,0-2,1.3,7.878,7.878,0,0,0,.006,1.334c.689.425,1.2.956,2.139.641M28.23,47.883c.13.6.242.991.3,1.394a1.6,1.6,0,0,0,.788,1.135.668.668,0,0,0,.879-.048,2.609,2.609,0,0,0,.776-2.307,1.983,1.983,0,0,0-.541-.946.638.638,0,0,0-.864-.153c-.444.276-.862.594-1.335.925m7.7,1.9a5.306,5.306,0,0,0,.088-.667,1.426,1.426,0,0,0-1.081-1.225,1.234,1.234,0,0,0-1.216.584,2.2,2.2,0,0,0-.17,1.986,1.478,1.478,0,0,0,1.4.864,1.177,1.177,0,0,0,.969-1.1,1.3,1.3,0,0,0,.007-.439m10.666,3.8a3.687,3.687,0,0,0,1.075-1.754.945.945,0,0,0-.216-.883,1.441,1.441,0,0,0-2.482.3,1.366,1.366,0,0,0,.56,1.92,7.1,7.1,0,0,0,1.063.42m15.986,1.325c.048.365.073.735.151,1.092a.67.67,0,0,0,.823.55,2.016,2.016,0,0,0,1.5-2.66,1.073,1.073,0,0,0-1.7-.457,1.585,1.585,0,0,0-.772,1.474M52.357,54.52c.452,0,.713.019.973,0,.891-.075,1.215-.432,1.218-1.292a1.935,1.935,0,0,0-.673-1.544.828.828,0,0,0-.871-.2,1.238,1.238,0,0,0-1,1.406,13.115,13.115,0,0,0,.356,1.631M71.4,54.2c-.229-.042-.488-.107-.75-.132a1.274,1.274,0,0,0-1.423.784c-.279.619-.21.967.345,1.578a1.494,1.494,0,0,0,1.063.618c1.713-1.1,1.767-1.3.765-2.848M41.145,51.41c-.1-.472-.173-.88-.278-1.28a1.043,1.043,0,0,0-1.807-.561,1.644,1.644,0,0,0-.635,1.231,1.589,1.589,0,0,0,.882,1.367l1.837-.757M25.492,45.97c-.177-.035-.316-.07-.455-.086-.033,0-.073.057-.112.088a1.258,1.258,0,0,0,.313.184c.054.013.137-.1.254-.186" transform="translate(-0.219 -5.869)" fill="#fff" fill-rule="evenodd"/>
      <path id="Trazado_911904" data-name="Trazado 911904" d="M81.965,35.044a18.324,18.324,0,0,1-4.405-.382c-1.16-.116-2.311-.321-3.465-.493-.368-.053-.734-.13-1.1-.19-1.208-.2-2.428-.344-3.625-.6s-2.37-.6-3.548-.913a5.49,5.49,0,0,0-.745-.275c-1.381-.145-2.676-.653-4.029-.91-.725-.138-1.485-.094-2.217-.217-1.515-.255-3.023-.565-4.532-.863A1.308,1.308,0,0,1,53.926,30a.489.489,0,0,1,.376-.641c1.207-.346,2.095-1.256,3.208-1.767.528-.241,1-.6,1.519-.857a9.022,9.022,0,0,0,1.64-.982,16.2,16.2,0,0,1,1.786-1.038A39.479,39.479,0,0,0,66.7,21.923c1.458-1.155,3.011-2.19,4.539-3.253,2.131-1.484,4.338-2.851,6.574-4.166a3.607,3.607,0,0,0,.837-.464c1.125-1.191,2.649-1.754,3.988-2.606,1.114-.713,2.144-1.561,3.277-2.238,1.231-.735,2.271-1.793,3.695-2.206a2.424,2.424,0,0,0,.542-.336c1.721-1.059,3.393-2.216,5.181-3.148,1.684-.877,3.328-1.938,5.352-2.118a2.125,2.125,0,0,1,.624,2.434,17.471,17.471,0,0,1-2.446,4.47c-1.181,1.834-2.348,3.677-3.521,5.518-.027.044-.029.11-.066.144a22.6,22.6,0,0,0-2.241,3.084,31.2,31.2,0,0,0-2.271,3.475c-.667,1.145-1.42,2.239-2.15,3.347-1.7,2.579-3.373,5.178-4.888,7.87-.37.658-1.123,1.213-.856,2.143-.29.375-.579.75-.9,1.173" transform="translate(-8.904 -0.229)" fill="#fff" fill-rule="evenodd"/>
      <path id="Trazado_911905" data-name="Trazado 911905" d="M91.6,83.8c-.623-.867-.379-1.984-.676-2.958-.31-1.008-.52-2.047-.8-3.167a1.593,1.593,0,0,1,.587-.115,1.688,1.688,0,0,1,1.214.925,2.253,2.253,0,0,1,.265.909c-.017,1.317-.074,2.632-.144,3.946a.425.425,0,0,1-.45.46" transform="translate(-14.888 -12.81)" fill="#fff" fill-rule="evenodd"/>
      <path id="Trazado_911906" data-name="Trazado 911906" d="M95.367,97.865a11.239,11.239,0,0,1-1.01-4.056c.944.907,1.082,1.456,1.01,4.056" transform="translate(-15.586 -15.496)" fill="#fff" fill-rule="evenodd"/>
      <path id="Trazado_911907" data-name="Trazado 911907" d="M94.835,32.607a8.781,8.781,0,0,1,1.683-2.962c0,.217.083.472,0,.647-.417.869-.681,1.853-1.681,2.315" transform="translate(-15.665 -4.897)" fill="#fff" fill-rule="evenodd"/>
      <path id="Trazado_911908" data-name="Trazado 911908" d="M104.983,17.128a.831.831,0,0,1-.843.927,5.107,5.107,0,0,1,.335-.575,4.708,4.708,0,0,1,.432-.424Z" transform="translate(-17.202 -2.817)" fill="#fff" fill-rule="evenodd"/>
      <path id="Trazado_911909" data-name="Trazado 911909" d="M105.058,16.872c.144-.261.288-.523.511-.929.215.635,0,.874-.434,1Z" transform="translate(-17.354 -2.634)" fill="#fff" fill-rule="evenodd"/>
      <path id="Trazado_911910" data-name="Trazado 911910" d="M78.135,76.428a1.385,1.385,0,0,0,.319.182c2.01.473,2.569,2.064,2.909,3.8.1.521.113,1.059.183,1.586a7.769,7.769,0,0,1-.489,3.905,1.65,1.65,0,0,0-.142.914c.255,1.026.366,2.078.635,3.1a14.909,14.909,0,0,1,.407,5.248,3.521,3.521,0,0,1-1.8,2.5,9.949,9.949,0,0,1-4.579-2.782c-1.209-1.261-2.37-2.58-3.641-3.775a68.558,68.558,0,0,1-5.314-5.749c-1.853-2.19-3.564-4.491-5.391-6.7-.53-.639-1.28-.98-1.761-1.61a18.116,18.116,0,0,0-1.168-1.89,46.624,46.624,0,0,1-3.356-4.257,2.041,2.041,0,0,1-.176-.266c-.393-.7-1.23-.983-1.529-1.807a8.877,8.877,0,0,0-1.15-2.082c-.49-.688-1.111-1.281-1.66-1.926a6.381,6.381,0,0,1-.772-1.014,17.712,17.712,0,0,0-3.129-3.808c-.777-.795-1.437-1.706-2.135-2.576A20.156,20.156,0,0,1,41.7,53.688a.853.853,0,0,0-.506-.353,18.414,18.414,0,0,0-2.021-.5c-1.888-.323-3.788-.586-5.674-.915-1.471-.256-2.929-.585-4.4-.858-1.727-.321-3.463-.594-5.187-.937-1.36-.27-2.727-.543-4.051-.947-1.8-.55-3.654-.756-5.474-1.163a4.39,4.39,0,0,1-.934-.2c-1.488-.717-2.959-1.47-4.436-2.207-1.893-.943-3.28-2.544-4.932-3.8a6.988,6.988,0,0,1-1.443-1.7A15.521,15.521,0,0,1,.214,35.664a4.094,4.094,0,0,1,.775-4.037,6.072,6.072,0,0,1,2.948-2.075A13.213,13.213,0,0,1,7.2,28.895c1.966-.076,3.924-.344,5.888-.513.69-.062,1.384-.077,2.076-.1.907-.029,1.813-.055,2.72-.062.689-.005,1.377.028,2.068.038,1.325.02,2.65.011,3.972.06s2.647.164,3.97.24a3.768,3.768,0,0,0,.634-.041c.212-.026.457-.161.625-.094,1.273.513,2.638.179,3.945.468a29.912,29.912,0,0,0,3.66.376,18.245,18.245,0,0,1,2.069.194,6.293,6.293,0,0,0,4.314-.81,28.437,28.437,0,0,0,2.517-1.67,32.09,32.09,0,0,1,5.4-3.086,2.763,2.763,0,0,0,.811-.51,17.756,17.756,0,0,1,4.075-2.771A11.054,11.054,0,0,0,58,18.879a3.8,3.8,0,0,1,1.432-.988,3.9,3.9,0,0,0,.942-.571,6.5,6.5,0,0,1,1.883-1.192c1.148-1.209,2.924-1.545,3.99-2.88a1.487,1.487,0,0,1,.806-.488A6.309,6.309,0,0,0,69.189,11.7c1.475-.951,3.065-1.743,4.455-2.8C75.01,7.861,76.529,7.1,77.969,6.2A17.024,17.024,0,0,1,82.226,4a3.819,3.819,0,0,0,1.15-.557c1.445-1.02,3.139-1.558,4.64-2.447A9.646,9.646,0,0,1,92.48,0a.7.7,0,0,1,.533.294,3.542,3.542,0,0,1,.6,3.161,18.678,18.678,0,0,1-2.241,4.733,38.253,38.253,0,0,0-2.076,3.7c.1.442.238.953.341,1.472a1.965,1.965,0,0,1-.426,1.8c-.81.922-1.564,1.892-2.379,2.808A2.646,2.646,0,0,1,84.6,18.8l-2.5,3.739c.118.68.243,1.357.35,2.035a1.258,1.258,0,0,1-.02.471c-.337,1.387-.476,2.873-1.831,3.768a.771.771,0,0,0-.194.254,2.909,2.909,0,0,1-2.409,1.37c-.263.022-.525.053-.795.08a6.235,6.235,0,0,0-1.306,2.564,15.809,15.809,0,0,1-.734,2.048,1.532,1.532,0,0,0,.542.287c1.057.127,2.093.346,3.136.549,1.083.211,2.206.328,3.312.487,1.9.27,3.806.477,5.678.923,1.089.26,2.2.42,3.3.631.734.14,1.465.288,2.2.434a12.939,12.939,0,0,0,2.682.328,25.746,25.746,0,0,1,3.659.331,2.44,2.44,0,0,0,1.822-.4c1.535-1.065,3.07-2.13,4.6-3.207a27.011,27.011,0,0,0,2.321-1.714c1.4-1.228,2.751-2.513,4.108-3.793a6.64,6.64,0,0,1,2.029-1.539,2.1,2.1,0,0,0,.784-.538,1.821,1.821,0,0,1,2.062-.417,6.942,6.942,0,0,0,1.226.317,1.767,1.767,0,0,1,1.488,1.07,4.3,4.3,0,0,1,.243,3.414,25.674,25.674,0,0,0-1.38,5.394,35.8,35.8,0,0,1-.969,4.7c-.361,1.5-.806,2.976-1.245,4.572a6.343,6.343,0,0,0,1.043.346c.9.134,1.8.227,2.7.316a11.263,11.263,0,0,1,3.535.964,1.8,1.8,0,0,1,1.079,2.177,2.667,2.667,0,0,1-.7,1.231c-.828.826-1.6,1.708-2.411,2.545-.521.532-1.081,1.023-1.625,1.534-.038.036-.1.051-.134.088a17.326,17.326,0,0,1-1.676,1.707,16.448,16.448,0,0,1-2.02,1.188,4.549,4.549,0,0,0,.61,2.378,24.359,24.359,0,0,1,1.469,3.521,4.566,4.566,0,0,0,.416.864,12.3,12.3,0,0,1,1.117,2.642,16.018,16.018,0,0,0,.649,1.634c.2.489.387.981.562,1.425-.4.6-.777,1.12-1.115,1.664a2.089,2.089,0,0,1-1.106.866,5.11,5.11,0,0,1-2.524.248c-1.533-.206-3.05-.509-4.577-.745a7.054,7.054,0,0,0-1.1-.007,3.256,3.256,0,0,1-2.2-.811c-.562-.49-1.089-1.018-1.658-1.5a5.367,5.367,0,0,1-1.314-1.386,3.484,3.484,0,0,0-.668-.672,56.743,56.743,0,0,1-4.4-4.441,20.525,20.525,0,0,0-1.842-1.977,2.328,2.328,0,0,0-1.137-.493c-.791-.139-1.6-.148-2.393-.27-1.843-.286-3.679-.62-5.521-.912-1.316-.211-2.641-.379-3.958-.577a24.579,24.579,0,0,0-4.916-.65c-1.493-.6-3.166-.314-4.661-.988a10.448,10.448,0,0,0-2.263-.464c-.3.766.306,1.465.331,2.231a6.056,6.056,0,0,0,.619,2.308,6.728,6.728,0,0,1,3.332,1.5,1.423,1.423,0,0,1,.568.926,14.412,14.412,0,0,1-.071,5.882A3.051,3.051,0,0,1,77.8,73.03a.844.844,0,0,0-.339.982c.218.821.452,1.638.67,2.416m9.57-62.189a4.828,4.828,0,0,0-.432.424,4.952,4.952,0,0,0-.334.576.832.832,0,0,0,.842-.928c.438-.127.649-.366.435-1-.224.406-.367.668-.511.929m27.531,15.706c-.111,0-.178-.022-.208,0-1.882,1.558-3.64,3.257-5.541,4.8-.536.433-1,.952-1.534,1.392-.366.3-.8.53-1.189.807q-2.668,1.915-5.33,3.837a1.321,1.321,0,0,1-1.05.257q-2.126-.347-4.263-.632c-2.331-.313-4.586-1.012-6.931-1.271-1.852-.206-3.68-.628-5.517-.949-1.311-.23-2.622-.447-3.931-.681s-2.615-.514-3.932-.714c-2.214-.336-4.44-.6-6.654-.939-2.26-.348-4.506-.782-6.779-1.059a15.659,15.659,0,0,1-3.267-.732,18.741,18.741,0,0,0-4.377-.917c-1.706-.157-3.39-.393-5.067-.718-.886-.171-1.776-.341-2.67-.455-1.372-.179-2.751-.311-4.126-.459-1.534-.165-3.07-.346-4.606-.485-1.8-.165-3.612-.3-5.419-.431a33.9,33.9,0,0,0-5.383-.454.754.754,0,0,1-.159-.022,56.578,56.578,0,0,0-11.189-.326c-1.476.1-2.962.027-4.443.079a18.565,18.565,0,0,0-4.21.475c.354.922.533,1.852,1.326,2.381A4.3,4.3,0,0,1,9.871,33.87a4.6,4.6,0,0,0,1.069,1.182c1.16.765,2.141,1.747,3.257,2.562a4.928,4.928,0,0,0,1.837.95A2.911,2.911,0,0,1,18,40.515a.652.652,0,0,1-.248.847,4.745,4.745,0,0,1-2.493.91c-2.161.159-3.754-1.049-5.45-2A8.076,8.076,0,0,1,8.1,38.66c-.581-.614-1.14-1.255-1.665-1.917-.328-.416-.528-.938-.873-1.334a7.476,7.476,0,0,1-1.806-3.482,5.622,5.622,0,0,0-.338-.882,6.169,6.169,0,0,0-1.828,1.61,1.611,1.611,0,0,0-.421,1.62,11.28,11.28,0,0,0,1.589,3.789,23.07,23.07,0,0,0,5.457,5.567,24.361,24.361,0,0,0,3.621,2.024c.787.407,1.792.373,2.386,1.194.074.1.291.108.445.142a60.509,60.509,0,0,0,6.444,1.228c.637.069,1.269.194,1.9.311,2.042.382,4.079.8,6.128,1.153,1.882.325,3.788.514,5.639,1.019a1.5,1.5,0,0,0,.318.039,55.994,55.994,0,0,1,6.018.816,1.559,1.559,0,0,1,1.07.6c.391.5.821.978,1.246,1.453,1.136,1.266,2.283,2.524,3.415,3.793.387.434.714.928,1.126,1.337A6.758,6.758,0,0,1,49.5,60.575a2.361,2.361,0,0,0,.49.629,22.06,22.06,0,0,1,3.713,4.547,18.624,18.624,0,0,0,1.1,1.566q1.446,2.011,2.9,4.018c.093.129.15.324.274.385.677.335.924,1.011,1.308,1.581a8.4,8.4,0,0,0,.675.895,23.91,23.91,0,0,1,3.422,4.212,2.372,2.372,0,0,0,.287.386c1.162,1.378,2.332,2.749,3.486,4.132.271.324.485.695.741,1.032a21.779,21.779,0,0,0,2.159,2.773c1.324,1.256,2.362,2.74,3.559,4.095,1.236,1.4,2.487,2.787,3.835,4.078a6.286,6.286,0,0,0,2.091,1.364A2,2,0,0,0,80.9,94.23a11.839,11.839,0,0,0-.384-3.169c-.629-2.148-1.194-4.315-1.74-6.487a13.765,13.765,0,0,0-.948-3.359,5.5,5.5,0,0,1-.353-1.394c-.058-.258-.077-.526-.149-.781a33.148,33.148,0,0,1-.9-3.231,45.935,45.935,0,0,0-1.235-4.951c-.309-1.077-.594-2.161-.84-3.254-.493-2.186-.942-4.382-1.428-6.57-.208-.934-.466-1.858-.693-2.787-.086-.346.019-.774.318-.8.723-.077,1.3-.624,2.124-.425a27.165,27.165,0,0,0,3.921.714c3.24.3,6.459.808,9.7,1.124,2.492.244,4.959.685,7.458.865,1.369.1,2.722.406,4.125.626.443.6.9,1.261,1.4,1.887.9,1.126,1.846,2.213,2.721,3.354a29.119,29.119,0,0,0,3.749,4.155c.437.387.828.825,1.266,1.211a4.176,4.176,0,0,0,2.552,1.184c1.435.093,2.855.368,4.286.5.841.074,1.693.013,2.535.013a2.767,2.767,0,0,1,.38-.538,1.535,1.535,0,0,0,.383-1.887,14.071,14.071,0,0,0-.8-1.907,11.347,11.347,0,0,1-.9-2.036,21.168,21.168,0,0,0-1.542-3.665,14.368,14.368,0,0,1-1.4-3.863,5.34,5.34,0,0,1,.752-1.035,6.461,6.461,0,0,1,1.121-.582,5.259,5.259,0,0,0,.507-.385c.476-.34.957-.671,1.428-1.013a2.057,2.057,0,0,0,.608-.505,14.217,14.217,0,0,1,2.772-2.863,15.708,15.708,0,0,0,1.726-2.318,13.072,13.072,0,0,0-3.543-.792c-1.2-.053-2.392-.594-3.651-.082-.195.592-.383,1.2-.6,1.8a4.049,4.049,0,0,1-.416.855.506.506,0,0,1-.413.179.476.476,0,0,1-.343-.281,2.82,2.82,0,0,1-.113-1.1,23.049,23.049,0,0,1,.887-3.721,50.092,50.092,0,0,0,1.8-5.786,23.819,23.819,0,0,0,.847-4.064,40.517,40.517,0,0,1,.9-5.524,5.47,5.47,0,0,1-.326-.519c-.1-.205.013-.563-.454-.533a11.429,11.429,0,0,0-.6,1.277c-.639,1.923-1.291,3.843-1.857,5.789-.83,2.854-1.675,5.7-2.587,8.531a13.536,13.536,0,0,0-.656,1.8,39.447,39.447,0,0,1-1.427,4.588,12.214,12.214,0,0,1-.932,2.03,1.108,1.108,0,0,1-1.2.609.979.979,0,0,1-.869-.827A3.632,3.632,0,0,1,107.7,52.7c.281-1.17.1-2.494,1.049-3.47a.914.914,0,0,0,.153-.447,50.278,50.278,0,0,1,1.723-5.305c.344-1.121.877-2.2,1.119-3.333a6.992,6.992,0,0,1,.738-2.087,4.717,4.717,0,0,0,.734-2.265,1.5,1.5,0,0,1,.491-1.14,1.889,1.889,0,0,0,.623-1.585,2.017,2.017,0,0,1,.366-1.338,2.607,2.607,0,0,0,.543-1.786m-42.174,4.87c.324-.423.614-.8.9-1.174-.268-.929.486-1.484.855-2.142,1.514-2.693,3.188-5.291,4.888-7.871.73-1.107,1.484-2.2,2.151-3.346a31.392,31.392,0,0,1,2.27-3.476,22.585,22.585,0,0,1,2.241-3.083c.037-.033.039-.1.066-.144,1.173-1.84,2.34-3.683,3.521-5.517A17.487,17.487,0,0,0,92.4,3.591a2.127,2.127,0,0,0-.624-2.434c-2.023.18-3.667,1.241-5.352,2.118-1.787.933-3.459,2.09-5.181,3.149a2.4,2.4,0,0,1-.541.335c-1.424.413-2.464,1.473-3.695,2.207-1.133.676-2.163,1.525-3.277,2.238-1.338.852-2.862,1.415-3.987,2.606a3.607,3.607,0,0,1-.837.464c-2.237,1.314-4.443,2.681-6.574,4.166-1.528,1.064-3.081,2.1-4.54,3.253a39.51,39.51,0,0,1-4.243,2.792,16,16,0,0,0-1.786,1.038,9.079,9.079,0,0,1-1.64.982c-.52.259-.993.616-1.519.857-1.114.512-2,1.421-3.208,1.767a.488.488,0,0,0-.376.641,1.315,1.315,0,0,0,.371.205c1.51.3,3.017.608,4.533.863.732.123,1.492.079,2.217.217,1.352.256,2.648.765,4.028.91a5.5,5.5,0,0,1,.745.275c1.178.316,2.353.663,3.548.912s2.416.4,3.625.6c.368.06.733.136,1.1.19,1.155.172,2.3.377,3.464.493a18.331,18.331,0,0,0,4.406.382m3.653,36.173a.426.426,0,0,0,.45-.46c.069-1.314.127-2.63.143-3.947a2.261,2.261,0,0,0-.265-.908,1.684,1.684,0,0,0-1.214-.925,1.575,1.575,0,0,0-.587.115c.276,1.12.487,2.159.8,3.167.3.974.053,2.091.676,2.958M79.781,82.37c.072-2.6-.066-3.15-1.01-4.057a11.243,11.243,0,0,0,1.01,4.057M79.17,27.71c1-.462,1.264-1.446,1.681-2.315.085-.175.006-.43,0-.647A8.782,8.782,0,0,0,79.17,27.71" transform="translate(0 0)" fill="#0b2f5b" fill-rule="evenodd"/>
      <path id="Trazado_911911" data-name="Trazado 911911" d="M271.367,163.466a4.733,4.733,0,0,1-.154-.581,6.991,6.991,0,0,1-.168-1.311c.019-.564-.533-.791-.636-1.265-.06-.272-.145-.539-.223-.806a1.684,1.684,0,0,0-1.134-1.143,1.156,1.156,0,0,0-1.509.26,1.224,1.224,0,0,0-.26,1.443c.4.922.794,1.85,1.175,2.782.3.737.583,1.482.862,2.229a1.1,1.1,0,0,0,.793.71,2.393,2.393,0,0,0,.427-.152,1.9,1.9,0,0,0,.827-2.165" transform="translate(-44.129 -26.132)" fill="#0b2f5b" fill-rule="evenodd"/>
      <path id="Trazado_911912" data-name="Trazado 911912" d="M234.133,198.239a.709.709,0,0,0,.823-.675,1.259,1.259,0,0,0-.129-.573,7.971,7.971,0,0,1-.964-2.431,2.155,2.155,0,0,0-.316-.642c-.352-.673-.7-1.352-1.062-2.017a2.958,2.958,0,0,0-.535-.786.879.879,0,0,0-.649-.212,1.588,1.588,0,0,0-1.21,1.793,14.962,14.962,0,0,0,.635,1.943c.248.571.442,1.206,1.1,1.51a.7.7,0,0,1,.317.476c.187,1.14,1.05,1.418,1.989,1.614" transform="translate(-38.001 -31.533)" fill="#0b2f5b" fill-rule="evenodd"/>
      <path id="Trazado_911913" data-name="Trazado 911913" d="M232.769,152.425a1.529,1.529,0,0,0,1.57,1.073,2.962,2.962,0,0,0,.752-.183,1.723,1.723,0,0,0-.006-2.076,3.162,3.162,0,0,1-.339-.766,36.214,36.214,0,0,0-2.033-3.8,1.019,1.019,0,0,0-1.107-.546,1.182,1.182,0,0,0-.895,1.019,4.28,4.28,0,0,0,.548,2.3,16.992,16.992,0,0,1,1.508,2.975" transform="translate(-38.109 -24.133)" fill="#0b2f5b" fill-rule="evenodd"/>
      <path id="Trazado_911914" data-name="Trazado 911914" d="M252.646,237.495a36.675,36.675,0,0,0-.729-4.246,1.02,1.02,0,0,0-.878-.868,1.182,1.182,0,0,0-1.17.685,4.269,4.269,0,0,0-.207,2.359,17.1,17.1,0,0,1,.49,3.3,1.532,1.532,0,0,0,1.152,1.514,2.912,2.912,0,0,0,.77.064,1.726,1.726,0,0,0,.653-1.971,3.068,3.068,0,0,1-.08-.836" transform="translate(-41.226 -38.385)" fill="#0b2f5b" fill-rule="evenodd"/>
      <path id="Trazado_911915" data-name="Trazado 911915" d="M229.583,181.7c-.14-.786.266-1.585-.057-2.369a3.047,3.047,0,0,0-.015-1.775,2.737,2.737,0,0,1,.055-.712l.128,0c-.037-.557-.046-1.118-.123-1.671a.736.736,0,0,0-.867-.646,1.088,1.088,0,0,0-1.061.84,17.633,17.633,0,0,0-.467,2.591,7.852,7.852,0,0,1-.155,1.179,1.222,1.222,0,0,0-.1.467c.171.865.341,1.735.567,2.585a.86.86,0,0,0,1.256.536,3.5,3.5,0,0,0,.523-.3.727.727,0,0,0,.316-.726" transform="translate(-37.483 -28.828)" fill="#0b2f5b" fill-rule="evenodd"/>
      <path id="Trazado_911916" data-name="Trazado 911916" d="M178.942,82.514a7.356,7.356,0,0,0-2.348-1.422.635.635,0,0,1-.281-.22c-.473-.515-1.283-.431-1.741-.976-.04-.048-.154-.034-.232-.05-.413-.028-.655.278-.925.506a.787.787,0,0,0-.154,1.084,3.733,3.733,0,0,0,1.232,1.112,6.628,6.628,0,0,1,1.688,1.116,3.106,3.106,0,0,0,.821.473q.949.377,1.927.681a1.874,1.874,0,0,0,.812.083.6.6,0,0,0,.427-.922,4.014,4.014,0,0,0-1.225-1.467" transform="translate(-28.594 -13.189)" fill="#0b2f5b" fill-rule="evenodd"/>
      <path id="Trazado_911917" data-name="Trazado 911917" d="M242.187,210.485c.688-.523.833-.957.442-1.717a16.807,16.807,0,0,0-.982-1.5c-.129-.2-.332-.387-.355-.6a1.292,1.292,0,0,0-.643-.97,5.034,5.034,0,0,1-1.743-1.794,1.2,1.2,0,0,0-.667-.463.666.666,0,0,0-.853.811c.11.508.256,1.01.38,1.518a2.222,2.222,0,0,0,.846,1.391,12.412,12.412,0,0,1,1.441,1.424,2.775,2.775,0,0,0,2.134,1.9" transform="translate(-39.209 -33.599)" fill="#0b2f5b" fill-rule="evenodd"/>
      <path id="Trazado_911918" data-name="Trazado 911918" d="M159.474,74.3a5.516,5.516,0,0,1,1.988.816,1.49,1.49,0,0,0,.684.2,3.635,3.635,0,0,1,2.006.729,1.779,1.779,0,0,0,2,.2A4.287,4.287,0,0,0,164,73.769c-.722-.349-1.44-.713-2.175-1.033-.586-.256-1.195-.468-1.8-.675a.954.954,0,0,0-1.278.984c.057.52.112,1.145.73,1.26" transform="translate(-26.221 -11.894)" fill="#0b2f5b" fill-rule="evenodd"/>
      <path id="Trazado_911919" data-name="Trazado 911919" d="M245.118,156.161a1.141,1.141,0,0,0,.412-.232,8.134,8.134,0,0,1,2.475-1.427,2.358,2.358,0,0,0,1.372-1.168,5.852,5.852,0,0,0-.5-.8,1.085,1.085,0,0,0-1.3-.326,18.531,18.531,0,0,0-3.3,1.408,1.848,1.848,0,0,0-1.017,1.364c-.041.273-.05.551-.077.835l1.056.548c.336-.078.61-.124.88-.206" transform="translate(-40.169 -25.128)" fill="#0b2f5b" fill-rule="evenodd"/>
      <path id="Trazado_911920" data-name="Trazado 911920" d="M250.878,249.876c-.351.178-.672.339-1.063.538-.134.316-.256.569-.345.836a1.119,1.119,0,0,0-.053.468,8.14,8.14,0,0,1-.285,2.844,2.352,2.352,0,0,0,.148,1.795,5.664,5.664,0,0,0,.937.061,1.089,1.089,0,0,0,1.024-.864,18.438,18.438,0,0,0,.783-3.506,1.838,1.838,0,0,0-.515-1.62c-.2-.194-.415-.365-.631-.551" transform="translate(-41.135 -41.275)" fill="#0b2f5b" fill-rule="evenodd"/>
      <path id="Trazado_911921" data-name="Trazado 911921" d="M262.484,151.8c-.455-.1-.883-.19-1.311-.29a2.81,2.81,0,0,1-1.02-.28,1.314,1.314,0,0,0-1.459-.132.976.976,0,0,1-.467.1,1.1,1.1,0,0,0-1.227.852c.063.781.761,1.032,1.121,1.549.25.023.488.061.729.064a11.982,11.982,0,0,1,3.3.4,1.181,1.181,0,0,0,1.421-.6c-.039-.806-.67-1.172-1.09-1.658" transform="translate(-42.452 -24.932)" fill="#0b2f5b" fill-rule="evenodd"/>
      <path id="Trazado_911922" data-name="Trazado 911922" d="M269.324,172.5a6.323,6.323,0,0,0-1.488.952,3.745,3.745,0,0,1-1.41.869c-1.169.426-1.477,1.21-1.033,2.52a1.784,1.784,0,0,0,2.272-.412c.44-.487.505-.44,1.45-.549.422-.634.861-1.295,1.351-2.033a6.246,6.246,0,0,0-.091-.867.729.729,0,0,0-1.051-.479" transform="translate(-43.806 -28.479)" fill="#0b2f5b" fill-rule="evenodd"/>
      <path id="Trazado_911923" data-name="Trazado 911923" d="M254.66,176.344a4.633,4.633,0,0,1-2.079-.894,1.912,1.912,0,0,0-2.169-.063.954.954,0,0,0-.462,1.132,1.655,1.655,0,0,0,1.09,1.2c.867.318,1.753.589,2.636.864a1.8,1.8,0,0,0,2.048-.65c-.014-.163-.042-.321-.041-.478a1.032,1.032,0,0,0-1.023-1.115" transform="translate(-41.281 -28.92)" fill="#0b2f5b" fill-rule="evenodd"/>
      <path id="Trazado_911924" data-name="Trazado 911924" d="M243.748,168.643c-.1-.3-.16-.622-.266-.924-.078-.225-.141-.52-.31-.634a5.251,5.251,0,0,1-1.249-1.443,3.806,3.806,0,0,0-.869-.822.971.971,0,0,0-1.529.561,1.428,1.428,0,0,0,.083.922,19,19,0,0,0,1.231,2.059,4.209,4.209,0,0,0,2.332,1.751c.856-.621.852-.621.578-1.468" transform="translate(-39.559 -27.193)" fill="#0b2f5b" fill-rule="evenodd"/>
      <path id="Trazado_911925" data-name="Trazado 911925" d="M212.277,115.186a2.3,2.3,0,0,0-.233-.8,5.538,5.538,0,0,0-1.426-2.067.916.916,0,0,1-.269-.394c-.38-.918-1.276-1.008-1.925-1.279a.926.926,0,0,0-1.04.426.9.9,0,0,0,0,1.028,3.809,3.809,0,0,0,1.146,1.221,3.39,3.39,0,0,1,1.065,1.1,3.933,3.933,0,0,0,1.921,1.372.538.538,0,0,0,.761-.613" transform="translate(-34.229 -18.275)" fill="#0b2f5b" fill-rule="evenodd"/>
      <path id="Trazado_911926" data-name="Trazado 911926" d="M231.371,166.166a2.166,2.166,0,0,0,.74-.751,14.056,14.056,0,0,1,1.361-1.959c.551-.782,1.105-1.562,1.607-2.375.28-.454.063-.762-.485-.757a2.142,2.142,0,0,0-1.561.484c-.491.545-1.205.978-1.362,1.751a1.528,1.528,0,0,1-.564,1,2.507,2.507,0,0,0-.857,1.648,2.223,2.223,0,0,0,.021.488.683.683,0,0,0,1.1.467" transform="translate(-38.033 -26.483)" fill="#0b2f5b" fill-rule="evenodd"/>
      <path id="Trazado_911927" data-name="Trazado 911927" d="M219.282,123.987a1.441,1.441,0,0,1-.757-.906,2.557,2.557,0,0,0-.837-1.12c-.477-.031-.917-.141-1.327.192a5.184,5.184,0,0,0,.915,2.833c.324.408.7.777,1.036,1.175a1.881,1.881,0,0,0,2.419.63,1.271,1.271,0,0,0-.162-1.415c-.4-.483-.655-1.1-1.288-1.39" transform="translate(-35.739 -20.139)" fill="#0b2f5b" fill-rule="evenodd"/>
      <path id="Trazado_911928" data-name="Trazado 911928" d="M245.877,217.415a1.44,1.44,0,0,0-.324,1.589,4.675,4.675,0,0,0,.907,1.96,1.64,1.64,0,0,1,.5,1.247,2.9,2.9,0,0,0,.514,1.509c.5.2.942.475,1.508.259a5.946,5.946,0,0,0,0-3.392c-.209-.555-.484-1.088-.711-1.638a2.143,2.143,0,0,0-2.4-1.535" transform="translate(-40.542 -35.91)" fill="#0b2f5b" fill-rule="evenodd"/>
      <path id="Trazado_911929" data-name="Trazado 911929" d="M225.421,137.384a3.538,3.538,0,0,0,1.675,2.357,3.22,3.22,0,0,1,.253.258.72.72,0,0,0,1.138-.133.747.747,0,0,0,.03-.8,2.9,2.9,0,0,1-.527-1.325.492.492,0,0,0-.18-.3,3.8,3.8,0,0,1-.987-1.752,1.548,1.548,0,0,0-1.255-1.024c-.608-.083-.887.11-1,.585a1.264,1.264,0,0,0,.212,1.138,2.651,2.651,0,0,1,.639,1" transform="translate(-37.087 -22.24)" fill="#0b2f5b" fill-rule="evenodd"/>
      <path id="Trazado_911930" data-name="Trazado 911930" d="M157.8,307.454a2.371,2.371,0,0,0-.2-.4,1.9,1.9,0,0,0-2.25-.558,4.689,4.689,0,0,1-.557.223,6.951,6.951,0,0,1-1.282.327c-.56.049-.719.624-1.178.786-.263.093-.517.209-.772.319a1.681,1.681,0,0,0-1,1.265c-.172.7-.1,1.064.441,1.465a1.221,1.221,0,0,0,1.463.082q1.3-.763,2.62-1.5c.7-.387,1.4-.759,2.106-1.126a1.1,1.1,0,0,0,.609-.875" transform="translate(-24.856 -50.601)" fill="#0b2f5b" fill-rule="evenodd"/>
      <path id="Trazado_911931" data-name="Trazado 911931" d="M193.623,338.336a1.262,1.262,0,0,0-.553.2,7.98,7.98,0,0,1-2.3,1.253,2.165,2.165,0,0,0-.6.394c-.624.431-1.255.855-1.872,1.3a2.946,2.946,0,0,0-.713.627.877.877,0,0,0-.133.669,1.587,1.587,0,0,0,1.928.983,14.674,14.674,0,0,0,1.852-.867c.535-.315,1.142-.585,1.363-1.276a.7.7,0,0,1,.434-.374c1.108-.324,1.277-1.215,1.358-2.17a.71.71,0,0,0-.77-.736" transform="translate(-30.961 -55.887)" fill="#0b2f5b" fill-rule="evenodd"/>
      <path id="Trazado_911932" data-name="Trazado 911932" d="M147.633,343.9a3.079,3.079,0,0,1-.72.432,36.13,36.13,0,0,0-3.523,2.479,1.019,1.019,0,0,0-.407,1.166,1.187,1.187,0,0,0,1.121.764,4.3,4.3,0,0,0,2.219-.826,16.944,16.944,0,0,1,2.769-1.859,1.532,1.532,0,0,0,.873-1.69,2.962,2.962,0,0,0-.273-.725,1.725,1.725,0,0,0-2.06.258" transform="translate(-23.609 -56.728)" fill="#0b2f5b" fill-rule="evenodd"/>
      <path id="Trazado_911933" data-name="Trazado 911933" d="M179.275,346.25a.729.729,0,0,0-.76-.226c-.761.236-1.6-.07-2.344.346a3.05,3.05,0,0,0-1.759.23,2.735,2.735,0,0,1-.714.033c-.007-.042-.013-.086-.018-.127-.548.105-1.105.181-1.645.325a.739.739,0,0,0-.536.94,1.09,1.09,0,0,0,.964.952,17.65,17.65,0,0,0,2.627.147,7.869,7.869,0,0,1,1.19.011,1.227,1.227,0,0,0,.475.042c.837-.275,1.68-.549,2.5-.878a.86.86,0,0,0,.378-1.311,3.348,3.348,0,0,0-.357-.483" transform="translate(-28.325 -57.152)" fill="#0b2f5b" fill-rule="evenodd"/>
      <path id="Trazado_911934" data-name="Trazado 911934" d="M203.824,329.257a16.17,16.17,0,0,0-1.368,1.157c-.179.152-.345.376-.553.425a1.3,1.3,0,0,0-.885.755,5.049,5.049,0,0,1-1.567,1.949,1.18,1.18,0,0,0-.377.717.665.665,0,0,0,.908.75c.488-.172.971-.377,1.458-.562a2.228,2.228,0,0,0,1.278-1.009,12.475,12.475,0,0,1,1.238-1.6,2.779,2.779,0,0,0,1.626-2.349,1.157,1.157,0,0,0-1.759-.229" transform="translate(-32.881 -54.337)" fill="#0b2f5b" fill-rule="evenodd"/>
      <path id="Trazado_911935" data-name="Trazado 911935" d="M150.923,332.794a8.136,8.136,0,0,1-1.718-2.282,2.347,2.347,0,0,0-1.326-1.219,5.543,5.543,0,0,0-.73.592,1.082,1.082,0,0,0-.165,1.328,18.328,18.328,0,0,0,1.8,3.106,1.842,1.842,0,0,0,1.478.844c.276.009.553-.016.837-.024.138-.367.262-.7.417-1.115-.118-.323-.2-.591-.312-.847a1.119,1.119,0,0,0-.281-.382" transform="translate(-24.254 -54.393)" fill="#0b2f5b" fill-rule="evenodd"/>
      <path id="Trazado_911936" data-name="Trazado 911936" d="M144.735,320.663a1.1,1.1,0,0,0,1,1.114c.766-.158.932-.881,1.4-1.3-.01-.249,0-.492-.027-.731a11.97,11.97,0,0,1-.007-3.327,1.183,1.183,0,0,0-.769-1.337c-.795.137-1.082.807-1.512,1.285-.046.463-.082.9-.129,1.335a2.829,2.829,0,0,1-.153,1.047,1.311,1.311,0,0,0,.046,1.465.991.991,0,0,1,.153.451" transform="translate(-23.841 -52.046)" fill="#0b2f5b" fill-rule="evenodd"/>
      <path id="Trazado_911937" data-name="Trazado 911937" d="M168.581,308.505c-.537-.379-.5-.448-.722-1.374l-2.182-1.092a6.143,6.143,0,0,0-.851.2.731.731,0,0,0-.347,1.1,6.339,6.339,0,0,0,1.126,1.362,3.764,3.764,0,0,1,1.034,1.293c.565,1.108,1.381,1.318,2.627.718a1.783,1.783,0,0,0-.685-2.2" transform="translate(-27.147 -50.552)" fill="#0b2f5b" fill-rule="evenodd"/>
      <path id="Trazado_911938" data-name="Trazado 911938" d="M171.964,324.7c.21-.9.37-1.812.536-2.722a1.8,1.8,0,0,0-.894-1.954c-.16.035-.315.082-.47.1a1.033,1.033,0,0,0-.983,1.151,4.639,4.639,0,0,1-.634,2.173,1.911,1.911,0,0,0,.2,2.16.954.954,0,0,0,1.182.321,1.653,1.653,0,0,0,1.063-1.228" transform="translate(-27.961 -52.863)" fill="#0b2f5b" fill-rule="evenodd"/>
      <path id="Trazado_911939" data-name="Trazado 911939" d="M163.854,333.278c-.291.134-.6.235-.885.376-.213.1-.5.2-.592.387a5.259,5.259,0,0,1-1.281,1.414,3.815,3.815,0,0,0-.71.963.969.969,0,0,0,.741,1.448,1.413,1.413,0,0,0,.906-.195,18.721,18.721,0,0,0,1.895-1.472,4.214,4.214,0,0,0,1.453-2.527c-.72-.775-.72-.772-1.528-.394" transform="translate(-26.472 -55.011)" fill="#0b2f5b" fill-rule="evenodd"/>
      <path id="Trazado_911940" data-name="Trazado 911940" d="M161.986,345.219a14,14,0,0,1-2.11-1.112c-.844-.451-1.685-.907-2.555-1.306-.484-.223-.764.031-.691.574a2.132,2.132,0,0,0,.67,1.49c.6.422,1.118,1.079,1.9,1.139a1.516,1.516,0,0,1,1.064.438,2.507,2.507,0,0,0,1.741.649,2.229,2.229,0,0,0,.482-.079.683.683,0,0,0,.329-1.15,2.184,2.184,0,0,0-.835-.643" transform="translate(-25.871 -56.611)" fill="#0b2f5b" fill-rule="evenodd"/>
      <path id="Trazado_911941" data-name="Trazado 911941" d="M123.737,361.548c-.432.459-1.007.784-1.223,1.448a1.444,1.444,0,0,1-.806.862,2.55,2.55,0,0,0-1.011.968c.027.476-.028.927.351,1.294a5.2,5.2,0,0,0,2.7-1.255c.366-.373.686-.788,1.04-1.173a1.879,1.879,0,0,0,.331-2.477,1.271,1.271,0,0,0-1.384.333" transform="translate(-19.937 -59.655)" fill="#0b2f5b" fill-rule="evenodd"/>
      <path id="Trazado_911942" data-name="Trazado 911942" d="M137.154,351.993a.743.743,0,0,0-.8.068,2.9,2.9,0,0,1-1.251.685.5.5,0,0,0-.28.216,3.817,3.817,0,0,1-1.619,1.193,1.551,1.551,0,0,0-.863,1.37c-.008.613.217.867.7.918a1.263,1.263,0,0,0,1.1-.347,2.645,2.645,0,0,1,.917-.757,3.534,3.534,0,0,0,2.135-1.949,3.222,3.222,0,0,1,.224-.282.72.72,0,0,0-.27-1.114" transform="translate(-21.861 -58.129)" fill="#0b2f5b" fill-rule="evenodd"/>
      <path id="Trazado_911943" data-name="Trazado 911943" d="M189.872,93.871a3.063,3.063,0,0,0,2.625.871.546.546,0,0,0,.5-.78,4.2,4.2,0,0,0-1.711-2.1c-.614-.3-1.213-.62-1.817-.934a.734.734,0,0,0-.9.074c-.3.261-.59.525-.925.826a21.97,21.97,0,0,1,2.23,2.044" transform="translate(-30.995 -15)" fill="#0b2f5b" fill-rule="evenodd"/>
      <path id="Trazado_911944" data-name="Trazado 911944" d="M199.652,103.913a4.362,4.362,0,0,0,3.209,1.24c.064-.131.135-.206.126-.27a4.027,4.027,0,0,0-2.191-2.791c-.144-.094-.359-.113-.484-.279a4.232,4.232,0,0,0-.371-.47,1.323,1.323,0,0,0-1.347-.164,1.073,1.073,0,0,0-.355,1.182,1.99,1.99,0,0,0,.844,1.129,2.853,2.853,0,0,1,.569.423" transform="translate(-32.738 -16.694)" fill="#0b2f5b" fill-rule="evenodd"/>
      <path id="Trazado_911945" data-name="Trazado 911945" d="M236.762,291.614a1,1,0,0,0-.842-.88,1.013,1.013,0,0,0-1.058.4,4.1,4.1,0,0,0-.821,1.621,3.614,3.614,0,0,1-.73,1.494,4.2,4.2,0,0,0-.675,2.458.588.588,0,0,0,.927.527,2.547,2.547,0,0,0,.733-.542,6.014,6.014,0,0,0,1.584-2.228,1.025,1.025,0,0,1,.306-.422c.8-.735.55-1.671.578-2.426" transform="translate(-38.427 -48.02)" fill="#0b2f5b" fill-rule="evenodd"/>
      <path id="Trazado_911946" data-name="Trazado 911946" d="M225.4,305.91c-.356.444-.653.928-.994,1.384a1.979,1.979,0,0,0-.047,2.682,1.422,1.422,0,0,0,1.475-.529c.415-.544,1-.965,1.157-1.7a1.561,1.561,0,0,1,.773-1.022,2.764,2.764,0,0,0,.985-1.159c-.089-.506-.085-1-.549-1.336a5.776,5.776,0,0,0-2.8,1.68" transform="translate(-36.978 -50.253)" fill="#0b2f5b" fill-rule="evenodd"/>
      <path id="Trazado_911947" data-name="Trazado 911947" d="M216.9,316.7a1.423,1.423,0,0,0-1.19.447,2.884,2.884,0,0,1-.958.873,3.864,3.864,0,0,0-2.219,2.232,3.245,3.245,0,0,1-.229.32.765.765,0,0,0,.374,1.174.845.845,0,0,0,.877-.125,3.229,3.229,0,0,1,1.33-.818.539.539,0,0,0,.295-.251,4.172,4.172,0,0,1,1.7-1.387,1.651,1.651,0,0,0,.857-1.525c-.033-.659-.3-.914-.837-.94" transform="translate(-35.046 -52.313)" fill="#0b2f5b" fill-rule="evenodd"/>
      <path id="Trazado_911948" data-name="Trazado 911948" d="M247.5,264.786c-.384-.195-.77-.388-1.209-.607a23.769,23.769,0,0,1-1.252,3.026c-.619,1.075-.235,2,.113,2.969a.6.6,0,0,0,1,.2,4.536,4.536,0,0,0,1.509-2.528c.069-.729.174-1.457.266-2.184a.782.782,0,0,0-.422-.872" transform="translate(-40.422 -43.638)" fill="#0b2f5b" fill-rule="evenodd"/>
      <path id="Trazado_911949" data-name="Trazado 911949" d="M242.93,278.1a1.206,1.206,0,0,0-1.357.1,2.161,2.161,0,0,0-.842,1.281,2.973,2.973,0,0,1-.217.734,4.592,4.592,0,0,0-.045,3.7c.161.014.265.058.329.022a4.364,4.364,0,0,0,2.039-3.274c.038-.18-.023-.4.1-.593a4.714,4.714,0,0,0,.345-.555,1.39,1.39,0,0,0-.351-1.413" transform="translate(-39.66 -45.909)" fill="#0b2f5b" fill-rule="evenodd"/>
      <path id="Trazado_911950" data-name="Trazado 911950" d="M90.02,62.953c-.954-.249-1.322-.928-1.866-1.469.25-.632.476-1.223.722-1.8a.814.814,0,0,1,.769-.47,4.1,4.1,0,0,1,2.219.771.861.861,0,0,1,.287,1.136,4.836,4.836,0,0,1-.9,1.1,8.078,8.078,0,0,1-1.235.739" transform="translate(-14.561 -9.779)" fill="#0b2f5b" fill-rule="evenodd"/>
      <path id="Trazado_911951" data-name="Trazado 911951" d="M104.758,60.292v1.492c-.862.565-1.312,1.59-2.464,1.852-.255-.2-.555-.412-.819-.662a.564.564,0,0,1-.172-.427,8.019,8.019,0,0,1,.584-2.226c.486-.867,1.042-.9,2.02-.432.241.113.479.227.851.4" transform="translate(-16.733 -9.843)" fill="#0b2f5b" fill-rule="evenodd"/>
      <path id="Trazado_911952" data-name="Trazado 911952" d="M96.856,59.808c.7-.043,1,.451,1.262,1a1.375,1.375,0,0,1-.138,1.635,4,4,0,0,1-.613.51c-1.226.911-2.212.559-2.329-.953-.113-1.462.432-2.225,1.817-2.2" transform="translate(-15.696 -9.879)" fill="#0b2f5b" fill-rule="evenodd"/>
      <path id="Trazado_911953" data-name="Trazado 911953" d="M69.125,59.355a.634.634,0,0,1-.16-.008c-1.782-.572-1.632-1.2-1.445-2.668a1.226,1.226,0,0,1,1.2-1.071,1.655,1.655,0,0,1,1.485,1.018,2.391,2.391,0,0,1-1.084,2.729" transform="translate(-11.135 -9.185)" fill="#0b2f5b" fill-rule="evenodd"/>
      <path id="Trazado_911954" data-name="Trazado 911954" d="M27.7,52.112c-.094-.589-.181-1.056-.242-1.524a1.853,1.853,0,0,1,1.1-1.9,1.176,1.176,0,0,1,1.685.912,3.337,3.337,0,0,1-.482,2.3.788.788,0,0,1-.817.381c-.367-.053-.736-.1-1.244-.166" transform="translate(-4.533 -8.024)" fill="#0b2f5b" fill-rule="evenodd"/>
      <path id="Trazado_911955" data-name="Trazado 911955" d="M108.808,65.161c-.934.315-1.45-.216-2.138-.642a7.869,7.869,0,0,1-.006-1.333,1.551,1.551,0,0,1,2-1.3,1.291,1.291,0,0,1,.968,1.706,16.669,16.669,0,0,1-.823,1.569" transform="translate(-17.614 -10.214)" fill="#0b2f5b" fill-rule="evenodd"/>
      <path id="Trazado_911956" data-name="Trazado 911956" d="M33.553,50.123c.473-.331.89-.649,1.335-.925a.638.638,0,0,1,.864.153,1.981,1.981,0,0,1,.54.946,2.606,2.606,0,0,1-.776,2.307.668.668,0,0,1-.879.048,1.6,1.6,0,0,1-.788-1.135c-.054-.4-.166-.8-.3-1.394" transform="translate(-5.542 -8.109)" fill="#0b2f5b" fill-rule="evenodd"/>
      <path id="Trazado_911957" data-name="Trazado 911957" d="M42.275,52.226a1.292,1.292,0,0,1-.007.438,1.178,1.178,0,0,1-.969,1.1,1.477,1.477,0,0,1-1.4-.865,2.194,2.194,0,0,1,.17-1.985,1.235,1.235,0,0,1,1.216-.584,1.427,1.427,0,0,1,1.081,1.225,5.333,5.333,0,0,1-.088.668" transform="translate(-6.564 -8.311)" fill="#0b2f5b" fill-rule="evenodd"/>
      <path id="Trazado_911958" data-name="Trazado 911958" d="M55.2,56.517a7.194,7.194,0,0,1-1.063-.42,1.366,1.366,0,0,1-.56-1.92,1.441,1.441,0,0,1,2.482-.3.944.944,0,0,1,.216.882A3.692,3.692,0,0,1,55.2,56.517" transform="translate(-8.819 -8.804)" fill="#0b2f5b" fill-rule="evenodd"/>
      <path id="Trazado_911959" data-name="Trazado 911959" d="M74.7,58.4a1.589,1.589,0,0,1,.772-1.475,1.073,1.073,0,0,1,1.7.457,2.015,2.015,0,0,1-1.5,2.66.67.67,0,0,1-.822-.55c-.079-.357-.1-.727-.152-1.092" transform="translate(-12.338 -9.362)" fill="#0b2f5b" fill-rule="evenodd"/>
      <path id="Trazado_911960" data-name="Trazado 911960" d="M62.382,57.667a13.114,13.114,0,0,1-.356-1.631,1.238,1.238,0,0,1,1-1.406.828.828,0,0,1,.871.2,1.935,1.935,0,0,1,.673,1.544c0,.86-.327,1.217-1.218,1.292-.26.021-.52,0-.973,0" transform="translate(-10.244 -9.016)" fill="#0b2f5b" fill-rule="evenodd"/>
      <path id="Trazado_911961" data-name="Trazado 911961" d="M84.81,57.871c1,1.55.948,1.746-.765,2.848a1.494,1.494,0,0,1-1.063-.618c-.555-.611-.624-.959-.345-1.579a1.274,1.274,0,0,1,1.423-.783c.261.025.521.089.75.132" transform="translate(-13.624 -9.536)" fill="#0b2f5b" fill-rule="evenodd"/>
      <path id="Trazado_911962" data-name="Trazado 911962" d="M48.486,54.122l-1.837.757a1.589,1.589,0,0,1-.882-1.367,1.643,1.643,0,0,1,.635-1.231,1.043,1.043,0,0,1,1.807.561c.105.4.176.808.278,1.279" transform="translate(-7.559 -8.581)" fill="#0b2f5b" fill-rule="evenodd"/>
      <path id="Trazado_911963" data-name="Trazado 911963" d="M30.162,48.019c-.117.089-.2.2-.254.186a1.258,1.258,0,0,1-.313-.184c.038-.032.078-.092.112-.088.139.016.278.051.455.086" transform="translate(-4.889 -7.918)" fill="#0b2f5b" fill-rule="evenodd"/>
    </g>
  </g>
</svg>
