<svg id="Grupo_1104827" data-name="Grupo 1104827" xmlns="http://www.w3.org/2000/svg" xmlns:xlink="http://www.w3.org/1999/xlink" width="68.084" height="34.792" viewBox="0 0 68.084 34.792">
  <defs>
    <clipPath id="clip-path">
      <rect id="Rectángulo_402943" data-name="Rectángulo 402943" width="68.084" height="34.792" fill="none"/>
    </clipPath>
  </defs>
  <g id="Grupo_1101082" data-name="Grupo 1101082" transform="translate(0 0)" clip-path="url(#clip-path)">
    <path id="Trazado_911966" data-name="Trazado 911966" d="M56.1,25.514c1.181.209,1.082.343,2.605-1.271A5.353,5.353,0,0,1,61,24.487a11.249,11.249,0,0,1,2.686,1.3c1.6.966,2.044,2.6,2.187,4.317a1.482,1.482,0,0,1-1.017,1.447c-.428.2-.865.381-1.27.62a2.383,2.383,0,0,1-1.171.393,2.575,2.575,0,0,0-1.206.319,3.7,3.7,0,0,1-2,.336c-1.467.028-2.936.01-4.4,0-.413,0-.826-.063-1.24-.088a20.8,20.8,0,0,0-2.823-.093,12.334,12.334,0,0,1-4.089-.1,2.682,2.682,0,0,0-.783-.018c-.263.011-.553.135-.782.06a11.688,11.688,0,0,0-3.594-.114c-2.2-.04-4.411-.057-6.616-.118-.992-.027-1.979-.184-2.97-.191a42.762,42.762,0,0,1-5.964-.477c-1.454-.215-2.924-.322-4.375-.547-1.657-.257-3.3-.642-4.955-.872-1.139-.158-2.266-.385-3.427-.444A30.222,30.222,0,0,1,5.6,28.935a5.45,5.45,0,0,1-1-.464.491.491,0,0,1-.249-.336c.031-.818-.523-1.193-1.12-1.542a2.589,2.589,0,0,1-1.2-3.6A7.073,7.073,0,0,1,4.578,20.03a2.877,2.877,0,0,1,2.714-.392c1.166.434,2.457.667,3.291,1.742a.843.843,0,0,0,.247.192.943.943,0,0,0,1.031-.126.745.745,0,0,0,.2-.863c-.239-.638-.526-1.259-.76-1.9a5.873,5.873,0,0,1-.464-2.621,2.159,2.159,0,0,1,1.63-2.059c2-.564,3.034-.086,3.915,1.814.2.426.374.86.552,1.271a.784.784,0,0,0,.962-.658c.3-1.109.565-2.231.879-3.336a6.78,6.78,0,0,1,.5-1.151,17.83,17.83,0,0,1,3.971-5.81,5.18,5.18,0,0,0,.855-.92,4.407,4.407,0,0,1,2.26-1.651,26.646,26.646,0,0,1,4.2-1.323A11.755,11.755,0,0,1,38.91,3.649a17.352,17.352,0,0,1,2.637,2,6.856,6.856,0,0,1,2.09,4.793,16.364,16.364,0,0,1-.3,4.515,1.8,1.8,0,0,0,.093.76.487.487,0,0,0,.66.228,1.051,1.051,0,0,0,.368-.288A3.316,3.316,0,0,1,47,14.264a6.8,6.8,0,0,1,3.432.159,2.471,2.471,0,0,1,1.78,2.628,2.125,2.125,0,0,1-.534,1.729,1.037,1.037,0,0,0-.173.263c-.342.632,0,1.158.742,1.12a6.459,6.459,0,0,0,.932-.155,2.974,2.974,0,0,1,3.446,1.564,1.7,1.7,0,0,1,.17,1.651,10.516,10.516,0,0,1-.464,1,2.063,2.063,0,0,0-.222,1.29" transform="translate(-0.176 -0.206)" fill="#fff" fill-rule="evenodd"/>
    <path id="Trazado_911967" data-name="Trazado 911967" d="M9.337,18.278C9.244,17.707,9.2,17.3,9.11,16.9a3.914,3.914,0,0,1,1.175-3.744,4.315,4.315,0,0,1,2.706-1.173,4.21,4.21,0,0,1,2.83.764c.293.208.6.4.975.648a5.6,5.6,0,0,0,.513-.816,13.636,13.636,0,0,0,.623-1.785c.487-1.948,1.838-3.418,2.818-5.087A6.231,6.231,0,0,1,22.5,3.9c1.692-1.218,3.3-2.617,5.371-3.185a15.486,15.486,0,0,1,2.168-.4c.516-.065,1.047-.18,1.54-.2A20.507,20.507,0,0,0,34.992,0a14.3,14.3,0,0,1,5.995,2.69,19.052,19.052,0,0,1,2.792,2.75,5.981,5.981,0,0,1,1.382,3.6c.036.736.01,1.473.012,2.21v1.639a4.088,4.088,0,0,0,1.383-.091c1-.045,1.992-.195,2.987-.185a4.385,4.385,0,0,1,4.426,3.735,6.544,6.544,0,0,1-.1,1.561c2.423.637,4.3,1.905,4.866,4.492,1.1.267,2.133.453,3.124.775a12.217,12.217,0,0,1,3.954,1.888,5.547,5.547,0,0,1,1.95,2.96c.5,1.959.476,1.966-.559,4.3-.63.374-1.2.739-1.8,1.059a6.08,6.08,0,0,1-1.028.393,25.469,25.469,0,0,1-4.589.957,23.354,23.354,0,0,1-3.43-.09c-1.514-.035-3.03-.084-4.542-.058a25.737,25.737,0,0,1-4.714,0,29.921,29.921,0,0,0-3.461-.185c-.42-.021-.84-.049-1.26-.074a9.785,9.785,0,0,0-1.723-.088,18.624,18.624,0,0,1-4.076-.061,30.351,30.351,0,0,0-3.941-.094,49.007,49.007,0,0,1-5.173-.372,25.361,25.361,0,0,1-2.8-.422c-3.1-.574-6.225-.941-9.352-1.337-2.606-.331-5.219-.614-7.817-.994a9.961,9.961,0,0,1-6.015-3.154,5.324,5.324,0,0,0-.649-.676A1.905,1.905,0,0,1,.19,25.926,3.087,3.087,0,0,1,.37,23.361a.774.774,0,0,0,.118-.293c.367-2.18,1.9-3.281,3.768-4.066a4.867,4.867,0,0,1,1.928-.648c.511,0,1.022-.208,1.537-.231a12.25,12.25,0,0,1,1.616.155m46.591,7.029a2.063,2.063,0,0,1,.222-1.29,10.516,10.516,0,0,0,.464-1,1.7,1.7,0,0,0-.17-1.651A2.974,2.974,0,0,0,53,19.8a6.459,6.459,0,0,1-.932.155c-.746.038-1.084-.488-.742-1.12a1.037,1.037,0,0,1,.173-.263,2.125,2.125,0,0,0,.534-1.729,2.471,2.471,0,0,0-1.78-2.628,6.8,6.8,0,0,0-3.432-.159,3.316,3.316,0,0,0-2.542,1.392,1.051,1.051,0,0,1-.368.288.487.487,0,0,1-.66-.228,1.8,1.8,0,0,1-.093-.76,16.364,16.364,0,0,0,.3-4.515,6.856,6.856,0,0,0-2.09-4.793,17.352,17.352,0,0,0-2.637-2A11.755,11.755,0,0,0,30.39,2.034a26.646,26.646,0,0,0-4.2,1.323,4.407,4.407,0,0,0-2.26,1.651,5.18,5.18,0,0,1-.855.92,17.83,17.83,0,0,0-3.971,5.81,6.78,6.78,0,0,0-.5,1.151c-.314,1.106-.574,2.227-.879,3.336a.784.784,0,0,1-.962.658c-.178-.411-.354-.845-.552-1.271-.881-1.9-1.917-2.378-3.915-1.814a2.159,2.159,0,0,0-1.63,2.059,5.873,5.873,0,0,0,.464,2.621c.234.64.521,1.26.76,1.9a.745.745,0,0,1-.2.863.943.943,0,0,1-1.031.126.843.843,0,0,1-.247-.192c-.835-1.075-2.125-1.308-3.291-1.742a2.877,2.877,0,0,0-2.714.392,7.073,7.073,0,0,0-2.538,2.967,2.589,2.589,0,0,0,1.2,3.6c.6.349,1.151.724,1.12,1.542a.491.491,0,0,0,.249.336,5.45,5.45,0,0,0,1,.464,30.222,30.222,0,0,0,7.587,1.286c1.162.058,2.288.286,3.427.444,1.659.23,3.3.615,4.955.872,1.451.225,2.92.332,4.375.547a42.762,42.762,0,0,0,5.964.477c.991.007,1.978.164,2.97.191,2.205.06,4.412.078,6.616.118a11.688,11.688,0,0,1,3.594.114c.228.075.518-.049.782-.06a2.682,2.682,0,0,1,.783.018,12.334,12.334,0,0,0,4.089.1,20.8,20.8,0,0,1,2.823.093c.414.025.826.084,1.24.088,1.467.014,2.936.032,4.4,0a3.7,3.7,0,0,0,2-.336,2.575,2.575,0,0,1,1.206-.319,2.383,2.383,0,0,0,1.171-.393c.405-.239.843-.421,1.27-.62A1.482,1.482,0,0,0,65.7,29.9c-.143-1.718-.582-3.352-2.187-4.317a11.249,11.249,0,0,0-2.686-1.3,5.353,5.353,0,0,0-2.292-.244c-1.523,1.614-1.424,1.48-2.605,1.271" transform="translate(0 0)" fill="#0b2f5b" fill-rule="evenodd"/>
  </g>
</svg>
