<svg id="Grupo_1104829" data-name="Grupo 1104829" xmlns="http://www.w3.org/2000/svg" xmlns:xlink="http://www.w3.org/1999/xlink" width="82.849" height="39.469" viewBox="0 0 82.849 39.469">
  <defs>
    <clipPath id="clip-path">
      <rect id="Rectángulo_402944" data-name="Rectángulo 402944" width="82.848" height="39.469" fill="none"/>
    </clipPath>
  </defs>
  <g id="Grupo_1101084" data-name="Grupo 1101084" transform="translate(0 0)" clip-path="url(#clip-path)">
    <path id="Trazado_911968" data-name="Trazado 911968" d="M80.432,33.986c-.8-.694-1.761-1.2-2.6-1.858a6.594,6.594,0,0,0-6.415-1.347,1.326,1.326,0,0,1-1.483-.494c-.061-1.144.872-1.562,1.545-2.112a9.344,9.344,0,0,1,.181-1.112,2.322,2.322,0,0,0-.857-2.461,5.921,5.921,0,0,0-3.239-1.548c-1.847-.378-3.7-.561-5.239.923a1,1,0,0,1-.539.319,1.143,1.143,0,0,1-.8-.175,1.831,1.831,0,0,1-.414-.92c-.032-.163.187-.366.274-.559a3.628,3.628,0,0,0-1.527-4.961c-2.629-1.234-5.3-1.565-7.951.054-.926.567-1.5.336-1.73-.676a7.8,7.8,0,0,1-.093-1.485,5.255,5.255,0,0,0,.008-1.278c-.592-2.047-.716-4.256-2.057-6.054-.208-.28-.276-.659-.46-.962a5.3,5.3,0,0,0-.754-1.028c-.659-.656-1.346-1.285-2.048-1.894a9.042,9.042,0,0,0-7.584-2.153,8.82,8.82,0,0,0-5.689,3.548,27.75,27.75,0,0,0-2.362,4.3,9.989,9.989,0,0,0-.621,6.461c.827,1.031.176,2.072.176,3.14a3.309,3.309,0,0,1-2.358-.638c-.524-.374-1.01-.8-1.543-1.162a4.245,4.245,0,0,0-3.662-.735A1.706,1.706,0,0,0,19.364,18.2a6.147,6.147,0,0,0-.072,4.6c.156.389.3.783.492,1.281-.721.485-1.273.52-1.685-.02a1.566,1.566,0,0,0-1.3-.554,31.3,31.3,0,0,0-9.175.341,6.28,6.28,0,0,0-4.381,3.125,6.629,6.629,0,0,0-.8,3.923A4.532,4.532,0,0,0,4.862,34.95,11.836,11.836,0,0,1,6.5,36.116a5.419,5.419,0,0,1,3.653.526,5.467,5.467,0,0,0,2.085.375c2.134.133,4.27.093,6.41.018,3.5-.124,7.013-.174,10.518-.248a78.644,78.644,0,0,1,8.117-.161c2.124.172,4.256.273,6.385.449a35.172,35.172,0,0,0,4.68.273c2.855-.14,5.722-.087,8.582-.011,2.132.056,4.258.344,6.4.28,3.64-.108,7.28-.258,10.92-.372.707-.023,1.419.066,2.129.04a7.191,7.191,0,0,0,1.67-.233,19.553,19.553,0,0,0,2-.761c1.171-.476,1.372-1.448.384-2.306" transform="translate(-0.169 -0.145)" fill="#fff" fill-rule="evenodd"/>
    <path id="Trazado_911969" data-name="Trazado 911969" d="M63.184,20.956c1.312.055,2.59.112,3.869.162a8.144,8.144,0,0,1,5.424,2.717A4.992,4.992,0,0,1,73.834,27.8c1.353.705,2.644,1.449,4,2.06A13.445,13.445,0,0,1,81.94,32.9a2.879,2.879,0,0,1-.175,4.347,4.4,4.4,0,0,1-2.459,1.219,61.771,61.771,0,0,1-7.671.633c-1.916.026-3.843.084-5.766.246a41.766,41.766,0,0,1-8.094-.165A25.4,25.4,0,0,0,52,39.1a26.189,26.189,0,0,1-4.274-.084c-2.62-.127-5.266-.1-7.852-.476C36,37.977,32.154,38.5,28.3,38.519c-3.495.02-6.987.341-10.484.474-1.281.047-2.568-.059-3.853-.112-.927-.037-1.854-.1-2.781-.154a5.733,5.733,0,0,1-1.07-.077A39.7,39.7,0,0,1,4.05,36.662a7.771,7.771,0,0,1-2.163-1.7A18.791,18.791,0,0,1,.593,33.255,2.6,2.6,0,0,1,0,31.467c.033-1.072.044-2.145.073-3.217a1.336,1.336,0,0,1,.085-.627c.917-1.507,1.488-3.246,3.1-4.278a11.778,11.778,0,0,1,4.829-2.1,4.449,4.449,0,0,1,1.062-.024q1.713.071,3.426.164a19.048,19.048,0,0,1,2.141.158c.7.12,1.372.367,2.163.589a3.684,3.684,0,0,0-.02-.823,6.547,6.547,0,0,1,.946-5.7,3.492,3.492,0,0,1,3.873-1.149,8.244,8.244,0,0,1,3.8,1.664c.615-.273.352-.661.305-.961A11.094,11.094,0,0,1,26.5,9.09a18.974,18.974,0,0,1,2.422-4.5A13.581,13.581,0,0,1,33.588.908a7.407,7.407,0,0,1,1.845-.47c.277-.059.588.011.853-.072,3.017-.949,5.588.047,7.994,1.8a18.692,18.692,0,0,1,3.349,2.972,16.015,16.015,0,0,1,3.366,7.984c.12.686.225,1.376.358,2.191a12.794,12.794,0,0,0,2-.261c2.519-.756,4.843-.007,7.036,1.049a5.1,5.1,0,0,1,2.575,3.543c.1.411.143.838.222,1.313M19.615,23.94c-.72.485-1.273.52-1.685-.02a1.565,1.565,0,0,0-1.3-.554,31.261,31.261,0,0,0-9.174.341,6.278,6.278,0,0,0-4.382,3.124,6.636,6.636,0,0,0-.8,3.923,4.532,4.532,0,0,0,2.413,4.052,11.831,11.831,0,0,1,1.638,1.166,5.412,5.412,0,0,1,3.653.526,5.466,5.466,0,0,0,2.085.374c2.134.134,4.271.094,6.41.019,3.5-.125,7.013-.175,10.518-.249a78.913,78.913,0,0,1,8.117-.161c2.124.173,4.256.273,6.385.45a35.177,35.177,0,0,0,4.681.273c2.854-.141,5.721-.087,8.581-.012,2.132.057,4.258.344,6.4.281,3.64-.108,7.279-.258,10.919-.373.708-.022,1.419.067,2.129.04a7.086,7.086,0,0,0,1.67-.233,19.682,19.682,0,0,0,2-.76c1.171-.477,1.372-1.449.384-2.306-.8-.695-1.761-1.2-2.6-1.858a6.6,6.6,0,0,0-6.416-1.347,1.326,1.326,0,0,1-1.483-.493c-.061-1.145.872-1.563,1.546-2.113a9.2,9.2,0,0,1,.18-1.112,2.319,2.319,0,0,0-.857-2.46A5.915,5.915,0,0,0,67.4,22.909c-1.848-.379-3.7-.561-5.24.923a1.01,1.01,0,0,1-.539.319,1.147,1.147,0,0,1-.8-.175,1.835,1.835,0,0,1-.414-.92c-.032-.163.187-.366.274-.56a3.628,3.628,0,0,0-1.527-4.961c-2.629-1.233-5.3-1.564-7.95.055-.927.566-1.505.335-1.73-.677a7.707,7.707,0,0,1-.094-1.484,5.256,5.256,0,0,0,.008-1.278C48.8,12.1,48.671,9.894,47.331,8.1c-.208-.28-.275-.659-.46-.962a5.306,5.306,0,0,0-.754-1.029c-.659-.655-1.346-1.285-2.048-1.893A9.041,9.041,0,0,0,36.485,2.06,8.808,8.808,0,0,0,30.8,5.608a27.636,27.636,0,0,0-2.363,4.3,9.992,9.992,0,0,0-.621,6.46c.827,1.032.176,2.073.176,3.14a3.3,3.3,0,0,1-2.358-.637c-.524-.375-1.01-.8-1.542-1.162a4.241,4.241,0,0,0-3.662-.735,1.707,1.707,0,0,0-1.232,1.078,6.149,6.149,0,0,0-.072,4.6c.156.39.3.784.492,1.282" transform="translate(0 0)" fill="#0b2f5b" fill-rule="evenodd"/>
  </g>
</svg>
