<svg xmlns="http://www.w3.org/2000/svg" width="610.333" height="230" viewBox="0 0 610.333 230">
  <g id="Grupo_1104830" data-name="Grupo 1104830" transform="translate(-284.667 -12607.518)">
    <g id="Trazado_916757" data-name="Trazado 916757" transform="translate(495.051 12607.518)" fill="#32799d">
      <path d="M 180 78.5 L 10 78.5 C 4.761690616607666 78.5 0.5 74.23831176757812 0.5 69 L 0.5 10 C 0.5 4.761690616607666 4.761690616607666 0.5 10 0.5 L 180 0.5 C 185.2383117675781 0.5 189.5 4.761690616607666 189.5 10 L 189.5 69 C 189.5 74.23831176757812 185.2383117675781 78.5 180 78.5 Z" stroke="none"/>
      <path d="M 10 1 C 5.037368774414062 1 1 5.037376403808594 1 10 L 1 69 C 1 73.96262359619141 5.037368774414062 78 10 78 L 180 78 C 184.9626312255859 78 189 73.96262359619141 189 69 L 189 10 C 189 5.037376403808594 184.9626312255859 1 180 1 L 10 1 M 10 0 L 180 0 C 185.5228576660156 0 190 4.477149963378906 190 10 L 190 69 C 190 74.52285003662109 185.5228576660156 79 180 79 L 10 79 C 4.477157592773438 79 0 74.52285003662109 0 69 L 0 10 C 0 4.477149963378906 4.477157592773438 0 10 0 Z" stroke="none" fill="#245670"/>
    </g>
    <path id="Trazado_916758" data-name="Trazado 916758" d="M15.563,13.336H10.036V19H6.608V4.781H16.12V7.428H10.036V10.7h5.527Zm7.91,4.521A3.393,3.393,0,0,1,20.651,19.2a3.328,3.328,0,0,1-2.632-1.011,4.251,4.251,0,0,1-.894-2.905V8.434h3.291V15.3a1.183,1.183,0,0,0,1.318,1.357,1.72,1.72,0,0,0,1.611-.811V8.434h3.311V19H23.571Zm8.008-9.424.107,1.24a3.583,3.583,0,0,1,3.018-1.436,3.015,3.015,0,0,1,2.466.986,4.7,4.7,0,0,1,.845,2.969V19h-3.3V12.33a1.783,1.783,0,0,0-.322-1.177,1.491,1.491,0,0,0-1.172-.376,1.569,1.569,0,0,0-1.436.762V19H28.4V8.434Zm12.725,8.223a1.464,1.464,0,0,0,1.074-.376,1.379,1.379,0,0,0,.371-1.05h3.086a3.653,3.653,0,0,1-1.245,2.852A4.631,4.631,0,0,1,44.284,19.2a4.689,4.689,0,0,1-3.633-1.445,5.7,5.7,0,0,1-1.328-4v-.137a6.436,6.436,0,0,1,.591-2.827,4.3,4.3,0,0,1,1.7-1.885,5.081,5.081,0,0,1,2.637-.659,4.573,4.573,0,0,1,3.271,1.143,4.053,4.053,0,0,1,1.211,3.1H45.651a1.807,1.807,0,0,0-.4-1.26,1.382,1.382,0,0,0-1.074-.439q-1.279,0-1.494,1.631a11.507,11.507,0,0,0-.068,1.426A4.52,4.52,0,0,0,43,16.041,1.319,1.319,0,0,0,44.206,16.656ZM53.6,19H50.3V8.434h3.3ZM50.1,5.7a1.482,1.482,0,0,1,.508-1.159,2.149,2.149,0,0,1,2.637,0A1.482,1.482,0,0,1,53.757,5.7a1.482,1.482,0,0,1-.508,1.159,2.149,2.149,0,0,1-2.637,0A1.482,1.482,0,0,1,50.1,5.7Zm5.107,7.92a6.236,6.236,0,0,1,.615-2.817,4.4,4.4,0,0,1,1.768-1.9A5.323,5.323,0,0,1,60.3,8.238a4.858,4.858,0,0,1,3.74,1.47,5.64,5.64,0,0,1,1.367,4v.117a5.472,5.472,0,0,1-1.372,3.921,4.871,4.871,0,0,1-3.716,1.45A4.927,4.927,0,0,1,56.7,17.843a5.29,5.29,0,0,1-1.475-3.667Zm3.291.205a3.932,3.932,0,0,0,.459,2.148,1.529,1.529,0,0,0,1.357.684q1.758,0,1.8-2.705v-.332q0-2.842-1.816-2.842-1.65,0-1.787,2.451ZM69.88,8.434l.107,1.24A3.583,3.583,0,0,1,73,8.238a3.015,3.015,0,0,1,2.466.986,4.7,4.7,0,0,1,.845,2.969V19h-3.3V12.33a1.783,1.783,0,0,0-.322-1.177,1.491,1.491,0,0,0-1.172-.376,1.569,1.569,0,0,0-1.436.762V19H66.794V8.434ZM83.249,19.2a5.432,5.432,0,0,1-3.936-1.45,5.008,5.008,0,0,1-1.5-3.774V13.7a6.489,6.489,0,0,1,.6-2.861,4.395,4.395,0,0,1,1.753-1.919A5.292,5.292,0,0,1,82.9,8.238,4.574,4.574,0,0,1,86.413,9.62,5.43,5.43,0,0,1,87.7,13.473v1.279H81.159a2.372,2.372,0,0,0,.771,1.4,2.3,2.3,0,0,0,1.543.508,2.958,2.958,0,0,0,2.441-1.094l1.5,1.777a4.2,4.2,0,0,1-1.743,1.353A5.891,5.891,0,0,1,83.249,19.2Zm-.371-8.418q-1.445,0-1.719,1.914h3.32v-.254a1.63,1.63,0,0,0-.4-1.226A1.593,1.593,0,0,0,82.878,10.777Zm11.68,5.254a.76.76,0,0,0-.439-.674,6.685,6.685,0,0,0-1.67-.527,7.615,7.615,0,0,1-2.031-.718A3.4,3.4,0,0,1,89.2,13.033a2.577,2.577,0,0,1-.42-1.455,2.92,2.92,0,0,1,1.2-2.4,4.948,4.948,0,0,1,3.145-.942,5.482,5.482,0,0,1,3.359.947,2.962,2.962,0,0,1,1.27,2.49h-3.3q0-1.27-1.338-1.27a1.326,1.326,0,0,0-.869.288.892.892,0,0,0-.352.718.819.819,0,0,0,.43.713,4.06,4.06,0,0,0,1.372.449,11.857,11.857,0,0,1,1.655.42,3.007,3.007,0,0,1,2.383,2.939,2.767,2.767,0,0,1-1.284,2.354,5.631,5.631,0,0,1-3.325.908,5.747,5.747,0,0,1-2.422-.488,4.05,4.05,0,0,1-1.66-1.328,3.007,3.007,0,0,1-.6-1.768h3.076a1.272,1.272,0,0,0,.488,1.069,2.009,2.009,0,0,0,1.2.337,1.58,1.58,0,0,0,1.011-.273A.875.875,0,0,0,94.558,16.031Zm9.277-2.393a6.455,6.455,0,0,1,1.084-3.955,3.568,3.568,0,0,1,3.027-1.445,3.035,3.035,0,0,1,2.383,1.113V4h3.3V19h-2.959l-.166-1.133a3.116,3.116,0,0,1-2.578,1.328,3.562,3.562,0,0,1-2.988-1.445A6.659,6.659,0,0,1,103.835,13.639Zm3.291.205q0,2.813,1.641,2.813a1.62,1.62,0,0,0,1.563-.918V11.715a1.576,1.576,0,0,0-1.543-.937q-1.523,0-1.65,2.461ZM120.612,19.2a5.432,5.432,0,0,1-3.936-1.45,5.008,5.008,0,0,1-1.5-3.774V13.7a6.489,6.489,0,0,1,.6-2.861,4.395,4.395,0,0,1,1.753-1.919,5.292,5.292,0,0,1,2.734-.679,4.574,4.574,0,0,1,3.516,1.382,5.43,5.43,0,0,1,1.289,3.853v1.279h-6.543a2.372,2.372,0,0,0,.771,1.4,2.3,2.3,0,0,0,1.543.508,2.958,2.958,0,0,0,2.441-1.094l1.5,1.777a4.2,4.2,0,0,1-1.743,1.353A5.891,5.891,0,0,1,120.612,19.2Zm-.371-8.418q-1.445,0-1.719,1.914h3.32v-.254a1.63,1.63,0,0,0-.4-1.226A1.593,1.593,0,0,0,120.241,10.777ZM13.708,46h-3.3V31h3.3Zm7.979,0a3.716,3.716,0,0,1-.312-.947A3.06,3.06,0,0,1,18.835,46.2a3.749,3.749,0,0,1-2.539-.9,2.875,2.875,0,0,1-1.045-2.271,2.955,2.955,0,0,1,1.27-2.6,6.468,6.468,0,0,1,3.691-.879h1.016v-.559q0-1.462-1.26-1.462A1.03,1.03,0,0,0,18.8,38.681H15.5a2.95,2.95,0,0,1,1.3-2.487,5.479,5.479,0,0,1,3.325-.956,4.8,4.8,0,0,1,3.193.986,3.429,3.429,0,0,1,1.2,2.705v4.678a4.79,4.79,0,0,0,.449,2.227V46Zm-2.061-2.148a1.836,1.836,0,0,0,1.021-.264,1.653,1.653,0,0,0,.581-.6V41.3h-.957q-1.719,0-1.719,1.543a.942.942,0,0,0,.3.728A1.1,1.1,0,0,0,19.626,43.852Zm12.256-.82a.76.76,0,0,0-.439-.674,6.685,6.685,0,0,0-1.67-.527,7.615,7.615,0,0,1-2.031-.718,3.4,3.4,0,0,1-1.221-1.079,2.577,2.577,0,0,1-.42-1.455,2.92,2.92,0,0,1,1.2-2.4,4.948,4.948,0,0,1,3.145-.942,5.482,5.482,0,0,1,3.359.947,2.962,2.962,0,0,1,1.27,2.49h-3.3q0-1.27-1.338-1.27a1.326,1.326,0,0,0-.869.288.892.892,0,0,0-.352.718.819.819,0,0,0,.43.713,4.06,4.06,0,0,0,1.372.449,11.857,11.857,0,0,1,1.655.42,3.007,3.007,0,0,1,2.383,2.939,2.767,2.767,0,0,1-1.284,2.354,5.632,5.632,0,0,1-3.325.908,5.747,5.747,0,0,1-2.422-.488,4.05,4.05,0,0,1-1.66-1.328,3.007,3.007,0,0,1-.6-1.768h3.076a1.272,1.272,0,0,0,.488,1.069,2.009,2.009,0,0,0,1.2.337,1.58,1.58,0,0,0,1.011-.273A.875.875,0,0,0,31.882,43.031ZM47.526,46a3.716,3.716,0,0,1-.312-.947A3.06,3.06,0,0,1,44.675,46.2a3.749,3.749,0,0,1-2.539-.9,2.875,2.875,0,0,1-1.045-2.271,2.955,2.955,0,0,1,1.27-2.6,6.468,6.468,0,0,1,3.691-.879h1.016v-.559q0-1.462-1.26-1.462a1.03,1.03,0,0,0-1.172,1.158H41.345a2.95,2.95,0,0,1,1.3-2.487,5.479,5.479,0,0,1,3.325-.956,4.8,4.8,0,0,1,3.193.986,3.429,3.429,0,0,1,1.2,2.705v4.678a4.79,4.79,0,0,0,.449,2.227V46Zm-2.061-2.148a1.836,1.836,0,0,0,1.021-.264,1.653,1.653,0,0,0,.581-.6V41.3H46.11q-1.719,0-1.719,1.543a.942.942,0,0,0,.3.728A1.1,1.1,0,0,0,45.466,43.852ZM51.8,40.639a7.134,7.134,0,0,1,.527-2.832,4.245,4.245,0,0,1,1.514-1.9,3.99,3.99,0,0,1,2.295-.669,3.173,3.173,0,0,1,2.578,1.113l.117-.918h2.988V45.6a4.455,4.455,0,0,1-.649,2.427,4.167,4.167,0,0,1-1.88,1.582,6.91,6.91,0,0,1-2.852.552,5.961,5.961,0,0,1-2.251-.439,4.063,4.063,0,0,1-1.665-1.143L53.9,46.645a3.018,3.018,0,0,0,2.422,1.084,1.96,1.96,0,0,0,2.188-2.246V45.15A3.09,3.09,0,0,1,56.12,46.2,3.819,3.819,0,0,1,53,44.716a6.13,6.13,0,0,1-1.191-3.96Zm3.3.205a3.759,3.759,0,0,0,.488,2.056,1.541,1.541,0,0,0,1.367.757,1.748,1.748,0,0,0,1.553-.713V38.5a1.7,1.7,0,0,0-1.533-.723,1.551,1.551,0,0,0-1.377.786A4.287,4.287,0,0,0,55.1,40.844Zm13.7,5.352a5.432,5.432,0,0,1-3.936-1.45,5.008,5.008,0,0,1-1.5-3.774V40.7a6.489,6.489,0,0,1,.6-2.861,4.395,4.395,0,0,1,1.753-1.919,5.292,5.292,0,0,1,2.734-.679A4.574,4.574,0,0,1,71.97,36.62a5.43,5.43,0,0,1,1.289,3.853v1.279H66.716a2.372,2.372,0,0,0,.771,1.4,2.3,2.3,0,0,0,1.543.508,2.958,2.958,0,0,0,2.441-1.094l1.5,1.777a4.2,4.2,0,0,1-1.743,1.353A5.891,5.891,0,0,1,68.806,46.2Zm-.371-8.418q-1.445,0-1.719,1.914h3.32v-.254a1.63,1.63,0,0,0-.4-1.226A1.593,1.593,0,0,0,68.435,37.777Zm9.17-2.344.107,1.24a3.583,3.583,0,0,1,3.018-1.436,3.015,3.015,0,0,1,2.466.986,4.7,4.7,0,0,1,.845,2.969V46h-3.3V39.33a1.783,1.783,0,0,0-.322-1.177,1.491,1.491,0,0,0-1.172-.376,1.569,1.569,0,0,0-1.436.762V46H74.519V35.434Zm12.725,8.223A1.464,1.464,0,0,0,91.4,43.28a1.379,1.379,0,0,0,.371-1.05H94.86a3.653,3.653,0,0,1-1.245,2.852A4.631,4.631,0,0,1,90.407,46.2a4.689,4.689,0,0,1-3.633-1.445,5.7,5.7,0,0,1-1.328-4v-.137a6.436,6.436,0,0,1,.591-2.827,4.3,4.3,0,0,1,1.7-1.885,5.081,5.081,0,0,1,2.637-.659,4.573,4.573,0,0,1,3.271,1.143,4.053,4.053,0,0,1,1.211,3.1H91.774a1.806,1.806,0,0,0-.4-1.26,1.382,1.382,0,0,0-1.074-.439q-1.279,0-1.494,1.631a11.508,11.508,0,0,0-.068,1.426,4.52,4.52,0,0,0,.381,2.207A1.319,1.319,0,0,0,90.329,43.656ZM99.724,46h-3.3V35.434h3.3Zm-3.5-13.3a1.482,1.482,0,0,1,.508-1.159,2.149,2.149,0,0,1,2.637,0,1.577,1.577,0,0,1,0,2.319,2.149,2.149,0,0,1-2.637,0A1.482,1.482,0,0,1,96.228,32.7ZM107.7,46a3.716,3.716,0,0,1-.312-.947,3.06,3.06,0,0,1-2.539,1.143,3.749,3.749,0,0,1-2.539-.9,2.875,2.875,0,0,1-1.045-2.271,2.955,2.955,0,0,1,1.27-2.6,6.468,6.468,0,0,1,3.691-.879h1.016v-.559q0-1.462-1.26-1.462a1.03,1.03,0,0,0-1.172,1.158h-3.291a2.95,2.95,0,0,1,1.3-2.487,5.479,5.479,0,0,1,3.325-.956,4.8,4.8,0,0,1,3.193.986,3.429,3.429,0,0,1,1.2,2.705v4.678a4.79,4.79,0,0,0,.449,2.227V46Zm-2.061-2.148a1.836,1.836,0,0,0,1.021-.264,1.653,1.653,0,0,0,.581-.6V41.3h-.957q-1.719,0-1.719,1.543a.942.942,0,0,0,.3.728A1.1,1.1,0,0,0,105.642,43.852Zm12.256-.82a.76.76,0,0,0-.439-.674,6.685,6.685,0,0,0-1.67-.527,7.615,7.615,0,0,1-2.031-.718,3.4,3.4,0,0,1-1.221-1.079,2.577,2.577,0,0,1-.42-1.455,2.92,2.92,0,0,1,1.2-2.4,4.948,4.948,0,0,1,3.145-.942,5.482,5.482,0,0,1,3.359.947,2.962,2.962,0,0,1,1.27,2.49h-3.3q0-1.27-1.338-1.27a1.326,1.326,0,0,0-.869.288.892.892,0,0,0-.352.718.819.819,0,0,0,.43.713,4.06,4.06,0,0,0,1.372.449,11.856,11.856,0,0,1,1.655.42,3.007,3.007,0,0,1,2.383,2.939,2.767,2.767,0,0,1-1.284,2.354,5.631,5.631,0,0,1-3.325.908,5.747,5.747,0,0,1-2.422-.488,4.05,4.05,0,0,1-1.66-1.328,3.007,3.007,0,0,1-.6-1.768h3.076a1.272,1.272,0,0,0,.488,1.069,2.009,2.009,0,0,0,1.2.337,1.58,1.58,0,0,0,1.011-.273A.875.875,0,0,0,117.9,43.031Z" transform="translate(525.051 12620.518)" fill="#fff"/>
    <path id="Trazado_916747" data-name="Trazado 916747" d="M0,0V69.5" transform="translate(590.551 12686.518)" fill="none" stroke="#32799d" stroke-width="2"/>
    <path id="Trazado_916748" data-name="Trazado 916748" d="M0,0V35.5" transform="translate(800 12720.018)" fill="none" stroke="#32799d" stroke-width="2"/>
    <path id="Trazado_916749" data-name="Trazado 916749" d="M0,0V35.5" transform="translate(381.102 12720.018)" fill="none" stroke="#32799d" stroke-width="2"/>
    <path id="Trazado_916756" data-name="Trazado 916756" d="M0,0H420" transform="translate(380.551 12721.018)" fill="none" stroke="#32799d" stroke-width="2"/>
    <g id="Trazado_916744" data-name="Trazado 916744" transform="translate(705 12782.518)" fill="#eddb5d">
      <path d="M 178 54.5 L 12 54.5 C 8.928237915039062 54.5 6.040333271026611 53.30378723144531 3.868285655975342 51.13173675537109 C 1.696214318275452 48.95966720581055 0.5 46.07176208496094 0.5 43 L 0.5 12 C 0.5 8.928237915039062 1.696214318275452 6.040333271026611 3.868285655975342 3.868261814117432 C 6.040333271026611 1.696214318275452 8.928237915039062 0.5 12 0.5 L 178 0.5 C 181.0717620849609 0.5 183.9596710205078 1.696214318275452 186.1317138671875 3.868261814117432 C 188.3037872314453 6.040333271026611 189.5 8.928237915039062 189.5 12 L 189.5 43 C 189.5 46.07176208496094 188.3037872314453 48.95966720581055 186.1317138671875 51.13173675537109 C 183.9596710205078 53.30378723144531 181.0717620849609 54.5 178 54.5 Z" stroke="none"/>
      <path d="M 12 1 C 9.061798095703125 1 6.299453735351562 2.144199371337891 4.221832275390625 4.221824645996094 C 2.144195556640625 6.299449920654297 1 9.061798095703125 1 12 L 1 43 C 1 45.93820190429688 2.144195556640625 48.7005500793457 4.221832275390625 50.77817535400391 C 6.299453735351562 52.85580062866211 9.061798095703125 54 12 54 L 178 54 C 180.9382019042969 54 183.7005462646484 52.85580062866211 185.7781677246094 50.77817535400391 C 187.8558044433594 48.7005500793457 189 45.93820190429688 189 43 L 189 12 C 189 9.061798095703125 187.8558044433594 6.299449920654297 185.7781677246094 4.221824645996094 C 183.7005462646484 2.144199371337891 180.9382019042969 1 178 1 L 12 1 M 12 0 L 178 0 C 184.6273956298828 0 190 5.372573852539062 190 12 L 190 43 C 190 49.62742614746094 184.6273956298828 55 178 55 L 12 55 C 5.372573852539062 55 0 49.62742614746094 0 43 L 0 12 C 0 5.372573852539062 5.372573852539062 0 12 0 Z" stroke="none" fill="#ada77b"/>
    </g>
    <path id="Trazado_916745" data-name="Trazado 916745" d="M48.2,10.992V15H45.859V3.625H50.3a5.134,5.134,0,0,1,2.254.469,3.454,3.454,0,0,1,1.5,1.332,3.714,3.714,0,0,1,.523,1.965,3.266,3.266,0,0,1-1.145,2.637,4.767,4.767,0,0,1-3.168.965Zm0-1.9H50.3a2.059,2.059,0,0,0,1.418-.437,1.591,1.591,0,0,0,.488-1.25,1.876,1.876,0,0,0-.492-1.352,1.839,1.839,0,0,0-1.359-.531H48.2Zm12.578-.43a6.134,6.134,0,0,0-.812-.062,1.654,1.654,0,0,0-1.68.867V15H56.031V6.547h2.133l.063,1.008a2.092,2.092,0,0,1,1.883-1.164,2.366,2.366,0,0,1,.7.1Zm.453,2.031a5.013,5.013,0,0,1,.484-2.242A3.546,3.546,0,0,1,63.113,6.93a4.069,4.069,0,0,1,2.113-.539A3.849,3.849,0,0,1,68.02,7.438a4.2,4.2,0,0,1,1.207,2.844l.016.578a4.418,4.418,0,0,1-1.086,3.121,4.209,4.209,0,0,1-5.832,0,4.5,4.5,0,0,1-1.09-3.187Zm2.258.16a3.16,3.16,0,0,0,.453,1.843,1.628,1.628,0,0,0,2.578.008,3.457,3.457,0,0,0,.461-2.015,3.128,3.128,0,0,0-.461-1.831,1.5,1.5,0,0,0-1.3-.649,1.474,1.474,0,0,0-1.281.646A3.516,3.516,0,0,0,63.492,10.856Zm6.789-.145a5.094,5.094,0,0,1,.887-3.148,2.877,2.877,0,0,1,2.426-1.172,2.589,2.589,0,0,1,2.039.922V3H77.9V15H75.859l-.109-.9a2.657,2.657,0,0,1-2.172,1.055,2.869,2.869,0,0,1-2.395-1.176A5.258,5.258,0,0,1,70.281,10.711Zm2.258.161a3.355,3.355,0,0,0,.414,1.829,1.348,1.348,0,0,0,1.2.636,1.51,1.51,0,0,0,1.477-.887V9.1a1.489,1.489,0,0,0-1.461-.887Q72.539,8.211,72.539,10.872Zm12.172,3.269A2.831,2.831,0,0,1,82.4,15.156a2.67,2.67,0,0,1-2.074-.781,3.335,3.335,0,0,1-.73-2.289V6.547h2.258v5.467q0,1.322,1.2,1.322a1.63,1.63,0,0,0,1.578-.8V6.547H86.9V15H84.773Zm7.406-.8a1.481,1.481,0,0,0,1.016-.344,1.2,1.2,0,0,0,.406-.914h2.117a2.9,2.9,0,0,1-.469,1.574,3.093,3.093,0,0,1-1.262,1.109,3.949,3.949,0,0,1-1.77.395A3.67,3.67,0,0,1,89.3,14,4.56,4.56,0,0,1,88.25,10.82v-.148a4.508,4.508,0,0,1,1.039-3.117,3.627,3.627,0,0,1,2.852-1.164,3.555,3.555,0,0,1,2.543.9,3.2,3.2,0,0,1,.973,2.4H93.539a1.551,1.551,0,0,0-.406-1.072,1.51,1.51,0,0,0-2.223.163,3.333,3.333,0,0,0-.4,1.866v.235a3.375,3.375,0,0,0,.4,1.878A1.377,1.377,0,0,0,92.117,13.336ZM99.328,15H97.063V6.547h2.266ZM96.93,4.359a1.112,1.112,0,0,1,.34-.836,1.465,1.465,0,0,1,1.848,0,1.105,1.105,0,0,1,.344.836,1.108,1.108,0,0,1-.348.844,1.448,1.448,0,0,1-1.836,0A1.108,1.108,0,0,1,96.93,4.359Zm9.008,4.3a6.134,6.134,0,0,0-.812-.062,1.654,1.654,0,0,0-1.68.867V15h-2.258V6.547h2.133l.063,1.008a2.092,2.092,0,0,1,1.883-1.164,2.366,2.366,0,0,1,.7.1Z" transform="translate(724 12799.518)" fill="#12263f"/>
    <g id="Trazado_916746" data-name="Trazado 916746" transform="translate(495 12782.518)" fill="#94b10b">
      <path d="M 178 54.5 L 12 54.5 C 8.928237915039062 54.5 6.040333271026611 53.30378723144531 3.868285655975342 51.13173675537109 C 1.696214318275452 48.95966720581055 0.5 46.07176208496094 0.5 43 L 0.5 12 C 0.5 8.928237915039062 1.696214318275452 6.040333271026611 3.868285655975342 3.868261814117432 C 6.040333271026611 1.696214318275452 8.928237915039062 0.5 12 0.5 L 178 0.5 C 181.0717620849609 0.5 183.9596710205078 1.696214318275452 186.1317138671875 3.868261814117432 C 188.3037872314453 6.040333271026611 189.5 8.928237915039062 189.5 12 L 189.5 43 C 189.5 46.07176208496094 188.3037872314453 48.95966720581055 186.1317138671875 51.13173675537109 C 183.9596710205078 53.30378723144531 181.0717620849609 54.5 178 54.5 Z" stroke="none"/>
      <path d="M 12 1 C 9.061798095703125 1 6.299453735351562 2.144199371337891 4.221832275390625 4.221824645996094 C 2.144195556640625 6.299449920654297 1 9.061798095703125 1 12 L 1 43 C 1 45.93820190429688 2.144195556640625 48.7005500793457 4.221832275390625 50.77817535400391 C 6.299453735351562 52.85580062866211 9.061798095703125 54 12 54 L 178 54 C 180.9382019042969 54 183.7005462646484 52.85580062866211 185.7781677246094 50.77817535400391 C 187.8558044433594 48.7005500793457 189 45.93820190429688 189 43 L 189 12 C 189 9.061798095703125 187.8558044433594 6.299449920654297 185.7781677246094 4.221824645996094 C 183.7005462646484 2.144199371337891 180.9382019042969 1 178 1 L 12 1 M 12 0 L 178 0 C 184.6273956298828 0 190 5.372573852539062 190 12 L 190 43 C 190 49.62742614746094 184.6273956298828 55 178 55 L 12 55 C 5.372573852539062 55 0 49.62742614746094 0 43 L 0 12 C 0 5.372573852539062 5.372573852539062 0 12 0 Z" stroke="none" fill="#94b10b"/>
    </g>
    <g id="Trazado_916750" data-name="Trazado 916750" transform="translate(284.667 12782.518)" fill="#f37e29">
      <path d="M 178 54.5 L 12 54.5 C 8.928237915039062 54.5 6.040333271026611 53.30378723144531 3.868285655975342 51.13173675537109 C 1.696214318275452 48.95966720581055 0.5 46.07176208496094 0.5 43 L 0.5 12 C 0.5 8.928237915039062 1.696214318275452 6.040333271026611 3.868285655975342 3.868261814117432 C 6.040333271026611 1.696214318275452 8.928237915039062 0.5 12 0.5 L 178 0.5 C 181.0717620849609 0.5 183.9596710205078 1.696214318275452 186.1317138671875 3.868261814117432 C 188.3037872314453 6.040333271026611 189.5 8.928237915039062 189.5 12 L 189.5 43 C 189.5 46.07176208496094 188.3037872314453 48.95966720581055 186.1317138671875 51.13173675537109 C 183.9596710205078 53.30378723144531 181.0717620849609 54.5 178 54.5 Z" stroke="none"/>
      <path d="M 12 1 C 9.061798095703125 1 6.299453735351562 2.144199371337891 4.221832275390625 4.221824645996094 C 2.144195556640625 6.299449920654297 1 9.061798095703125 1 12 L 1 43 C 1 45.93820190429688 2.144195556640625 48.7005500793457 4.221832275390625 50.77817535400391 C 6.299453735351562 52.85580062866211 9.061798095703125 54 12 54 L 178 54 C 180.9382019042969 54 183.7005462646484 52.85580062866211 185.7781677246094 50.77817535400391 C 187.8558044433594 48.7005500793457 189 45.93820190429688 189 43 L 189 12 C 189 9.061798095703125 187.8558044433594 6.299449920654297 185.7781677246094 4.221824645996094 C 183.7005462646484 2.144199371337891 180.9382019042969 1 178 1 L 12 1 M 12 0 L 178 0 C 184.6273956298828 0 190 5.372573852539062 190 12 L 190 43 C 190 49.62742614746094 184.6273956298828 55 178 55 L 12 55 C 5.372573852539062 55 0 49.62742614746094 0 43 L 0 12 C 0 5.372573852539062 5.372573852539062 0 12 0 Z" stroke="none" fill="#94b10b"/>
    </g>
    <path id="Trazado_916751" data-name="Trazado 916751" d="M37.164,15H34.82V3.625h2.344Zm4.1-8.453.07.977a2.951,2.951,0,0,1,2.43-1.133,2.453,2.453,0,0,1,2,.789,3.682,3.682,0,0,1,.672,2.359V15H44.18V9.581a1.47,1.47,0,0,0-.312-1.045,1.4,1.4,0,0,0-1.039-.325,1.553,1.553,0,0,0-1.43.814V15H39.141V6.547Zm9.586-2.078V6.547H52.3V8.2H50.852v4.219a1.007,1.007,0,0,0,.18.672.9.9,0,0,0,.688.2,3.6,3.6,0,0,0,.664-.055v1.711a4.648,4.648,0,0,1-1.367.2,2.156,2.156,0,0,1-2.422-2.4V8.2H47.359V6.547h1.234V4.469Zm6.594,10.688a4.15,4.15,0,0,1-3.027-1.141,4.054,4.054,0,0,1-1.168-3.039v-.219a5.106,5.106,0,0,1,.492-2.277,3.612,3.612,0,0,1,1.395-1.547A3.914,3.914,0,0,1,57.2,6.391a3.508,3.508,0,0,1,2.73,1.094,4.444,4.444,0,0,1,1,3.1v.922H55.539a2.1,2.1,0,0,0,.66,1.328,2,2,0,0,0,1.395.5,2.437,2.437,0,0,0,2.039-.945l1.109,1.242a3.389,3.389,0,0,1-1.375,1.121A4.511,4.511,0,0,1,57.445,15.156Zm-.258-6.945a1.411,1.411,0,0,0-1.09.455,2.357,2.357,0,0,0-.535,1.3H58.7V9.788A1.681,1.681,0,0,0,58.3,8.623,1.456,1.456,0,0,0,57.188,8.211Zm9.766.453a6.134,6.134,0,0,0-.812-.062,1.654,1.654,0,0,0-1.68.867V15H62.2V6.547h2.133L64.4,7.555a2.092,2.092,0,0,1,1.883-1.164,2.366,2.366,0,0,1,.7.1Zm3.2-2.117.07.945a2.971,2.971,0,0,1,2.43-1.1A2.255,2.255,0,0,1,74.9,7.68a2.9,2.9,0,0,1,2.539-1.289,2.521,2.521,0,0,1,2.047.8,3.681,3.681,0,0,1,.672,2.41V15H77.891V9.6a1.616,1.616,0,0,0-.281-1.053,1.245,1.245,0,0,0-.992-.333,1.409,1.409,0,0,0-1.406.971L75.219,15H72.961V9.6a1.6,1.6,0,0,0-.289-1.065,1.257,1.257,0,0,0-.984-.329,1.463,1.463,0,0,0-1.391.8V15H68.039V6.547Zm15.625,8.609a4.15,4.15,0,0,1-3.027-1.141,4.054,4.054,0,0,1-1.168-3.039v-.219a5.106,5.106,0,0,1,.492-2.277,3.612,3.612,0,0,1,1.395-1.547,3.914,3.914,0,0,1,2.059-.543,3.508,3.508,0,0,1,2.73,1.094,4.444,4.444,0,0,1,1,3.1v.922H83.875a2.1,2.1,0,0,0,.66,1.328,2,2,0,0,0,1.395.5,2.437,2.437,0,0,0,2.039-.945l1.109,1.242A3.389,3.389,0,0,1,87.7,14.754,4.511,4.511,0,0,1,85.781,15.156Zm-.258-6.945a1.411,1.411,0,0,0-1.09.455,2.357,2.357,0,0,0-.535,1.3h3.141V9.788a1.681,1.681,0,0,0-.406-1.165A1.456,1.456,0,0,0,85.523,8.211Zm4.664,2.5a5.094,5.094,0,0,1,.887-3.148A2.877,2.877,0,0,1,93.5,6.391a2.589,2.589,0,0,1,2.039.922V3H97.8V15H95.766l-.109-.9a2.657,2.657,0,0,1-2.172,1.055A2.869,2.869,0,0,1,91.09,13.98,5.258,5.258,0,0,1,90.188,10.711Zm2.258.161a3.355,3.355,0,0,0,.414,1.829,1.348,1.348,0,0,0,1.2.636,1.51,1.51,0,0,0,1.477-.887V9.1a1.489,1.489,0,0,0-1.461-.887Q92.445,8.211,92.445,10.872ZM101.938,15H99.672V6.547h2.266Zm-2.4-10.641a1.112,1.112,0,0,1,.34-.836,1.465,1.465,0,0,1,1.848,0,1.105,1.105,0,0,1,.344.836,1.108,1.108,0,0,1-.348.844,1.448,1.448,0,0,1-1.836,0A1.108,1.108,0,0,1,99.539,4.359ZM108.7,15a2.507,2.507,0,0,1-.227-.758,2.732,2.732,0,0,1-2.133.914,3,3,0,0,1-2.059-.719,2.312,2.312,0,0,1-.816-1.812,2.389,2.389,0,0,1,1-2.062,4.915,4.915,0,0,1,2.879-.727h1.039V9.352a1.393,1.393,0,0,0-.3-.937,1.183,1.183,0,0,0-.949-.352,1.345,1.345,0,0,0-.895.273.929.929,0,0,0-.324.75h-2.258a2.268,2.268,0,0,1,.453-1.359,3,3,0,0,1,1.281-.98,4.669,4.669,0,0,1,1.859-.355,3.689,3.689,0,0,1,2.48.785,2.747,2.747,0,0,1,.918,2.207v3.664a4.041,4.041,0,0,0,.336,1.82V15Zm-1.867-1.57a1.945,1.945,0,0,0,.922-.223,1.462,1.462,0,0,0,.625-.6V11.156h-.844q-1.7,0-1.8,1.172l-.008.133a.9.9,0,0,0,.3.7A1.153,1.153,0,0,0,106.828,13.43Zm10.3-4.766a6.134,6.134,0,0,0-.812-.062,1.654,1.654,0,0,0-1.68.867V15h-2.258V6.547h2.133l.063,1.008a2.092,2.092,0,0,1,1.883-1.164,2.366,2.366,0,0,1,.7.1Z" transform="translate(514 12799.518)" fill="#fff"/>
    <path id="Trazado_916752" data-name="Trazado 916752" d="M50.473,12.656H46.363L45.582,15H43.09L47.324,3.625H49.5L53.754,15H51.262ZM47,10.758H49.84L48.41,6.5Zm12.25,1.906a.727.727,0,0,0-.41-.652,4.659,4.659,0,0,0-1.316-.426Q54.5,10.953,54.5,9.023a2.323,2.323,0,0,1,.934-1.879,3.766,3.766,0,0,1,2.441-.754,4.053,4.053,0,0,1,2.574.758,2.388,2.388,0,0,1,.965,1.969H59.16a1.092,1.092,0,0,0-.312-.8A1.322,1.322,0,0,0,57.871,8a1.351,1.351,0,0,0-.883.258.814.814,0,0,0-.312.656.7.7,0,0,0,.355.605,3.657,3.657,0,0,0,1.2.4,9.8,9.8,0,0,1,1.422.379,2.336,2.336,0,0,1,1.789,2.273,2.2,2.2,0,0,1-.992,1.871,4.28,4.28,0,0,1-2.562.715A4.47,4.47,0,0,1,56,14.777a3.166,3.166,0,0,1-1.293-1.039,2.414,2.414,0,0,1-.469-1.426h2.141a1.179,1.179,0,0,0,.445.922,1.766,1.766,0,0,0,1.109.32,1.635,1.635,0,0,0,.98-.246A.766.766,0,0,0,59.246,12.664Zm7.539,2.492a4.15,4.15,0,0,1-3.027-1.141,4.054,4.054,0,0,1-1.168-3.039v-.219a5.106,5.106,0,0,1,.492-2.277,3.612,3.612,0,0,1,1.395-1.547,3.914,3.914,0,0,1,2.059-.543,3.508,3.508,0,0,1,2.73,1.094,4.444,4.444,0,0,1,1,3.1v.922H64.879a2.1,2.1,0,0,0,.66,1.328,2,2,0,0,0,1.395.5,2.437,2.437,0,0,0,2.039-.945l1.109,1.242a3.389,3.389,0,0,1-1.375,1.121A4.511,4.511,0,0,1,66.785,15.156Zm-.258-6.945a1.411,1.411,0,0,0-1.09.455,2.357,2.357,0,0,0-.535,1.3h3.141V9.788a1.681,1.681,0,0,0-.406-1.165A1.456,1.456,0,0,0,66.527,8.211Zm9.594,4.453a.727.727,0,0,0-.41-.652,4.659,4.659,0,0,0-1.316-.426q-3.016-.633-3.016-2.562a2.323,2.323,0,0,1,.934-1.879,3.766,3.766,0,0,1,2.441-.754,4.053,4.053,0,0,1,2.574.758,2.388,2.388,0,0,1,.965,1.969H76.035a1.092,1.092,0,0,0-.312-.8A1.322,1.322,0,0,0,74.746,8a1.351,1.351,0,0,0-.883.258.814.814,0,0,0-.312.656.7.7,0,0,0,.355.605,3.657,3.657,0,0,0,1.2.4,9.8,9.8,0,0,1,1.422.379,2.336,2.336,0,0,1,1.789,2.273,2.2,2.2,0,0,1-.992,1.871,4.28,4.28,0,0,1-2.562.715,4.47,4.47,0,0,1-1.887-.379,3.166,3.166,0,0,1-1.293-1.039,2.414,2.414,0,0,1-.469-1.426h2.141a1.179,1.179,0,0,0,.445.922,1.766,1.766,0,0,0,1.109.32,1.635,1.635,0,0,0,.98-.246A.766.766,0,0,0,76.121,12.664Zm3.3-1.969A5.013,5.013,0,0,1,79.9,8.453,3.546,3.546,0,0,1,81.3,6.93a4.069,4.069,0,0,1,2.113-.539A3.849,3.849,0,0,1,86.2,7.438a4.2,4.2,0,0,1,1.207,2.844l.016.578A4.418,4.418,0,0,1,86.34,13.98a4.209,4.209,0,0,1-5.832,0,4.5,4.5,0,0,1-1.09-3.187Zm2.258.16a3.16,3.16,0,0,0,.453,1.843,1.628,1.628,0,0,0,2.578.008,3.457,3.457,0,0,0,.461-2.015,3.128,3.128,0,0,0-.461-1.831,1.5,1.5,0,0,0-1.3-.649,1.474,1.474,0,0,0-1.281.646A3.516,3.516,0,0,0,81.676,10.856ZM93.566,8.664a6.134,6.134,0,0,0-.812-.062,1.654,1.654,0,0,0-1.68.867V15H88.816V6.547h2.133l.063,1.008a2.092,2.092,0,0,1,1.883-1.164,2.366,2.366,0,0,1,.7.1ZM99.316,15a2.507,2.507,0,0,1-.227-.758,2.732,2.732,0,0,1-2.133.914,3,3,0,0,1-2.059-.719,2.312,2.312,0,0,1-.816-1.812,2.389,2.389,0,0,1,1-2.062,4.915,4.915,0,0,1,2.879-.727H99V9.352a1.393,1.393,0,0,0-.3-.937,1.183,1.183,0,0,0-.949-.352,1.345,1.345,0,0,0-.895.273.929.929,0,0,0-.324.75H94.27a2.268,2.268,0,0,1,.453-1.359A3,3,0,0,1,96,6.746a4.669,4.669,0,0,1,1.859-.355,3.689,3.689,0,0,1,2.48.785,2.747,2.747,0,0,1,.918,2.207v3.664a4.041,4.041,0,0,0,.336,1.82V15Zm-1.867-1.57a1.945,1.945,0,0,0,.922-.223,1.462,1.462,0,0,0,.625-.6V11.156h-.844q-1.7,0-1.8,1.172l-.008.133a.9.9,0,0,0,.3.7A1.153,1.153,0,0,0,97.449,13.43Zm10.3-4.766a6.134,6.134,0,0,0-.812-.062,1.654,1.654,0,0,0-1.68.867V15H103V6.547h2.133l.063,1.008a2.092,2.092,0,0,1,1.883-1.164,2.366,2.366,0,0,1,.7.1Z" transform="translate(303.667 12799.518)" fill="#fff"/>
    <g id="Trazado_916753" data-name="Trazado 916753" transform="translate(599.051 12769.518) rotate(180)" fill="#4aafe3">
      <path d="M 15.13841247558594 13.5 L 0.8615895509719849 13.5 L 8.000000953674316 1.007779955863953 L 15.13841247558594 13.5 Z" stroke="none"/>
      <path d="M 8.000000953674316 2.015560150146484 L 1.723177909851074 13 L 14.27682399749756 13 L 8.000000953674316 2.015560150146484 M 8.000000953674316 0 L 16 14 L 1.9073486328125e-06 14 L 8.000000953674316 0 Z" stroke="none" fill="#32799d"/>
    </g>
    <g id="Trazado_916754" data-name="Trazado 916754" transform="translate(808.051 12769.518) rotate(180)" fill="#4aafe3">
      <path d="M 15.13841247558594 13.5 L 0.8615895509719849 13.5 L 8.000000953674316 1.007779955863953 L 15.13841247558594 13.5 Z" stroke="none"/>
      <path d="M 8.000000953674316 2.015560150146484 L 1.723177909851074 13 L 14.27682399749756 13 L 8.000000953674316 2.015560150146484 M 8.000000953674316 0 L 16 14 L 1.9073486328125e-06 14 L 8.000000953674316 0 Z" stroke="none" fill="#32799d"/>
    </g>
    <g id="Trazado_916755" data-name="Trazado 916755" transform="translate(389.051 12769.518) rotate(180)" fill="#4aafe3">
      <path d="M 15.13841247558594 13.5 L 0.8615895509719849 13.5 L 8.000000953674316 1.007779955863953 L 15.13841247558594 13.5 Z" stroke="none"/>
      <path d="M 8.000000953674316 2.015560150146484 L 1.723177909851074 13 L 14.27682399749756 13 L 8.000000953674316 2.015560150146484 M 8.000000953674316 0 L 16 14 L 1.9073486328125e-06 14 L 8.000000953674316 0 Z" stroke="none" fill="#32799d"/>
    </g>
  </g>
</svg>
