<svg id="estado-financiero" xmlns="http://www.w3.org/2000/svg" width="70.502" height="70.502" viewBox="0 0 70.502 70.502">
  <path id="Trazado_914339" data-name="Trazado 914339" d="M61.979,36.291V6.376A2.066,2.066,0,0,0,59.913,4.31h-6.2V2.065A2.066,2.066,0,0,0,51.651,0H14.459A2.064,2.064,0,0,0,13,.605L.605,13A2.074,2.074,0,0,0,0,14.458V68.437A2.066,2.066,0,0,0,2.065,70.5h49.7a18.585,18.585,0,0,0,10.21-34.211ZM57.848,8.441V34.295a18.453,18.453,0,0,0-4.131-.884V8.441Zm-45.441-1.4v5.355H7.052ZM4.131,66.371V16.524H14.472a2.066,2.066,0,0,0,2.065-2.066V4.131H49.586V33.469a18.609,18.609,0,0,0-13.028,7.979H10.341a2.066,2.066,0,1,0,0,4.131H34.435a18.437,18.437,0,0,0-.981,4.131H10.341a2.066,2.066,0,1,0,0,4.131H33.423a18.448,18.448,0,0,0,.915,4.131h-24a2.066,2.066,0,0,0,0,4.131H36.373a18.744,18.744,0,0,0,3.87,4.269Zm47.782,0A14.459,14.459,0,1,1,66.371,51.913,14.475,14.475,0,0,1,51.913,66.371Z" fill="#245670"/>
  <path id="Trazado_914340" data-name="Trazado 914340" d="M345.714,310.36c-1.725-1.344-4.013-1.616-4.449-2.4a.705.705,0,0,1,.321-.789,1.932,1.932,0,0,1,1.842.134,2.066,2.066,0,1,0,2.8-3.037,5.191,5.191,0,0,0-1.977-1.11,2.065,2.065,0,0,0-4.129.033v.1a4.812,4.812,0,0,0-2.471,6.666,6.741,6.741,0,0,0,3.841,2.836c.855.338,2.288.848,2.186,1.763a1.475,1.475,0,0,1-.835,1.084,3.6,3.6,0,0,1-2.924-.441,2.066,2.066,0,1,0-2.262,3.457,7.924,7.924,0,0,0,2.464,1.03v.035a2.066,2.066,0,0,0,4.131,0v-.2A5.262,5.262,0,0,0,345.714,310.36Z" transform="translate(-290.356 -259.658)" fill="#245670"/>
  <path id="Trazado_914341" data-name="Trazado 914341" d="M93.116,126.662h24.772a2.066,2.066,0,0,0,2.066-2.066c0-10.99,0,2.812,0-8.276a2.066,2.066,0,0,0-2.066-2.066h-6.2v-6.19A2.066,2.066,0,0,0,109.626,106h-8.248a2.066,2.066,0,0,0-2.066,2.066V112.2l-6.2-.005a2.066,2.066,0,0,0-2.065,2.065V124.6A2.066,2.066,0,0,0,93.116,126.662Zm22.707-8.276v4.145h-4.131v-4.145Zm-12.379-8.255h4.117v12.4h-4.117Zm-4.131,6.2v6.2H95.181v-6.2Z" transform="translate(-78.512 -91.404)" fill="#245670"/>
</svg>
