<svg xmlns="http://www.w3.org/2000/svg" width="74.277" height="71.959" viewBox="0 0 74.277 71.959">
  <g id="banco-2" transform="translate(0 -7.989)">
    <path id="Trazado_914342" data-name="Trazado 914342" d="M74.277,33.467V19.3L37.138,7.989,0,19.3V33.467H4.5V62.721H0V77.452H27.344a20.465,20.465,0,0,0,19.59,0H74.277V62.721h-4.5V33.467ZM4.352,29.115v-6.59l32.786-9.986,32.786,9.986v6.59H4.352Zm49.579,18.6a20.475,20.475,0,0,0-33.585,0V33.467H53.931ZM8.854,33.467h7.14V62.721H8.854Zm-4.5,33.606H18.114A20.536,20.536,0,0,0,21.862,73.1H4.352ZM21,59.454A16.142,16.142,0,1,1,37.138,75.6,16.16,16.16,0,0,1,21,59.454Zm48.928,7.619V73.1H52.415a20.529,20.529,0,0,0,3.748-6.026H69.925Zm-4.5-4.352h-7.14V33.467h7.14Z" fill="#495705"/>
    <path id="Trazado_914343" data-name="Trazado 914343" d="M222.489,289.977a9.346,9.346,0,0,1-2.982-1.484.961.961,0,0,1-.291-.836,1.189,1.189,0,0,1,.777-.832,3.138,3.138,0,0,1,2.862,1.007l3.077-3.078a8.413,8.413,0,0,0-3.361-2.061v-2.734H218.22v2.889a5.5,5.5,0,0,0-3.262,3.918,5.307,5.307,0,0,0,1.532,4.864,12.327,12.327,0,0,0,4.427,2.407,1.77,1.77,0,0,1,1.036.929,1.281,1.281,0,0,1,.047.97,1.639,1.639,0,0,1-1.618,1.04,6.029,6.029,0,0,1-3.536-1.358l-2.487,3.571a11.968,11.968,0,0,0,3.862,1.868v2.922h4.352v-3.035a5.878,5.878,0,0,0,3.481-3.424,5.658,5.658,0,0,0-.116-4.306,6.127,6.127,0,0,0-3.447-3.236Z" transform="translate(-183.261 -232.514)" fill="#495705"/>
    <path id="Trazado_914344" data-name="Trazado 914344" d="M187.268,90.4H207.21v4.352H187.268Z" transform="translate(-160.101 -70.453)" fill="#495705"/>
  </g>
</svg>
